<?xml version="1.0" encoding="iso-8859-1"?>
<!-- Generator: Adobe Illustrator 19.0.0, SVG Export Plug-In . SVG Version: 6.00 Build 0)  -->
<svg version="1.1" id="Capa_1" xmlns="http://www.w3.org/2000/svg" xmlns:xlink="http://www.w3.org/1999/xlink" x="0px" y="0px"
	 viewBox="0 0 539.022 539.022" style="enable-background:new 0 0 539.022 539.022;" xml:space="preserve">
<path style="fill:#F05640;" d="M216.742,99.873l20.267-70.4c0,0,1.067-11.733,19.2-14.933s51.2-6.4,88.533,21.333
	c0,0,6.4,5.333,5.333,20.267c0,14.933,0,57.6,0,57.6L216.742,99.873z"/>
<path style="fill:#FFD15C;" d="M342.609,134.007l-6.4,42.667c0,0,9.6,6.4,9.6,23.467c0,16,0,40.533,0,40.533l-44.8,24.533l-48-44.8
	L342.609,134.007z"/>
<path style="fill:#F5B54C;" d="M277.542,236.407L277.542,236.407c1.067-1.067,1.067-1.067,2.133-1.067c0,0,1.067,0,1.067-1.067
	c2.133-1.067,5.333-3.2,8.533-5.333c3.2-2.133,7.467-5.333,10.667-7.467c1.067-1.067,2.133-1.067,3.2-2.133l1.067-1.067l1.067-1.067
	l1.067-1.067l1.067-1.067l1.067-1.067l1.067-1.067c3.2-4.267,6.4-8.533,8.533-12.8c2.133-4.267,4.267-8.533,5.333-12.8
	c1.067-4.267,3.2-7.467,3.2-9.6c0-1.067,1.067-2.133,1.067-2.133c0-1.067,0-1.067,0-1.067s0,0,0,1.067s0,2.133,0,3.2
	c0,2.133,0,6.4-1.067,10.667c0,4.267-1.067,9.6-2.133,14.933c-1.067,5.333-3.2,10.667-5.333,17.067c0,1.067-1.067,1.067-1.067,2.133
	c0,1.067-1.067,1.067-1.067,2.133c0,1.067-1.067,1.067-1.067,2.133l0,0l0,0v1.067v-2.133l0,0l0,0l0,0l-1.067,1.067l0,0l0,0l0,0l0,0
	l0,0l0,0l-2.133,3.2c-1.067,1.067-2.133,2.133-2.133,3.2c-3.2,4.267-6.4,8.533-9.6,11.733c-1.067,2.133-3.2,3.2-4.267,4.267
	c-1.067,1.067-2.133,2.133-3.2,3.2c-1.067,0-1.067,1.067-1.067,1.067l-1.067,1.067l-1.067,1.067L277.542,236.407z"/>
<path style="fill:#344A5E;" d="M93.009,448.673c0,0-19.2,0-22.4-9.6c-2.133-9.6,9.6-60.8,50.133-66.133l11.733,34.133
	C132.476,407.073,134.609,448.673,93.009,448.673z"/>
<path style="fill:#FFD15C;" d="M101.542,442.273l-25.6-44.8c0,0-7.467-8.533-7.467-12.8c0,0-11.733-10.667-14.933-19.2
	c-3.2-8.533-16-20.267-13.867-28.8c0,0-7.467-7.467-6.4-13.867c1.067-6.4,7.467-7.467,7.467-7.467s-1.067-7.467,2.133-11.733
	c3.2-4.267,5.333-10.667,6.4-13.867s9.6-7.467,13.867-7.467s0-17.067,0-17.067s3.2-5.333,8.533-3.2c5.333,3.2,9.6,16,11.733,20.267
	s8.533,12.8,11.733,18.133c3.2,5.333,11.733,27.733,10.667,36.267c0,8.533-3.2,14.933-3.2,14.933v3.2l37.333,64
	C138.876,418.807,131.409,444.407,101.542,442.273z"/>
<rect x="43.91" y="251.524" transform="matrix(-0.9618 0.2737 -0.2737 -0.9618 174.0622 495.8307)" style="fill:#344A5E;" width="17.066" height="17.066"/>
<path style="fill:#E8EAE8;" d="M30.076,179.873c-22.4,6.4-34.133,28.8-28.8,51.2c6.4,22.4,28.8,34.133,51.2,28.8
	c22.4-6.4,34.133-28.8,28.8-51.2C74.876,187.34,52.476,174.54,30.076,179.873z M49.276,247.073
	c-14.933,4.267-30.933-4.267-35.2-19.2c-4.267-14.933,4.267-30.933,19.2-35.2s30.933,4.267,35.2,19.2
	C72.742,226.807,64.209,242.807,49.276,247.073z"/>
<path style="fill:#F26F5A;" d="M55.676,268.407L55.676,268.407c-6.4,2.133-10.667,8.533-8.533,14.933l6.4,22.4
	c2.133,6.4,8.533,10.667,14.933,8.533l0,0c6.4-2.133,10.667-8.533,8.533-14.933l-6.4-22.4
	C68.476,270.54,62.076,266.273,55.676,268.407z"/>
<g>
	<path style="fill:#F5B54C;" d="M90.876,351.607c-4.267,3.2-9.6,4.267-14.933,3.2c1.067,0,2.133,0,3.2,1.067
		c1.067,0,2.133,1.067,2.133,2.133c0,1.067-1.067,3.2-3.2,3.2c-1.067,0-3.2,0-4.267-1.067c1.067,1.067,2.133,1.067,4.267,1.067
		c1.067,0,2.133,0,3.2,0c2.133,1.067,3.2,3.2,3.2,5.333c0-1.067-1.067-3.2,0-4.267c0-1.067,1.067-3.2,2.133-3.2
		c2.133-1.067,4.267,0,6.4-2.133c-3.2,0-5.333,0-8.533,0C86.609,355.873,89.809,353.74,90.876,351.607"/>
	<path style="fill:#F5B54C;" d="M58.876,375.073c1.067,0,1.067,0,2.133-1.067h1.067h1.067c1.067,0,1.067-1.067,2.133-1.067
		s1.067-1.067,2.133-1.067s1.067-1.067,2.133-1.067l1.067-1.067l1.067-1.067l1.067-1.067l1.067-1.067l1.067-1.067l1.067-1.067
		l1.067-1.067c1.067-1.067,1.067-2.133,2.133-3.2c0-1.067,1.067-1.067,1.067-2.133c0-1.067,1.067-1.067,1.067-2.133v-1.067
		l1.067,1.067l0,0l0,0l0,0l0,0c0,0,0,0,1.067,0l0,0l0,0h1.067c0,0,0,0,1.067,0l0,0l0,0h1.067l2.133-1.067l0,0l0,0l0,0l0,0l0,0l0,0
		l0,0l0,0c0,0,0,0,1.067,0c0,0,0,0,1.067,0c0,0,0,0,1.067,0l0,0l0,0l0,0l0,0l0,0l0,0l0,0l0,0l0,0c0,0,0,0,0-1.067s0-2.133,0-3.2
		c0-1.067,0-2.133,0-4.267c0-1.067,0-1.067,0-2.133v-1.067v-1.067l0,0v-1.067c0,0,0,0,0-1.067c0,0,0,0,0-1.067v-1.067v-1.067v-1.067
		v-1.067v-1.067v-1.067v-1.067v-1.067c0-1.067,0-1.067,0-2.133c0-1.067,0-1.067-1.067-2.133v-1.067v-1.067l0,0v-1.067v-1.067v-1.067
		v-1.067v-1.067v-1.067v-1.067v-1.067c0,0,0-1.067-1.067-1.067c0-1.067-1.067-1.067-1.067-2.133c0,0,0-1.067-1.067-1.067
		c-1.067-1.067-1.067-1.067-2.133-2.133l-1.067-1.067l-1.067-1.067h-1.067v-1.067c0-1.067,0-1.067,0-2.133s0-1.067,0-2.133
		c0-1.067,0-1.067,0-2.133c0-1.067,0-1.067-1.067-2.133v-1.067v-1.067c0-1.067-1.067-1.067-1.067-2.133l0,0l0,0l0,0l0,0l0,0l0,0l0,0
		l0,0l0,0l0,0l0,0l0,0l0,0l-3.2-2.133c-1.067,0-1.067-1.067-2.133-1.067c0,0-1.067,0-1.067-1.067l-1.067-1.067
		c-1.067,0-1.067-1.067-2.133-1.067s-1.067-1.067-2.133-1.067c-1.067-1.067-3.2-1.067-4.267-2.133
		c-1.067-1.067-3.2-1.067-4.267-2.133c3.2,1.067,6.4,2.133,8.533,3.2c1.067,0,1.067,1.067,2.133,1.067s1.067,1.067,2.133,1.067
		l1.067,1.067c0,0,1.067,0,1.067,1.067c1.067,0,1.067,1.067,2.133,1.067l1.067,1.067l0,0l0,0l0,0l0,0l0,0l0,0l0,0l0,0l0,0l0,0l0,0
		l0,0c0,1.067,1.067,1.067,1.067,2.133v1.067v1.067c0,1.067,0,1.067,1.067,2.133c0,1.067,0,1.067,1.067,2.133
		c0,1.067,0,1.067,0,2.133c0,1.067,0,1.067,0,2.133l-1.067-1.067l1.067,1.067l1.067,1.067c6.4,3.2,6.4,3.2,7.467,4.267
		s1.067,1.067,2.133,2.133c0,1.067,1.067,1.067,1.067,2.133c0,0,0,1.067,1.067,1.067c0,0,0,1.067,1.067,1.067
		c0,0,0,1.067,1.067,1.067v1.067v1.067v1.067v1.067v1.067v-1.067v1.067v1.067c0,1.067,0,1.067,1.067,2.133
		c0,1.067,0,1.067,1.067,2.133v1.067v1.067v1.067v1.067v1.067v1.067v1.067v1.067v1.067v1.067v-1.067v1.067v1.067
		c0,1.067,0,1.067,0,2.133c0,1.067,0,3.2,0,4.267c0,1.067,0,1.067,0,2.133v1.067v1.067v1.067c0,0,0,0,0,1.067c0,0,0,0,0,1.067l0,0
		c0,0,0,0-1.067,0c0,0,0,0-1.067,0c0,0,0,0-1.067,0l0,0l0,0l0,0h-1.067h-1.067h-1.067c0,0,0,0-1.067,0c0,0,0,0-1.067,0
		c0,0,0,0-1.067,0c0,0,0,0-1.067,0c0,0,0,0-1.067,0l0,0l0,0l0,0h1.067l0,0l0,0c0,0,0,0-1.067,0h-1.067l0,0l0,0h-1.067l0,0l0,0l0,0
		l0,0h2.133c0,1.067-1.067,1.067-1.067,2.133s-1.067,1.067-1.067,2.133c-1.067,1.067-1.067,2.133-2.133,3.2l-1.067,1.067
		l-1.067,1.067l-1.067,1.067l-1.067,1.067l-1.067,1.067c-1.067,0-1.067,1.067-2.133,1.067s-1.067,1.067-2.133,1.067
		s-1.067,1.067-2.133,1.067s-1.067,1.067-2.133,1.067s-1.067,0-2.133,1.067h-1.067h-1.067
		C59.942,375.073,59.942,375.073,58.876,375.073z"/>
</g>
<path style="fill:#FFD15C;" d="M82.342,354.807c2.133,1.067,5.333,0,5.333,0c2.133,3.2,6.4,0,6.4,0c5.333-2.133,2.133-16,2.133-16
	c3.2-5.333-2.133-14.933-2.133-14.933c3.2-9.6-9.6-18.133-9.6-18.133s0-9.6-4.267-14.933c-4.267-5.333-19.2-9.6-19.2-9.6
	c-4.267,0-12.8,4.267-13.867,7.467c-1.067,3.2-3.2,9.6-6.4,13.867s-2.133,11.733-2.133,11.733s-6.4,1.067-7.467,7.467
	c-1.067,6.4,6.4,13.867,6.4,13.867c-1.067,8.533,10.667,20.267,13.867,28.8c1.067,3.2,3.2,6.4,6.4,9.6
	C74.876,371.873,82.342,354.807,82.342,354.807z"/>
<g>
	<path style="fill:#F5B54C;" d="M96.209,339.873L96.209,339.873c0-1.067,0-1.067-1.067-1.067l-1.067-1.067l-1.067-1.067
		c-1.067,0-1.067-1.067-2.133-1.067l0,0l0,0c0,0,0,0-1.067,0h-1.067c-1.067,0-2.133,0-3.2,0s-2.133,0-3.2,1.067
		c-1.067,0-2.133,0-3.2,1.067c-1.067,0-2.133,0-3.2,0s-2.133,0-3.2,0c-1.067,0-2.133,0-2.133,0c-3.2,0-5.333,1.067-5.333,1.067
		s2.133-1.067,5.333-1.067c1.067,0,3.2-1.067,5.333-1.067c1.067,0,2.133,0,3.2-1.067c1.067,0,2.133,0,3.2-1.067
		c1.067,0,2.133,0,3.2,0h1.067h1.067h1.067c0,0,0,0,1.067,0l0,0l0,0c1.067,0,2.133,1.067,2.133,1.067
		c1.067,0,1.067,1.067,1.067,2.133s1.067,1.067,1.067,1.067C95.142,338.807,95.142,338.807,96.209,339.873L96.209,339.873z"/>
	<path style="fill:#F5B54C;" d="M94.076,323.873c0,0,0,0-1.067-1.067c-1.067-1.067-2.133-2.133-3.2-3.2
		c-1.067,0-1.067-1.067-2.133-1.067s-2.133-1.067-3.2-1.067c-1.067,0-1.067,0-2.133,0s-1.067,0-2.133,0s-2.133,0-3.2,1.067
		c-1.067,0-2.133,0-3.2,1.067c-1.067,0-2.133,0-3.2,1.067c-1.067,0-2.133,0-3.2,1.067c-1.067,0-2.133,0-3.2,0
		c-1.067,0-2.133,0-2.133,0c-1.067,0-1.067,0-2.133,0s-1.067,0-1.067,0l0,0c0,0,1.067,0,2.133,0c0,0,1.067,0,2.133,0
		c1.067,0,1.067,0,2.133,0s2.133,0,3.2-1.067c1.067,0,2.133,0,3.2-1.067c1.067,0,2.133-1.067,3.2-1.067
		c1.067,0,2.133-1.067,3.2-1.067s2.133,0,3.2-1.067c1.067,0,1.067,0,2.133,0s1.067,0,2.133,0s1.067,0,2.133,0s1.067,0,1.067,1.067
		c1.067,1.067,2.133,1.067,2.133,2.133c1.067,1.067,2.133,2.133,3.2,3.2C94.076,323.873,94.076,323.873,94.076,323.873z"/>
	<path style="fill:#F5B54C;" d="M84.476,306.807c0,0,0,0-1.067-1.067l-1.067-1.067c-1.067,0-1.067-1.067-2.133-1.067
		s-1.067-1.067-2.133-1.067c-1.067-1.067-2.133-1.067-3.2-1.067s-1.067,0-1.067,0h-1.067c-1.067,0-2.133,0-3.2,0
		c-1.067,0-2.133,0-3.2,1.067c-1.067,0-2.133,0-3.2,1.067c-1.067,0-2.133,0-3.2,1.067c-1.067,0-2.133,0-2.133,1.067c0,0,0,0-1.067,0
		l0,0h-1.067c-1.067,0-1.067,0-2.133,1.067c-1.067,0-1.067,1.067-1.067,1.067s0,0,1.067-1.067l1.067-1.067
		c1.067,0,1.067-1.067,2.133-1.067c1.067,0,2.133-1.067,2.133-1.067c1.067,0,2.133-1.067,3.2-1.067
		c1.067-1.067,2.133-1.067,3.2-1.067c1.067,0,2.133,0,3.2-1.067c1.067,0,2.133,0,3.2,0s1.067,0,2.133,0s1.067,0,2.133,0
		s2.133,0,3.2,1.067c1.067,0,2.133,1.067,2.133,1.067c1.067,0,1.067,1.067,2.133,1.067l1.067,1.067
		C84.476,305.74,84.476,305.74,84.476,306.807C84.476,305.74,84.476,306.807,84.476,306.807z"/>
</g>
<circle style="fill:#8AD6F7;" cx="41.809" cy="220.407" r="27.733"/>
<path style="fill:#FFFFFF;" d="M52.476,212.94c-4.267-3.2-6.4-7.467-5.333-10.667c1.067-3.2,5.333-3.2,8.533,0
	c4.267,3.2,6.4,7.467,5.333,10.667C59.942,216.14,56.742,216.14,52.476,212.94z"/>
<path style="fill:#425A6B;" d="M120.742,372.94c0,0,9.6,38.4-10.667,55.467c-20.267,17.067-30.933,19.2-38.4,9.6
	c0,0,1.067,8.533,12.8,18.133s48,20.267,57.6,21.333c9.6,1.067,33.067-9.6,40.533-19.2c7.467-9.6,16-18.133,18.133-28.8
	c3.2-10.667,4.267-12.8,6.4-14.933c3.2-2.133,17.067-43.733,21.333-49.067c4.267-5.333,4.267-5.333,4.267-5.333
	s-43.733-93.867-49.067-97.067c-5.333-4.267-7.467,1.067-7.467,1.067s-5.333,22.4-6.4,34.133c-1.067,10.667-3.2,14.933-7.467,22.4
	c-3.2,7.467-4.267,13.867-4.267,17.067s-10.667,12.8-14.933,22.4c-5.333,9.6-9.6,22.4-9.6,22.4L120.742,372.94z"/>
<g>
	<path style="fill:#344A5E;" d="M161.276,407.073c-5.333-12.8-19.2-24.533-23.467-27.733c-1.067,2.133-1.067,4.267-1.067,4.267
		s18.133,13.867,23.467,26.667s5.333,26.667,5.333,30.933C164.476,441.207,167.676,422.007,161.276,407.073z"/>
	<path style="fill:#344A5E;" d="M175.142,450.807c0,0-5.333-35.2-16-49.067C159.142,402.807,180.476,423.073,175.142,450.807z"/>
</g>
<path style="fill:#425A6B;" d="M446.076,323.873c0,0,11.733,2.133,18.133,5.333c6.4,2.133,7.467,8.533,12.8,10.667
	c5.333,3.2-1.067,6.4,0,13.867s7.467,10.667,7.467,19.2s-3.2,30.933-2.133,33.067c1.067,3.2-6.4,34.133-6.4,34.133
	s45.867,0,48,11.733l6.4-32c0,0,4.267-24.533,7.467-32c3.2-7.467-1.067-17.067,0-27.733c1.067-10.667,0-30.933-3.2-38.4
	c-3.2-7.467-17.067-30.933-20.267-39.467c-2.133-8.533-44.8-28.8-50.133-35.2c-5.333-6.4-7.467-8.533-7.467-8.533
	c-10.667,30.933-20.267,60.8-10.667,83.2"/>
<path style="fill:#344A5E;" d="M422.609,200.14c0,0,30.933,8.533,34.133,23.467c3.2,14.933,2.133,64-3.2,82.133
	c-5.333,18.133-9.6,25.6-9.6,25.6s-4.267,17.067-2.133,24.533c2.133,7.467,16,89.6,26.667,107.733
	c10.667,19.2,42.667,62.933,42.667,62.933H265.809c0,0,7.467-24.533,0-53.333c-7.467-28.8-37.333-98.133-37.333-98.133
	s-26.667-83.2-51.2-108.8c0,0,34.133-36.267,51.2-40.533l49.067,69.333l94.933,109.867l21.333-89.6L422.609,200.14z"/>
<path style="fill:#E8EAE8;" d="M375.676,385.74c3.2-10.667,6.4-21.333,8.533-32c3.2-10.667,6.4-21.333,8.533-33.067
	c3.2-10.667,5.333-21.333,8.533-33.067c2.133-8.533,5.333-16,7.467-24.533c0-2.133,1.067-5.333,1.067-7.467l-21.333-55.467
	l-45.867-14.933l-1.067,25.6l-3.2,21.333l-10.667,8.533l-26.667,4.267l-40.533-4.267l-9.6,38.4l118.4,131.2
	C372.476,401.74,373.542,393.207,375.676,385.74z"/>
<path style="fill:#56BFEB;" d="M360.742,407.073c3.2-3.2,7.467-5.333,11.733-6.4c-6.4-29.867-16-70.4-20.267-88.533
	c-7.467-29.867-20.267-41.6-20.267-41.6c-4.267-8.533-13.867-4.267-13.867-4.267s0,0-4.267,8.533s-1.067,42.667-1.067,42.667
	l18.133,68.267C333.009,385.74,360.742,406.007,360.742,407.073z"/>
<g>
	<path style="fill:#8AD6F7;" d="M293.542,242.807l12.8-1.067c0,0,7.467,1.067,13.867,0c6.4-1.067,14.933-3.2,17.067,1.067
		c0,0-6.4,19.2-4.267,27.733c0,0-12.8-2.133-17.067,4.267c0,0-16-17.067-23.467-19.2
		C282.876,252.407,293.542,242.807,293.542,242.807z"/>
	<path style="fill:#8AD6F7;" d="M324.476,241.74c0,0,11.733-10.667,16-17.067c4.267-6.4,8.533,4.267,8.533,4.267l-12.8,13.867
		C336.209,242.807,325.542,250.273,324.476,241.74z"/>
</g>
<g>
	<path style="fill:#FEFEFE;" d="M336.209,176.673c0,0,10.667,13.867,3.2,34.133s-14.933,28.8-14.933,28.8s13.867-4.267,21.333,4.267
		c7.467,9.6,22.4,11.733,22.4,11.733s-17.067-44.8-17.067-53.333S343.676,177.74,336.209,176.673z"/>
	<path style="fill:#FEFEFE;" d="M306.342,241.74c0,0-10.667,9.6-10.667,16c0,7.467,3.2,22.4,0,33.067l-42.667-49.067l6.4-19.2
		C259.409,222.54,285.009,241.74,306.342,241.74z"/>
</g>
<g>
	<path style="fill:#425A6B;" d="M233.809,207.607c0,0,34.133,32,42.667,46.933c9.6,14.933,96,144,96,144l-9.6,41.6
		c0,0-38.4-49.067-51.2-61.867c-12.8-12.8-65.067-58.667-65.067-62.933c0-5.333,0-5.333-2.133-9.6
		c-3.2-4.267-19.2-14.933-50.133-20.267L233.809,207.607z"/>
	<path style="fill:#425A6B;" d="M339.409,176.673c0,0,25.6,5.333,35.2,6.4c9.6,1.067,44.8,6.4,59.733,22.4
		c14.933,16,26.667,30.933,26.667,30.933s-38.4,40.533-41.6,55.467c-2.133,14.933-16,26.667-19.2,38.4
		c-3.2,11.733-29.867,88.533-36.267,110.933c0,0,12.8-59.733,17.067-76.8c4.267-17.067,8.533-57.6,8.533-68.267
		c0-10.667,2.133-28.8-6.4-50.133C371.409,209.74,341.542,184.14,339.409,176.673z"/>
</g>
<path style="fill:#FFD15C;" d="M218.876,172.407c1.067,7.467,3.2,14.933,6.4,21.333c6.4,16,20.267,45.867,34.133,50.133
	c19.2,6.4,51.2-26.667,57.6-35.2c5.333-8.533,26.667-73.6,26.667-73.6s-23.467-30.933-52.267-34.133s-76.8,14.933-76.8,14.933
	s1.067,26.667,1.067,29.867c0,3.2,3.2,17.067,3.2,22.4C218.876,168.14,218.876,170.273,218.876,172.407z"/>
<path style="fill:#425A6B;" d="M272.209,104.14c0,0,16,12.8,16,21.333c0,8.533,19.2,1.067,24.533,8.533
	c4.267,7.467,5.333,21.333,5.333,21.333h6.4l22.4-10.667l4.267-27.733L272.209,104.14z"/>
<path style="fill:#F26F5A;" d="M214.609,137.207c0,0-9.6-22.4,16-24.533c25.6-3.2,67.2-3.2,86.4,5.333
	c20.267,8.533,34.133,26.667,21.333,58.667c0,0,25.6,1.067,36.267-13.867c10.667-14.933-2.133-40.533-12.8-46.933
	c-10.667-6.4-35.2-28.8-81.067-27.733c-45.867,2.133-71.467,4.267-91.733,13.867c0,0-4.267,2.133-8.533,4.267
	c-3.2,2.133-4.267,6.4-2.133,9.6C184.742,122.273,195.409,134.007,214.609,137.207z"/>
<g>
	<path style="fill:#FFD15C;" d="M351.142,154.273c-1.067,11.733-7.467,21.333-14.933,21.333c-7.467,0-12.8-9.6-11.733-21.333
		c1.067-11.733,7.467-21.333,14.933-21.333C345.809,132.94,351.142,142.54,351.142,154.273z"/>
	<path style="fill:#FFD15C;" d="M521.809,463.607c0,9.6-5.333,20.267-5.333,20.267s-5.333,7.467-5.333,10.667
		c0,3.2-1.067,10.667-2.133,12.8c-1.067,2.133-2.133,10.667-3.2,12.8c-1.067,2.133-5.333,2.133-8.533-1.067
		c-2.133-3.2,2.133-14.933,2.133-18.133c0-3.2,1.067-6.4,1.067-6.4c-1.067-2.133-5.333-3.2-5.333-3.2s-5.333,8.533-7.467,11.733
		c-2.133,3.2-8.533,12.8-9.6,14.933c-2.133,2.133-6.4,5.333-9.6,0c-4.267-5.333,6.4-13.867,6.4-13.867s4.267-6.4,7.467-10.667
		c3.2-4.267,7.467-13.867,7.467-13.867s-8.533,11.733-9.6,13.867c-2.133,2.133-6.4,9.6-9.6,13.867s-5.333,6.4-8.533,4.267
		c-3.2-2.133-4.267-5.333-4.267-7.467c0-2.133,7.467-7.467,8.533-9.6s10.667-17.067,10.667-17.067s0,0-2.133-2.133
		c-2.133-2.133-6.4-8.533-6.4-8.533s0,0-4.267,1.067c-4.267,1.067-8.533,1.067-9.6-4.267c-2.133-5.333,2.133-6.4,5.333-7.467
		c3.2-1.067,8.533-4.267,8.533-4.267l-3.2-10.667c4.267-1.067,13.867,2.133,13.867,2.133l1.067-2.133c6.4,0,38.4,1.067,45.867,8.533
		C522.876,455.073,521.809,460.407,521.809,463.607z"/>
</g>
<g>
	<path style="fill:#FFFFFF;" d="M451.409,459.34c0,0,3.2,3.2,3.2,6.4l4.267-3.2c0,0,1.067-4.267-4.267-4.267L451.409,459.34z"/>
	<path style="fill:#FFFFFF;" d="M467.409,504.14c0,0-2.133,5.333-3.2,5.333c-3.2-1.067-4.267-3.2-5.333-5.333
		c0,0,3.2-3.2,4.267-4.267C465.276,500.94,466.342,502.007,467.409,504.14z"/>
	<path style="fill:#FFFFFF;" d="M467.409,513.74c0,0,1.067,4.267,6.4,5.333c0,0,4.267-5.333,2.133-7.467
		C472.742,509.473,469.542,511.607,467.409,513.74z"/>
	<path style="fill:#FFFFFF;" d="M498.342,518.007c0,0,5.333,1.067,5.333,2.133c0,0,1.067-5.333-1.067-7.467
		C501.542,511.607,499.409,515.873,498.342,518.007z"/>
</g>
<g>
</g>
<g>
</g>
<g>
</g>
<g>
</g>
<g>
</g>
<g>
</g>
<g>
</g>
<g>
</g>
<g>
</g>
<g>
</g>
<g>
</g>
<g>
</g>
<g>
</g>
<g>
</g>
<g>
</g>
</svg>
