<svg id="56eaa453-63ed-44c5-916b-582937f643be" data-name="Calque 1" xmlns="http://www.w3.org/2000/svg" viewBox="0 0 299 371"><title>icone carte des menus</title><path d="M101,432q0-185.5,0-371H400q0,185.5,0,371Zm192.63-59.29c8,0,15.46,0,22.9,0,15.07,0,22.41-7.36,22.41-22.36q0-104.19,0-208.39c0-14.69-7.37-22-22.18-22q-75.71,0-151.42,0c-14.65,0-22.11,7.42-22.11,22.14q0,110.19.16,220.38c0,8.65,2.09,11.35,10.42,13.19q62.85,13.9,125.73,27.69c9.46,2.07,14-1.62,14.08-11.19C293.65,385.88,293.63,379.6,293.63,372.71Z" transform="translate(-101 -61)" style="fill:#fff"/><path d="M293.63,372.71c0,6.88,0,13.16,0,19.45-.05,9.57-4.63,13.27-14.08,11.19q-62.88-13.79-125.73-27.69c-8.33-1.84-10.41-4.53-10.42-13.19q-.11-110.19-.16-220.38c0-14.72,7.46-22.13,22.11-22.14q75.71,0,151.42,0c14.81,0,22.18,7.31,22.18,22q0,104.19,0,208.39c0,15-7.34,22.31-22.41,22.36C309.08,372.73,301.64,372.71,293.63,372.71Zm-99-233.52.16.72,85.51,17.33c11.72,2.37,13.33,4.28,13.33,15.82q0,86.94,0,173.89v6.47h26V139.19ZM269.19,236h0c0-4.33-.1-8.66,0-13,.14-4.54-1.83-7.08-6.3-8.13-9.87-2.33-19.68-4.89-29.52-7.36q-27.82-7-55.64-13.93c-6.4-1.6-9.81.23-9.95,5.85-.24,9.48-.09,19,0,28.45,0,3.42,1.75,5.6,5.12,6.44,29.33,7.35,58.65,14.76,88,22,5.09,1.26,8-1.13,8.25-6.39C269.34,245.3,269.19,240.64,269.19,236Z" transform="translate(-101 -61)"/><path d="M194.63,139.19h125V353.41h-26v-6.47q0-86.94,0-173.89c0-11.54-1.61-13.44-13.33-15.82l-85.51-17.33Z" transform="translate(-101 -61)" style="fill:#fff"/><path d="M269.19,236c0,4.66.15,9.33,0,14-.21,5.26-3.16,7.65-8.25,6.39-29.35-7.27-58.67-14.67-88-22-3.37-.84-5.1-3-5.12-6.44,0-9.49-.2-19,0-28.45.14-5.62,3.55-7.44,9.95-5.85q27.82,7,55.64,13.93c9.84,2.47,19.65,5,29.52,7.36,4.47,1.06,6.44,3.6,6.3,8.13-.13,4.32,0,8.65,0,13Z" transform="translate(-101 -61)" style="fill:#fff"/></svg>