<svg id="060b6fe6-eb67-4da4-9cfc-effbdbca32f2" data-name="Calque 1" xmlns="http://www.w3.org/2000/svg" viewBox="0 0 140.42 444.68"><title>icone vin</title><path d="M322.31,214.77a62.73,62.73,0,0,0-1.77-16,58.65,58.65,0,0,0-8.16-18.65c-6.87-10-16-17-27.77-20.14-7.07-1.88-11-7.13-11.24-14-.34-12.4-.19-24.82-.21-37.23q0-33.3,0-66.6c0-5.38-3.11-8.46-8.48-8.47-8.4,0-16.8,0-25.2,0a9.57,9.57,0,0,0-3.17.5c-3.54,1.28-5.13,3.8-5.14,8q0,50.21,0,100.42a28.83,28.83,0,0,1-.19,4.13c-.95,6.49-4.23,11.37-10.92,13.13a45.8,45.8,0,0,0-18.64,9.74c-13,11.31-19.24,25.89-19.33,42.87-.22,41.27-.07,82.55-.07,123.82h0q0,5.67,0,11.33,0,57.68,0,115.37a17,17,0,0,0,1,5.44c2.22,6.37,7.22,9.83,13.93,9.83,36.66,0,73.32-.12,110,.08A15.14,15.14,0,0,0,322.28,463c-.11-7,0-13.91,0-20.87q0-62,0-124Q322.33,266.42,322.31,214.77Zm-14.14-28.25c.06,2.32-1.91,3-2.8,4.41a34.83,34.83,0,0,0-2.07,4.44C301.23,192.57,303.89,189.85,308.17,186.52Z" transform="translate(-181.91 -33.66)"/><path d="M308.17,186.52c.06,2.32-1.91,3-2.8,4.41a34.83,34.83,0,0,0-2.07,4.44C301.23,192.57,303.89,189.85,308.17,186.52Z" transform="translate(-181.91 -33.66)" style="fill:#fff"/></svg>