<svg id="88e7f4a7-6d58-4408-955c-6ae8a0590b90" data-name="Calque 1" xmlns="http://www.w3.org/2000/svg" viewBox="0 0 458.11 210.79"><title>icone metro 13</title><path d="M486.8,222.91c-.5,21.28-7.45,40.4-19.89,57.46-18.2,25-43.07,39.76-73.5,43.22-54.11,6.14-98.52-23.82-115.23-70-18.83-52,8.34-110.74,60-131.54,17.21-6.93,35.1-10,53.24-7.71,48.75,6.22,87,41,94.51,90.36.52,3.44,1.45,6.86.89,10.39A20.38,20.38,0,0,0,486.8,222.91Z" transform="translate(-28.87 -113.59)" style="fill:#89cef2"/><path d="M29,218.63c-2.53-48.51,40.07-103,105.51-103.26,58-.19,105.64,46.74,105.59,103.71-.05,57.7-47.6,104.32-106.3,104C69.93,322.69,26.13,269.14,29,218.63Z" transform="translate(-28.87 -113.59)" style="fill:#198bd6"/><path d="M486.8,222.91a8.42,8.42,0,0,1,0-7.81Q486.81,219,486.8,222.91Z" transform="translate(-28.87 -113.59)" style="fill:#86c7e6"/><path d="M433,174c8.28,3.16,15.48,7.55,18.86,16.36,2.72,6.74,2,13-2.64,18.68l-3.35,3.95c-.54,1.25-1.17,2.4-2.83,2.24l-4.37,2.64c-.16.84-1.79,1.07-1,2.32,8,2.87,14.27,7.66,17.25,16,2.8,5.3,2.42,10.57-.11,15.84-9.33,19-26.4,21.58-44.87,21.22-1.32,0-2.65-.09-4-.14-1,.56-1.88.77-2.74-.17-2.22-1.4-4.86-1.14-7.26-1.82-1.65.88-2.79,0-3.87-1.11-7.41-3.61-7.46-3.63-4.91-11.76.88-2.8.51-7,2.87-8,2-.83,5.28,1.52,8,2.43A14.58,14.58,0,0,0,400,253a6,6,0,0,1,5.7,1.18,21.22,21.22,0,0,0,13.59,0c1.55-1.76,4.05-.9,5.8-2.11,1.87.35,1.65-1.91,2.91-2.32,1.9-3,2.33-6.36,3-9.71-1.21-7.41-6.92-9.58-13.09-11.08a29.63,29.63,0,0,0-6.41-.7c-9.67-.18-9.68-.14-9.67-10,0-6.46,0-6.4,6.66-6.5,1.93,0,4,.69,5.79-.63.51-.77,1.11-.65,1.74-.17a14.21,14.21,0,0,0,10.14-4.26c4.78-4.9,3.09-10.67-4.15-14.6q-.56.52-.72-.23c-7.65-1.77-15-1.36-22.24,2.14-2.92,1.42-6.72,3.43-7.87-2.3-1.36-1.33-1.33-3-1.18-4.71-2-8.07-2-8.13,6.49-10.88,3.56-1.16,7.23-2,10.85-3C415.94,171,424.53,170.66,433,174Z" transform="translate(-28.87 -113.59)"/><path d="M325,196.93c-3.9,1.67-7.8,3.37-11.72,5-.92.38-2.47,1.6-2.7-.28-.67-5.56-3.93-10.74-2.43-16.6a2.68,2.68,0,0,1,2.85-1.22c2.8-1.08,5.74-1.85,8.15-3.78,1.32-1.4,2.81-2.41,4.87-2.13,7.91-5,16.77-4.17,25.52-4.17,2.52,0,3.47.69,3.46,3.37Q352.84,223,353,269c0,2.49-.87,3.06-3.17,3-6.48-.13-13,0-19.46,0-1.67-1.48-.77-3.43-.78-5.13-.07-22.08-.12-44.17,0-66.25C329.61,196.75,328.43,195.68,325,196.93Z" transform="translate(-28.87 -113.59)"/><path d="M325,196.93a9.31,9.31,0,0,1,5.37-2.31v77.29c-2.28-1.36-1.29-3.6-1.29-5.43-.07-21.31-.14-42.62.05-63.92C329.13,199.2,328.38,197.32,325,196.93Z" transform="translate(-28.87 -113.59)" style="fill:#97e2fd"/><path d="M433,174c-8.51-1.88-17.1-1.44-25.69-.81l-3.07-.37c2-.69,3.15-1.37,4.32-1.42,7.38-.33,14.78-1.15,22.12.56C431.92,172.21,432.88,172.51,433,174Z" transform="translate(-28.87 -113.59)" style="fill:#8ed5ef"/><path d="M449.22,209c3.28-5.89,3.87-12.16,2.64-18.68.18-.53.51-1.69.87-1.21C456.1,193.53,453.76,206.27,449.22,209Z" transform="translate(-28.87 -113.59)" style="fill:#8cd3ed"/><path d="M454.83,252c1-5.27,1.45-10.55.11-15.84.21-.48.37-1.73.95-1C458.86,238.76,458.13,248.54,454.83,252Z" transform="translate(-28.87 -113.59)" style="fill:#96e1fc"/><path d="M331.25,273.28H352v.5H331.2Z" transform="translate(-28.87 -113.59)" style="fill:#97e3fe"/><path d="M334.1,172.21h17.72v.45H334.1Z" transform="translate(-28.87 -113.59)" style="fill:#97e3fe"/><path d="M400.22,226.92V213.19h.44v13.72Z" transform="translate(-28.87 -113.59)" style="fill:#97e3fe"/><path d="M416,211l-1.74.17H403C407.37,210.42,411.75,208.9,416,211Z" transform="translate(-28.87 -113.59)" style="fill:#97e3fe"/><path d="M405.7,254.14c-2,.22-3.83-.64-5.7-1.18,3.49-2.55,6.61.94,10,.83Z" transform="translate(-28.87 -113.59)" style="fill:#90d9f3"/><path d="M431,240c.79,3.78.08,7.1-3,9.71A40.41,40.41,0,0,1,431,240Z" transform="translate(-28.87 -113.59)" style="fill:#8ed5f1"/><path d="M425.1,252a6.54,6.54,0,0,1-5.8,2.11l-3.36-.35C419,252.95,421.9,251.59,425.1,252Z" transform="translate(-28.87 -113.59)" style="fill:#8fd7f1"/><path d="M324,177.93a11.86,11.86,0,0,1-4.87,2.13C319.71,177.38,320.92,176.85,324,177.93Z" transform="translate(-28.87 -113.59)" style="fill:#8dd3ee"/><path d="M390,187a7.72,7.72,0,0,1,1.18,4.71c-.25.45-.6,1.65-.79,1.18C389.6,191.05,387.84,189.08,390,187Z" transform="translate(-28.87 -113.59)" style="fill:#91daf5"/><path d="M437.7,220.14l-2.86-.42c1-1.64,2.4-1.78,3.83-1.91C440.67,219.57,439,219.8,437.7,220.14Z" transform="translate(-28.87 -113.59)" style="fill:#8fd6f1"/><path d="M392.12,269.94l3.87,1.11c-1.54,1.67-3.29,1.06-4.63,0S391.71,270.24,392.12,269.94Z" transform="translate(-28.87 -113.59)" style="fill:#95e0fb"/><path d="M311,183.83a4.12,4.12,0,0,1-2.85,1.22c-.7-.47-.63-1,0-1.47A1.91,1.91,0,0,1,311,183.83Z" transform="translate(-28.87 -113.59)" style="fill:#8dd3ef"/><path d="M443,215.18l2.83-2.24C446,215,445.54,216.41,443,215.18Z" transform="translate(-28.87 -113.59)" style="fill:#94def9"/><path d="M403.25,272.87,406,273c-1.43,1.52-3.16.91-6.11.69Z" transform="translate(-28.87 -113.59)" style="fill:#97e3fe"/><path d="M421.26,191.87a.56.56,0,0,1,.72.23c-1.13,1.21-2.46,1-3.92.6C418.93,191.41,420.28,192.37,421.26,191.87Z" transform="translate(-28.87 -113.59)" style="fill:#97e3fe"/><path d="M41.8,219.73c-.07-50.15,40.9-91,91.37-91.09,51.78-.09,93.59,40,93.62,89.87,0,50.74-41.28,91.54-92.66,91.5C83.42,310,41.87,269.34,41.8,219.73Z" transform="translate(-28.87 -113.59)" style="fill:#fefefe"/><path d="M102.06,202c-1,21.78-2.13,43.57-3,65.36-.12,3.1-1,4-4,3.89-4.82-.22-9.66-.17-14.49,0-2.7.08-3.23-.81-3.05-3.49,2-30.06,3.9-60.14,5.82-90.21.46-7.19.48-7.19,7.6-7.19,6.33,0,12.67.18,19-.07,3.52-.14,5.18.85,6.26,4.5,6.3,21.29,12.89,42.49,17.91,64.37q3.4-12.67,6.79-25.35c3.65-13.67,8.57-26.94,12.81-40.43.76-2.41,2-3.08,4.3-3.05,7.83.09,15.66.13,23.49,0,2.9-.05,3.57,1.16,3.7,3.84,1.19,22.94,2.52,45.88,3.8,68.81.45,8.15.72,16.31,1.39,24.43.27,3.21-.71,4-3.75,3.87-4.82-.23-9.67-.23-14.49,0-3.11.15-4.27-.67-4.41-4-1-24.77-2.08-49.53-2.22-74.38-1.65.23-1.29,1.64-1.54,2.6-6.3,24.16-14.65,47.7-21.95,71.55-.66,2.14-1.7,3.1-3.89,2.82a3.11,3.11,0,0,0-.5,0c-14.44.46-14.49.47-18.34-13.31-5.49-19.71-11.44-39.3-15.4-59.41-.33-.37-.49-1.09-.79-1.19-.46-.16-.21.51-.32.79C102.07,198.4,103,200.33,102.06,202Z" transform="translate(-28.87 -113.59)" style="fill:#198bd6"/><path d="M102.06,202V192.8c1.59,1.2,2.22,2.58,1.82,4.29C102,198.26,103.76,200.78,102.06,202Z" transform="translate(-28.87 -113.59)" style="fill:#afd6f0"/></svg>