<svg id="cc8e2486-e7f8-44b7-b159-248bb609fd01" data-name="Calque 1" xmlns="http://www.w3.org/2000/svg" viewBox="0 0 599.79 844.23"><title>icone handicapé</title><path d="M-41.08,669.63q0-422.12,0-844.23H558.71q0,422.12,0,844.23Zm483-276.88c-1.84-3.73-3.38-6.72-4.81-9.77-15.93-34-32.48-67.8-47.5-102.22-7.82-17.92-20-25.19-39-24.79-30.78.64-61.58.19-92.37.15-3.63,0-7.27-.33-10.77-.5V207.81H259.2c22.92,0,45.85.25,68.77-.15,16.08-.28,22.19-7.15,21.7-22.87-.35-11.27-8.59-17.85-23.85-18-22.58-.29-45.16-.06-67.74-.11-3.6,0-7.19-.33-11.34-.53,0-12.06.53-23-.18-33.87-.49-7.51,1.92-11.2,8.79-14.74,41.07-21.15,43.84-72.78,5.23-97.37-20.36-13-42.63-14.58-64.82-5.43-44.56,18.38-49.89,70-15.39,96.7,3,2.33,4.72,8.07,4.74,12.24.23,49.61-.06,99.22,0,148.83,0,20.82,10.84,31.49,31.73,31.53,39.35.07,78.69.2,118-.15,6.85-.06,10.08,2,13,8.32,17,37.3,34.51,74.37,52,111.46,7.08,15.06,16.16,20,31.31,14.53,20.22-7.26,40.09-15.64,59.68-24.49,11.2-5.06,15.11-16.65,10.76-26.56-4.27-9.75-13.48-12.81-26.15-8C464.48,383.13,453.85,387.83,441.93,392.75ZM372,389.42c-18.83,12.16-36.13,26-55.61,35.4-60.84,29.28-121.91,32-180.55-6.13-53.5-34.81-74.33-97.32-51.34-153.05,14.72-35.69,40.63-61.06,76.05-76.7,3.73-1.65,9.57-4.61,9.73-7.25.94-15.19.46-30.47.46-46.21-2.76.22-5.52.09-8.11.69-34,7.88-64.63,22.72-89.64,47.15C-1.63,256.25,4.89,383.27,86.46,451.39c52.78,44.08,113.72,59.67,181.09,49.05,46.58-7.34,86.85-28.15,119.49-62.67,2.1-2.22,4.32-6.83,3.39-9C384.58,415,377.85,401.61,372,389.42Z" transform="translate(41.08 174.6)" style="fill:#fff"/><path d="M441.93,392.75c11.92-4.92,22.55-9.62,33.41-13.7,12.67-4.76,21.88-1.7,26.15,8,4.34,9.9.44,21.5-10.76,26.56-19.59,8.85-39.45,17.23-59.68,24.49-15.15,5.44-24.23.53-31.31-14.53-17.45-37.09-35-74.16-52-111.46-2.87-6.29-6.1-8.38-13-8.32-39.34.35-78.69.22-118,.15-20.89,0-31.72-10.71-31.73-31.53,0-49.61.27-99.22,0-148.83,0-4.17-1.74-9.91-4.74-12.24-34.5-26.68-29.17-78.32,15.39-96.7,22.19-9.15,44.46-7.54,64.82,5.43,38.61,24.59,35.83,76.22-5.23,97.37-6.87,3.54-9.28,7.23-8.79,14.74.71,10.86.18,21.81.18,33.87,4.15.2,7.74.53,11.34.53,22.58.05,45.16-.18,67.74.11,15.25.2,23.5,6.78,23.85,18,.49,15.72-5.61,22.59-21.7,22.87-22.92.4-45.84.13-68.77.15H247.43v47.81c3.5.17,7.14.49,10.77.5,30.79,0,61.59.5,92.37-.15,19.06-.4,31.22,6.88,39,24.79,15,34.43,31.57,68.19,47.5,102.22C438.55,386,440.09,389,441.93,392.75Z" transform="translate(41.08 174.6)"/><path d="M372,389.42c5.81,12.19,12.54,25.58,18.39,39.34.93,2.18-1.29,6.8-3.39,9-32.64,34.52-72.91,55.33-119.49,62.67-67.37,10.61-128.31-5-181.09-49.05C4.89,383.27-1.63,256.25,73,183.32c25-24.43,55.65-39.27,89.64-47.15,2.59-.6,5.35-.47,8.11-.69,0,15.73.48,31-.46,46.21-.16,2.64-6,5.6-9.73,7.25-35.42,15.64-61.33,41-76.05,76.7-23,55.73-2.16,118.24,51.34,153.05,58.63,38.16,119.7,35.41,180.55,6.13C335.91,415.45,353.21,401.57,372,389.42Z" transform="translate(41.08 174.6)"/></svg>