<svg id="a7179f78-7f91-488b-8b19-e0f845cff364" data-name="Calque 1" xmlns="http://www.w3.org/2000/svg" viewBox="0 0 189 266"><title>icone cocktail</title><path d="M216,383H150q0-118,0-236c.37,1.43.78,2.85,1.12,4.29,3,12.67,14.28,21.88,27.13,21.5,4.54-.13,9-1.61,13.9-2.55C210.45,190,229,210,247.46,230.11a7.11,7.11,0,0,1,1.48,4.45q.12,55.93,0,111.86c0,1.32-.43,3.19-1.34,3.87-10.11,7.54-20.19,15.13-30.62,22.22C211.56,376.19,211,378.81,216,383Z" transform="translate(-150 -117)" style="fill:#fff"/><path d="M339,145V383H292c4.75-3.66,4.8-6.74.52-9.69-9.83-6.78-19.42-13.92-29.37-20.52-3.71-2.47-4.54-5.34-4.52-9.49q.21-53.45,0-106.89a11.24,11.24,0,0,1,3.27-8.4Q300.55,186.6,339,145Z" transform="translate(-150 -117)" style="fill:#fff"/><path d="M339,145q-38.52,41.53-77.09,83a11.24,11.24,0,0,0-3.27,8.4q.16,53.45,0,106.89c0,4.14.81,7,4.52,9.49,9.94,6.61,19.53,13.75,29.37,20.52,4.28,2.95,4.23,6-.52,9.69H216c-5-4.19-4.44-6.81,1-10.49,10.43-7.08,20.51-14.67,30.62-22.22.92-.69,1.34-2.55,1.34-3.87q.1-55.93,0-111.86a7.11,7.11,0,0,0-1.48-4.45c-18.45-20.1-37-40.11-55.3-59.87-4.87.93-9.37,2.41-13.9,2.55-12.85.38-24.13-8.83-27.13-21.5-.34-1.44-.74-2.86-1.12-4.29v-4c.34-1.06.77-2.1,1-3.18,2.3-9.88,8.13-16.77,17.52-20.55,2.4-1,5-1.53,7.45-2.28h4c1.26.35,2.5.74,3.77,1,8.92,2.19,15.89,7.13,19.31,15.71,1.7,4.27,4,5,8.1,5,39.88-.15,79.77-.07,119.65-.13,3.3,0,6.28.24,8.17,3.39Zm-170.54-3.62c-1.59-.42-3.24-1.33-4.75-1.15-1.92.23-4.5.86-5.39,2.23a6.27,6.27,0,0,0,.14,5.78c.94,1.3,3.55,1.67,5.5,1.88,1.51.16,3.11-.54,4.67-.86-1.36.85-3.07,1.42-4,2.61-1.21,1.52-2.73,3.68-2.44,5.27a6.29,6.29,0,0,0,4,4.16c1.59.31,3.79-1.19,5.33-2.39,1.21-.95,1.81-2.66,2.68-4-.44,2.08-1.43,4.22-1.16,6.2a6.4,6.4,0,0,0,3,4.46c1.48.64,3.85.05,5.44-.76.94-.48,1.93-3.16,1.51-3.62-2.5-2.8-5.4-5.24-8.16-7.8-.48-4-2.73-5.11-6.38-4,3.56-2.79.07-5.41-.23-8.13,2.05-1.92,6.6-1.5,5.78-6.13,2.66,5,5.09,4.67,7.88,1,.75,5.19,4.68,1.81,7.05,2.47,2.73.75,5.43-.59,5.25-3.57-.12-2-1.82-5-3.5-5.57s-4.33,1.11-6.1,2.41c-1.33,1-1.93,2.93-2.86,4.44.5-1.92,1.44-3.86,1.36-5.76s-.75-4.32-2-5.06a6.91,6.91,0,0,0-5.89,0c-1.28.72-1.94,3.22-2.14,5-.17,1.54.71,3.19,1.11,4.79-.91-1.32-1.55-3-2.78-3.87-1.61-1.13-3.8-2.39-5.51-2.12a5.66,5.66,0,0,0-3.73,3.9c-.2,1.72,1.12,3.86,2.3,5.44C165.41,139.82,167.11,140.47,168.46,141.38Zm154.06,7.18H185.25c5.29,5.72,9.88,11,14.82,15.86A9.39,9.39,0,0,0,206,167q47.94.24,95.89.06c1.54,0,3.57-.27,4.53-1.24C311.72,160.44,316.79,154.77,322.53,148.56ZM272.25,372.82c-5.69-4.76-10.44-8.93-15.44-12.79-1.14-.88-3.74-1.51-4.6-.85-5.45,4.15-10.6,8.69-16.5,13.64Zm8.7-185.68a9.3,9.3,0,0,0-9.31-9.13,9.45,9.45,0,0,0-9.44,9.57,9.62,9.62,0,0,0,9.38,9.21A9.48,9.48,0,0,0,280.94,187.13Z" transform="translate(-150 -117)"/><path d="M339,142c-1.89-3.15-4.86-3.4-8.17-3.39-39.88.06-79.77,0-119.65.13-4.1,0-6.4-.71-8.1-5-3.42-8.58-10.39-13.52-19.31-15.71-1.27-.31-2.51-.7-3.77-1H339Z" transform="translate(-150 -117)" style="fill:#fff"/><path d="M176,117c-2.49.75-5.05,1.31-7.45,2.28-9.39,3.78-15.23,10.66-17.52,20.55-.25,1.08-.68,2.12-1,3.18V117Z" transform="translate(-150 -117)" style="fill:#fff"/><path d="M322.53,148.56c-5.74,6.21-10.81,11.88-16.14,17.29-1,1-3,1.24-4.53,1.24q-47.94.1-95.89-.06a9.39,9.39,0,0,1-5.9-2.61c-4.94-4.89-9.53-10.14-14.82-15.86Z" transform="translate(-150 -117)" style="fill:#fff"/><path d="M272.25,372.82H235.71c5.9-5,11.05-9.5,16.5-13.64.86-.65,3.46,0,4.6.85C261.8,363.88,266.56,368.05,272.25,372.82Z" transform="translate(-150 -117)" style="fill:#fff"/><path d="M280.94,187.13a9.48,9.48,0,0,1-9.37,9.65,9.62,9.62,0,0,1-9.38-9.21,9.45,9.45,0,0,1,9.44-9.57A9.3,9.3,0,0,1,280.94,187.13Z" transform="translate(-150 -117)" style="fill:#fff"/><path d="M181.95,136.12c-2.78,3.65-5.21,4-7.88-1l.16.16c-.41-1.6-1.29-3.26-1.12-4.8.2-1.79.86-4.29,2.14-5a6.91,6.91,0,0,1,5.89,0c1.27.73,1.95,3.28,2,5.06s-.87,3.84-1.36,5.76Z" transform="translate(-150 -117)" style="fill:#fff"/><path d="M174.24,154.88c-.87,1.37-1.48,3.08-2.68,4-1.54,1.21-3.74,2.7-5.33,2.39a6.29,6.29,0,0,1-4-4.16c-.29-1.58,1.23-3.75,2.44-5.27.95-1.18,2.65-1.76,4-2.61l-.13.11c3.66-1.14,5.92,0,6.39,4Z" transform="translate(-150 -117)" style="fill:#fff"/><path d="M168.64,149.27c-1.56.32-3.16,1-4.67.86-1.94-.21-4.55-.58-5.5-1.88a6.27,6.27,0,0,1-.14-5.78c.88-1.37,3.46-2,5.39-2.23,1.51-.18,3.16.73,4.75,1.15l-.14-.13c.28,2.7,3.76,5.31.2,8.12Z" transform="translate(-150 -117)" style="fill:#fff"/><path d="M168.46,141.38c-1.35-.91-3.05-1.56-4-2.79-1.17-1.58-2.5-3.71-2.3-5.44a5.66,5.66,0,0,1,3.73-3.9c1.71-.27,3.9,1,5.51,2.12,1.23.86,1.87,2.55,2.78,3.88l-.15-.15c.82,4.64-3.72,4.21-5.76,6.15Z" transform="translate(-150 -117)" style="fill:#fff"/><path d="M181.8,136.29c.93-1.52,1.53-3.47,2.86-4.44,1.78-1.3,4.5-3,6.1-2.41s3.38,3.55,3.5,5.57c.18,3-2.52,4.32-5.25,3.57-2.37-.66-6.3,2.72-7.06-2.46Z" transform="translate(-150 -117)" style="fill:#fff"/><path d="M174.24,154.88l.66-1.52c2.76,2.56,5.66,5,8.16,7.8.41.46-.57,3.14-1.51,3.62-1.59.81-4,1.4-5.44.76a6.4,6.4,0,0,1-3-4.46C172.82,159.1,173.8,157,174.24,154.88Z" transform="translate(-150 -117)" style="fill:#fff"/></svg>