<svg id="b450a483-7e6d-4123-874b-9960c9d5fde7" data-name="svg2" xmlns="http://www.w3.org/2000/svg" viewBox="0 0 1034.65 689.84"><title>Oeil icône</title><path d="M1469.19,496h.26c-10.78-15.15-22.68-29.4-34.69-43.46C1370.31,377,1296.32,309.79,1215.24,261c-51.77-31.22-107.21-56.37-164.61-68.5a434.24,434.24,0,0,0-87.93-9.31,429.87,429.87,0,0,0-87.58,9.31c-57.49,12.13-112.73,37.28-164.5,68.5C629.56,309.79,555.46,377.08,490.79,452.5c-11.9,14-23.57,28.28-34.35,43.46-14.72,20.21-14.72,44,0,64.21,32.91,46.13,72.2,87.09,112,124.75,86,80.74,184.47,148.32,293,175.59a416.42,416.42,0,0,0,202.32,0c108.56-27.28,207.15-94.88,293.27-175.59,40-37.51,79.16-78.58,112.16-124.75C1483.67,540,1483.67,516.16,1469.19,496ZM963,786.75c-142.83,0-258.69-115.84-258.69-258.69S820.1,269.37,963,269.37s258.69,115.84,258.69,258.69h0C1221.65,670.89,1105.81,786.75,963,786.75Z" transform="translate(-445.4 -183.14)" style="fill:#fff"/><path d="M963,384.35a143.66,143.66,0,1,0,143.72,143.72A143.7,143.7,0,0,0,963,384.35Zm68.51,119.23c-24.13,0-43.69-18.47-43.69-41.25h0c0-22.79,19.55-41.26,43.68-41.26s43.69,18.47,43.69,41.25h0C1075.15,485.1,1055.6,503.58,1031.47,503.58Z" transform="translate(-445.4 -183.14)" style="fill:#fff"/></svg>