<svg id="adfe4b54-6f22-4bd2-8b6f-79f7fd98be82" data-name="Calque 1" xmlns="http://www.w3.org/2000/svg" viewBox="0 0 419.58 419.6"><title>Time icone</title><path d="M286.82,46.62H466.24v419.6H46.67V46.62h171a2,2,0,0,1-.43.25A15.82,15.82,0,0,0,205.38,62.4c0,5.41-.16,10.83,0,16.24a15.23,15.23,0,0,0,9.7,14.29,41.89,41.89,0,0,0,6.07,1.66V113c-40.42,8-74.25,27.38-101,58.66S79.56,239.43,78.45,280.57c-2,74.62,44.76,144.09,118.16,169.4,68.5,23.61,147.27,2.67,194.82-59.06,23-29.92,35.27-63.93,36-101.72,1.06-51.49-17.84-94.92-54.29-131,.23-.32.43-.65.68-1l15.91-19.61A15.87,15.87,0,0,0,387.25,115c-4.05-3.17-8.15-6.28-12.22-9.44-2.79-2.17-5.4-4.58-8.34-6.51a15.69,15.69,0,0,0-21,3.73q-9,11.51-17.86,23.07a1.56,1.56,0,0,1-2.33.56A173.62,173.62,0,0,0,297,115.91c-4-1.07-8.11-2-12.21-2.93V94.32l.85-.08c8.11-.73,14.23-6.37,14.8-14.48a160.49,160.49,0,0,0,0-19.1,13.85,13.85,0,0,0-6.8-11.21C291.58,48.15,289.1,47.54,286.82,46.62Z" transform="translate(-46.67 -46.62)" style="fill:#fff"/><path d="M286.82,46.62c2.28.92,4.76,1.53,6.8,2.82a13.85,13.85,0,0,1,6.8,11.21,160.49,160.49,0,0,1,0,19.1c-.57,8.11-6.69,13.75-14.8,14.48l-.85.08V113c4.1,1,8.18,1.86,12.21,2.93a173.62,173.62,0,0,1,28.52,10.48,1.56,1.56,0,0,0,2.33-.56q8.86-11.58,17.86-23.07a15.69,15.69,0,0,1,21-3.73c2.94,1.93,5.56,4.35,8.34,6.51,4.06,3.16,8.16,6.27,12.22,9.44a15.87,15.87,0,0,1,2.52,22.61L373.87,157.2c-.24.3-.45.63-.68,1,36.45,36.1,55.34,79.54,54.29,131-.77,37.78-13,71.8-36,101.72C343.87,452.63,265.1,473.57,196.6,450c-73.4-25.3-120.17-94.77-118.16-169.4C79.56,239.43,93.51,203,120.22,171.7s60.54-50.62,101-58.66V94.59a41.89,41.89,0,0,1-6.07-1.66,15.23,15.23,0,0,1-9.7-14.29c-.19-5.41-.07-10.82,0-16.24a15.82,15.82,0,0,1,11.86-15.52,2,2,0,0,0,.43-.25ZM126,284.78a127,127,0,1,0,127.23-127A126.67,126.67,0,0,0,126,284.78Z" transform="translate(-46.67 -46.62)"/><path d="M126,284.78a127,127,0,1,1,125.86,127A126.76,126.76,0,0,1,126,284.78Zm127,31.84c2-.24,4-.39,6-.74,17.22-3,29-20.67,25.09-37.69a31.92,31.92,0,0,0-37.92-24.56,4.44,4.44,0,0,1-3.2-.48Q204,232.55,165,212a22.31,22.31,0,0,0-4.21-1.75,11,11,0,0,0-14.05,12.42,15.1,15.1,0,0,0,5.58,8.91q18.68,15.49,37.43,30.9,15.56,12.8,31.14,25.57a2.79,2.79,0,0,1,1,1.56A31.87,31.87,0,0,0,253,316.62Z" transform="translate(-46.67 -46.62)" style="fill:#fff"/><path d="M253,316.62a31.87,31.87,0,0,1-31.18-27,2.79,2.79,0,0,0-1-1.56q-15.55-12.81-31.14-25.57Q171,247,152.29,231.56a15.1,15.1,0,0,1-5.58-8.91,11,11,0,0,1,14.05-12.42A22.31,22.31,0,0,1,165,212q39,20.56,78,41.17a4.44,4.44,0,0,0,3.2.48,31.92,31.92,0,0,1,37.92,24.56c3.87,17-7.87,34.66-25.09,37.69C257,316.23,255,316.38,253,316.62Z" transform="translate(-46.67 -46.62)"/></svg>