<svg xmlns="http://www.w3.org/2000/svg" xmlns:xlink="http://www.w3.org/1999/xlink" viewBox="0 0 1920 1080">
  <defs>
    <style>
      .cls-1 {
        clip-path: url(#clip-Page_Cartographie_:_Etat_1);
      }

      .cls-2 {
        fill: #202020;
      }

      .cls-3 {
        fill: #abaaaa;
      }

      .cls-4 {
        fill: #7f7f7f;
      }

      .cls-5 {
        fill: #aba9a9;
      }

      .cls-10, .cls-15, .cls-25, .cls-26, .cls-28, .cls-30, .cls-31, .cls-6, .cls-8, .cls-9 {
        fill: none;
      }

      .cls-7 {
        fill: #cbc5c6;
      }

      .cls-8, .cls-9 {
        stroke: #00a4c8;
        stroke-width: 8px;
      }

      .cls-10, .cls-12, .cls-32, .cls-8, .cls-9 {
        stroke-miterlimit: 10;
      }

      .cls-8 {
        opacity: 0.75;
      }

      .cls-10, .cls-15, .cls-16, .cls-18, .cls-19, .cls-20, .cls-21, .cls-22, .cls-25, .cls-28, .cls-32 {
        stroke: #fff;
      }

      .cls-10 {
        stroke-width: 2px;
      }

      .cls-11 {
        opacity: 0.65;
      }

      .cls-12 {
        stroke: #ffeed2;
      }

      .cls-13 {
        fill: #ffeed2;
      }

      .cls-14 {
        fill-rule: evenodd;
        opacity: 0.7;
      }

      .cls-15, .cls-25, .cls-26 {
        stroke-linecap: round;
      }

      .cls-15, .cls-30, .cls-31 {
        stroke-width: 10px;
      }

      .cls-16, .cls-18 {
        fill: #f7c735;
      }

      .cls-16, .cls-18, .cls-19, .cls-20, .cls-21, .cls-22, .cls-26 {
        stroke-width: 4px;
      }

      .cls-16 {
        opacity: 0.9;
      }

      .cls-17 {
        font-size: 25px;
        font-family: Raleway-SemiBold, Raleway;
        font-weight: 600;
      }

      .cls-19 {
        fill: #f77735;
      }

      .cls-20 {
        fill: #f73535;
      }

      .cls-21 {
        fill: #35f77c;
      }

      .cls-22 {
        fill: #356ff7;
      }

      .cls-23 {
        fill: #b8b0ab;
      }

      .cls-24, .cls-27, .cls-29 {
        fill: #fff;
      }

      .cls-24 {
        font-size: 65px;
        font-family: Gotham-Book, Gotham;
      }

      .cls-25, .cls-28 {
        stroke-width: 5px;
      }

      .cls-26, .cls-30 {
        stroke: #000;
      }

      .cls-27 {
        font-size: 100px;
      }

      .cls-27, .cls-33 {
        font-family: Raleway-Regular, Raleway;
      }

      .cls-31 {
        stroke: #b8b0ab;
      }

      .cls-33 {
        font-size: 18px;
      }

      .cls-34 {
        stroke: none;
      }

      .cls-35 {
        filter: url(#Tracé_540-5);
      }

      .cls-36 {
        filter: url(#Ligne_65-5);
      }

      .cls-37 {
        filter: url(#Tracé_540-4);
      }

      .cls-38 {
        filter: url(#Ligne_65-4);
      }

      .cls-39 {
        filter: url(#Tracé_540-3);
      }

      .cls-40 {
        filter: url(#Ligne_65-3);
      }

      .cls-41 {
        filter: url(#Tracé_540-2);
      }

      .cls-42 {
        filter: url(#Ligne_65-2);
      }

      .cls-43 {
        filter: url(#Tracé_540);
      }

      .cls-44 {
        filter: url(#Ligne_65);
      }
    </style>
    <filter id="Ligne_65" x="745.611" y="308.7" width="36.287" height="36.287" filterUnits="userSpaceOnUse">
      <feOffset dy="1" input="SourceAlpha"/>
      <feGaussianBlur stdDeviation="0.5" result="blur"/>
      <feFlood flood-color="#030303" flood-opacity="0.22"/>
      <feComposite operator="in" in2="blur"/>
      <feComposite in="SourceGraphic"/>
    </filter>
    <filter id="Tracé_540" x="746.782" y="309.871" width="33.945" height="33.945" filterUnits="userSpaceOnUse">
      <feOffset dy="1" input="SourceAlpha"/>
      <feGaussianBlur stdDeviation="0.5" result="blur-2"/>
      <feFlood flood-color="#030303" flood-opacity="0.22"/>
      <feComposite operator="in" in2="blur-2"/>
      <feComposite in="SourceGraphic"/>
    </filter>
    <filter id="Ligne_65-2" x="478.611" y="691.7" width="36.287" height="36.287" filterUnits="userSpaceOnUse">
      <feOffset dy="1" input="SourceAlpha"/>
      <feGaussianBlur stdDeviation="0.5" result="blur-3"/>
      <feFlood flood-color="#030303" flood-opacity="0.22"/>
      <feComposite operator="in" in2="blur-3"/>
      <feComposite in="SourceGraphic"/>
    </filter>
    <filter id="Tracé_540-2" x="479.782" y="692.871" width="33.945" height="33.945" filterUnits="userSpaceOnUse">
      <feOffset dy="1" input="SourceAlpha"/>
      <feGaussianBlur stdDeviation="0.5" result="blur-4"/>
      <feFlood flood-color="#030303" flood-opacity="0.22"/>
      <feComposite operator="in" in2="blur-4"/>
      <feComposite in="SourceGraphic"/>
    </filter>
    <filter id="Ligne_65-3" x="854.611" y="872.7" width="36.287" height="36.287" filterUnits="userSpaceOnUse">
      <feOffset dy="1" input="SourceAlpha"/>
      <feGaussianBlur stdDeviation="0.5" result="blur-5"/>
      <feFlood flood-color="#030303" flood-opacity="0.22"/>
      <feComposite operator="in" in2="blur-5"/>
      <feComposite in="SourceGraphic"/>
    </filter>
    <filter id="Tracé_540-3" x="855.782" y="873.871" width="33.945" height="33.945" filterUnits="userSpaceOnUse">
      <feOffset dy="1" input="SourceAlpha"/>
      <feGaussianBlur stdDeviation="0.5" result="blur-6"/>
      <feFlood flood-color="#030303" flood-opacity="0.22"/>
      <feComposite operator="in" in2="blur-6"/>
      <feComposite in="SourceGraphic"/>
    </filter>
    <filter id="Ligne_65-4" x="1319.611" y="759.7" width="36.287" height="36.287" filterUnits="userSpaceOnUse">
      <feOffset dy="1" input="SourceAlpha"/>
      <feGaussianBlur stdDeviation="0.5" result="blur-7"/>
      <feFlood flood-color="#030303" flood-opacity="0.22"/>
      <feComposite operator="in" in2="blur-7"/>
      <feComposite in="SourceGraphic"/>
    </filter>
    <filter id="Tracé_540-4" x="1320.782" y="760.871" width="33.945" height="33.945" filterUnits="userSpaceOnUse">
      <feOffset dy="1" input="SourceAlpha"/>
      <feGaussianBlur stdDeviation="0.5" result="blur-8"/>
      <feFlood flood-color="#030303" flood-opacity="0.22"/>
      <feComposite operator="in" in2="blur-8"/>
      <feComposite in="SourceGraphic"/>
    </filter>
    <filter id="Ligne_65-5" x="1276.611" y="378.7" width="36.287" height="36.287" filterUnits="userSpaceOnUse">
      <feOffset dy="1" input="SourceAlpha"/>
      <feGaussianBlur stdDeviation="0.5" result="blur-9"/>
      <feFlood flood-color="#030303" flood-opacity="0.22"/>
      <feComposite operator="in" in2="blur-9"/>
      <feComposite in="SourceGraphic"/>
    </filter>
    <filter id="Tracé_540-5" x="1277.782" y="379.871" width="33.945" height="33.945" filterUnits="userSpaceOnUse">
      <feOffset dy="1" input="SourceAlpha"/>
      <feGaussianBlur stdDeviation="0.5" result="blur-10"/>
      <feFlood flood-color="#030303" flood-opacity="0.22"/>
      <feComposite operator="in" in2="blur-10"/>
      <feComposite in="SourceGraphic"/>
    </filter>
    <clipPath id="clip-Page_Cartographie_:_Etat_1">
      <rect width="1920" height="1080"/>
    </clipPath>
  </defs>
  <g id="Page_Cartographie_:_Etat_1" data-name="Page Cartographie : Etat 1" class="cls-1">
    <rect class="cls-29" width="1920" height="1080"/>
    <rect id="Rectangle_146" data-name="Rectangle 146" class="cls-2" width="1920" height="1080"/>
    <g id="Map_experience" data-name="Map experience" transform="translate(175.98 232.381)">
      <path id="Tracé_192" data-name="Tracé 192" class="cls-3" d="M988,680.836l72.93,25.952,52.437-21.465,15.472-39.54c-2.281-3.37-11.561-16.089-28.828-27.9-8.561-5.856-19.924-11.2-31.951-16.863-9.445-4.438-19.178-9.034-28.28-14.191a174.346,174.346,0,0,1-18.013-11.945Z" transform="translate(-221.182 -177.474)"/>
      <path id="Tracé_193" data-name="Tracé 193" class="cls-3" d="M1231.434,511.17c6.849,1.493,59.266,12.9,77.6,16.274,17.493,3.212,63.321,9.671,75.341,11.356a139.165,139.165,0,0,0-5.383-19.986c-2.315-6.383-6.582-12.555-9.7-17.054-.8-1.158-1.514-2.192-2.1-3.075l-.822-1.267a71.859,71.859,0,0,0-11.458-14.383,232.79,232.79,0,0,0-18.123-15l-.555-.411L1321.432,422.9,1265.57,354.79l-62.43,35.869c1.9,7.342,9.657,37.438,11.644,48.828,2.466,14.082,6.746,54.492,7.342,60.184Z" transform="translate(-288.97 -108.128)"/>
      <path id="Tracé_194" data-name="Tracé 194" class="cls-4" d="M1148.137,584.817l34.931-27.184-6.308-31.808-9.465-11.767-96.628-39.143,1.575-4.383,93.875,38.355c-1.185-11.082-4.842-44.67-6.986-56.923-1.973-11.253-9.952-42.211-11.644-48.814l-47.944-11.02-10.993,33.136h0l-17.883,49.65h-12.1l-18.643,38.294a173.329,173.329,0,0,0,18.356,12.281c8.9,5.075,18.616,9.637,27.986,14.041,12.192,5.733,23.705,11.157,32.554,17.205C1135.507,568.153,1144.87,580.16,1148.137,584.817Z" transform="translate(-237.542 -119.893)"/>
      <path id="Tracé_195" data-name="Tracé 195" class="cls-3" d="M653.433,463.609c-9.212,4.746-19.582,14.246-29.9,25.677l14.76,10.705-4.952,11.644c6.329,6.342,40.691,40.629,69.177,65.875,4.37,3.87,8.3,7.726,11.767,11.123,8.726,8.555,15.616,15.315,23.109,16.253,9.8,1.233,19.931-5.157,31.191-13.842-.582-.945.048.089,0,0l3.425-2.685h0q2.336-1.849,4.733-3.774c4.616-3.7,9.39-7.534,14.383-11.13,5.431-3.945,12.171-6.6,18.691-9.171,6.979-2.74,13.575-5.349,16.308-8.9,2.651-3.425,4.637-8.76,6.733-14.383a127.206,127.206,0,0,1,6.274-14.849c1.027-1.973,2.144-3.925,3.233-5.835,2.74-4.794,5.274-9.26,5.774-12.691.685-4.582.2-16.76.034-20.6-2.356-1.281-4.89-2.685-7.644-4.219-14.7-8.185-34.821-19.39-54.732-25.054-7.534-2.137-29.2-5.226-51.643-5.02A398.031,398.031,0,0,0,679.1,457.1C667,459.013,657.872,461.328,653.433,463.609Z" transform="translate(-106.344 -138.982)"/>
      <path id="Tracé_196" data-name="Tracé 196" class="cls-3" d="M843.91,609.027A46.17,46.17,0,0,0,854.643,619.3c5.082,3.425,12.239,6.109,17.993,8.219a74.06,74.06,0,0,1,8.9,3.678c12.239,6.849,47.869,22.554,57.074,26.575l34.122-107.046c-2.288-1.753-4.541-3.514-6.774-5.253C960.75,541.4,955.825,537.556,950.7,534c-7.438-5.151-13.328-11.507-18.534-17.123a95.274,95.274,0,0,0-10.116-9.959c.192,5.356.39,14.335-.2,18.39-.61,4.24-3.37,9.082-6.294,14.212-1.062,1.87-2.151,3.774-3.157,5.7a122.375,122.375,0,0,0-6.048,14.349c-2.219,5.972-4.315,11.644-7.377,15.561-3.466,4.466-10.6,7.274-18.143,10.274-6.267,2.473-12.746,5.02-17.732,8.644s-9.623,7.342-14.205,11.007Q846.393,607.058,843.91,609.027Z" transform="translate(-175.782 -156.061)"/>
      <path id="Tracé_197" data-name="Tracé 197" class="cls-5" d="M664.78,309.471l25.938,75.2.685-.116a396.638,396.638,0,0,1,55.718-4.425c23.287-.185,42.93,2.815,50.91,4.692l13.452-36.985L792.873,305.04l36.787-12.876V236l-72.594,22.6H740.833L681.369,276.28Z" transform="translate(-119.341 -70.699)"/>
      <path id="Tracé_198" data-name="Tracé 198" class="cls-4" d="M1056.45,411.746l10.315-31.1L971.418,358.72,949.35,374.9l5.411,22.267,79.06,26.554Z" transform="translate(-209.005 -109.366)"/>
      <path id="Tracé_199" data-name="Tracé 199" class="cls-4" d="M865.4,432.944c19.643,5.966,39.095,16.746,53.423,24.732,3.144,1.753,6.048,3.37,8.664,4.794,4.952,2.657,9.424,7.479,14.6,13.061,5.048,5.445,10.774,11.644,17.808,16.493,5.233,3.623,10.205,7.534,15.465,11.644q2.973,2.322,6.014,4.671l19.465-39.972h11.767l15.212-42.294-20.1,10.637-83.06-27.924L918.885,385l-40.218,11.493Z" transform="translate(-182.553 -117.646)"/>
      <path id="Tracé_200" data-name="Tracé 200" class="cls-3" d="M1220.4,307.808l-31.958-38.931-2.342-36.869-18.089-3.493,4.637-11.007-24.527-1.068c-.274,0-46.766,2.123-62.081,4.185-3.123.425-7.459,1.157-12.418,2.055l-5.157,100.464,89.423,20.547Z" transform="translate(-246.537 -64.536)"/>
      <path id="Tracé_201" data-name="Tracé 201" class="cls-3" d="M1003.66,224.2c-20.938,3.993-49.314,10.205-49.7,10.274l-.562.123-51.28-15.911-6.527,9.541v61.533L860.3,302.092l16.335,37.575,41.252-11.787L942.4,309.907l56.163,12.924Z" transform="translate(-180.946 -65.245)"/>
      <path id="Tracé_202" data-name="Tracé 202" class="cls-6" d="M919.759,42.09q-11.281.562-24.239,1.274a19.412,19.412,0,0,0,3.9,3.507c.849.425,4.829.877,7.959.966,2.651-.438,6.787-1.37,8.068-2.1a36.643,36.643,0,0,0,4.315-3.644Z" transform="translate(-192.044 -9.601)"/>
      <path id="Tracé_203" data-name="Tracé 203" class="cls-7" d="M730.11,839.047l1.863.685c92.279,35.177,180.133,63.149,186.119,65.067,1.5.226,7.726,1.137,11.144,1.589a36.905,36.905,0,0,0,8.726.048c-.37-9.342-1.185-18.959-2.055-20.548a6.991,6.991,0,0,0-2.452-1.719,12.246,12.246,0,0,1-5.062-4.322c-5.527-9.013-9.589-23.136-10.274-31.581-.349-4.11,3-7.575,6.24-10.911,2.609-2.685,5.3-5.479,5.164-7.76-1.055-17.767-.616-35.807-.267-50.314.185-7.651.349-14.253.267-19.458-.089-5.384,3.822-20.986,5.24-26.451l-33.4-11.89.041-.13C893.182,717.762,859.532,703,845.4,695.42l-14.856,25.342v12.007l-16.116,20.8H795.245Z" transform="translate(-139.926 -215.455)"/>
      <path id="Tracé_204" data-name="Tracé 204" class="cls-7" d="M1027.963,872.629c1.726,2.555,2.466,14.253,2.781,22.26a67.231,67.231,0,0,0,12.239-3.911c1.5-.623,2.986-1.267,4.493-1.925,8.63-3.753,18.4-8.007,32.034-8.007h.137c9.842,0,19.26,3.233,27.972,6.705,1.027.411,2.055.842,3.116,1.274,6.849,2.836,13.3,5.479,20.335,4.109,12.828-2.541,27.554-6.109,39.5-13.294,14.808-8.9,28.828-18.575,40.588-26.862,10.308-7.267,22.746-13.7,34.773-19.863,10.589-5.479,20.6-10.637,28.992-16.205,2.24-1.486,8.472-4.349,15.883-7.493l-134.99-147.346,1.329-1.212-16.856,13.109-16.342,41.78-55.677,22.794-40.937-14.575c-1.829,7.075-5.075,20.609-5.007,24.931.089,5.288-.075,11.938-.26,19.63-.349,14.424-.788,32.369.26,49.951.253,4.2-3.123,7.671-6.377,11.027-2.568,2.644-5.219,5.377-5.034,7.534.685,7.945,4.479,21.232,9.671,29.684a8,8,0,0,0,3.425,2.794A10.4,10.4,0,0,1,1027.963,872.629Z" transform="translate(-228.4 -204.565)"/>
      <path id="Tracé_205" data-name="Tracé 205" class="cls-7" d="M406.49,721.231a199.7,199.7,0,0,0,22.9-1.877c10.739-1.308,21.842-2.678,32.3-1.281a96.72,96.72,0,0,1,32.828,10.959c.5.26.856.459,1.075.562,4.349,1.712,8.712,3.151,13.335,4.678a226.674,226.674,0,0,1,21.979,8.192c24.739,10.959,55.965,22.794,83.512,33.239l9.541,3.6,67.122-88.2h19.232l13.911-17.959V661.418l15.328-26.109c-1.7-.74-3.849-1.541-6.267-2.438-5.972-2.212-13.411-4.966-18.924-8.719a50.308,50.308,0,0,1-11.726-11.212c-10.671,8.219-20.979,14.76-31.253,14.76a23.545,23.545,0,0,1-2.932-.178c-8.9-1.123-16.287-8.329-25.6-17.458-3.425-3.363-7.322-7.178-11.609-10.959-31.465-27.869-70.033-66.7-70.416-67.122l-1.021-1.034,4.74-11.164-12.328-8.9c-18.205,20.773-35.931,46.725-46.574,62.286L503.5,576.31c-5.144,7.534-12.452,19.465-19.513,31.013-6.664,10.9-12.959,21.184-17.712,28.28C453.242,655.11,414.462,709.992,406.49,721.231Z" transform="translate(-37.958 -157.309)"/>
      <path id="Tracé_206" data-name="Tracé 206" class="cls-7" d="M1363.23,785.315c12.774-5.3,27.328-10.835,31.075-11.733l1.712-.411c9.205-2.205,14.267-3.425,17.76-6.062,4.39-3.322,10.24-10.459,15.9-17.369,5.151-6.288,10.013-12.226,13.979-15.541l2.288-1.9c9.808-8.13,19.952-16.541,25.952-31.109,3.76-9.144,10.609-25.842,9.794-75.717l-.123,1.185-88.751-9.178v-.055c-9.486-1.322-58.6-8.219-76.916-11.575-16.938-3.11-62.738-13.013-75.266-15.753l6.288,31.7-19.568,15.219Z" transform="translate(-296.598 -182.27)"/>
      <path id="Tracé_207" data-name="Tracé 207" class="cls-7" d="M777.884,44.41c-31.972,1.986-42.465,5.1-57.766,11.411-5.13,2.123-8.9,5.068-29.828,21.452-6.651,5.205-15.007,11.746-25.657,20.027A207.716,207.716,0,0,0,647.223,113a176.868,176.868,0,0,1-15.452,13.945c-25.616,19.575-44.794,27.2-46.9,28.013-9.068,3.479-17.589,11.767-21.842,16.356-8.377,9.061-13.7,20.068-17.931,28.91-1.062,2.205-2.055,4.288-3.034,6.164-.781,1.521-1.616,2.993-2.418,4.493l81.6,36.725,17.664-35.328,62.177-18.376h15.89l72.752-22.7-9.157-32.047L792.9,52.773c-2.5-.151-5.938-.507-7.534-1.322C783.234,50.41,780.083,46.992,777.884,44.41Z" transform="translate(-79.915 -10.332)"/>
      <path id="Tracé_208" data-name="Tracé 208" class="cls-7" d="M323.9,618.895c5.479,10.651,20.506,28.027,39.609,32.246a65.963,65.963,0,0,0,11.233,1.37l-.486-.349c.466-.685,46.725-66,61.232-87.669,4.705-7.027,11.267-17.753,17.616-28.129,7.089-11.6,14.424-23.582,19.637-31.2l2.144-3.137c18.739-27.4,53.629-78.491,80.937-92.566,5.089-2.616,13.993-4.657,21.917-6.075l-24.91-72.307-84.436-38c-6.267,11.349-13.055,22.13-19.684,32.588s-13.013,20.506-18.541,30.671q-4.733,8.685-9.089,16.561c-11.842,21.493-21.2,38.465-24.849,49.43-5.041,15.13-11.945,32.561-30.136,47.944a128.87,128.87,0,0,1-17.075,11.952c-6.972,4.281-12.479,7.657-16.986,14.383-5.233,7.829-3.657,17.609-1.993,27.965,1.034,6.4,2.1,13.013,1.479,19.356-.856,8.774-3.329,17.808-5.712,26.554C321.06,587.991,316.54,604.525,323.9,618.895Z" transform="translate(-10.712 -88.684)"/>
      <path id="Tracé_209" data-name="Tracé 209" class="cls-7" d="M1504.815,512.617a70.374,70.374,0,0,0-.041-13.863c-.418-3.966-1.274-8.863-2.178-13.952l-.308-1.719c-1.37-7.657-2.794-15.575-3.308-22.5-.281-3.808,1.26-23.582,2.808-40.342l.329-3.52c1.555-16.671,3.315-35.568,1.815-44.52-2.165-12.938-8.185-27.4-13.013-39.04-1.938-4.657-3.767-9.055-5.109-12.787-6.295-17.452-11.644-28.2-15.877-34.835a286.5,286.5,0,0,1-48.348,16.294c-13.582,3.192-28.636,5.1-41.931,6.767-11.459,1.445-21.356,2.692-27.671,4.425-11.705,3.212-42.232,14.589-51.663,18.13l55.622,67.807,14.63,44.184c2.219,1.664,10.692,8.109,17.958,14.911a75.625,75.625,0,0,1,12.144,15.226l.8,1.24c.562.856,1.253,1.856,2.055,2.979,3.253,4.7,7.705,11.123,10.205,18.041a143.284,143.284,0,0,1,5.829,22.027l85.08,8.8c0-1.411-.068-2.829-.109-4.294A88.617,88.617,0,0,1,1504.815,512.617Z" transform="translate(-319.589 -86.308)"/>
      <path id="Tracé_210" data-name="Tracé 210" class="cls-7" d="M1128.345,31.94q-10.274.459-20.725.849c-19.863.685-29.917.836-40.533.959-12.328.144-25.082.288-54.752,1.445-5.534.219-11.418.418-17.938.644-16.438.562-37.431,1.288-67.32,2.74-1.993,1.973-6.664,6.514-8.719,7.705-1.89,1.1-5.863,1.959-8.178,2.39l-12.328,86.3,8.219,28.766,6.109-8.9,53.239,16.52c5.808-1.267,50.458-10.959,66.286-13.123,15.513-2.089,60.738-4.109,62.656-4.219l4.459.192,15.794-48.376,24.335-41.657Z" transform="translate(-192.778 -6.403)"/>
      <path id="Tracé_211" data-name="Tracé 211" class="cls-6" d="M312.558,534.046c5.322,10.383,21.63,31.4,45.28,36.622,14.048,3.109,27.979,1.37,41.458-.247,10.692-1.3,20.787-2.534,30.171-1.294a88.219,88.219,0,0,1,29.992,10.034c.918.486,1.555.8,1.856.918,4.651,1.836,9.123,3.308,13.863,4.877a219.893,219.893,0,0,1,21.232,7.87c24.951,11.055,56.293,22.938,83.936,33.41l15.575,5.911c95.34,36.349,186,65.019,186.9,65.307l.651.151s7.664,1.137,11.644,1.657a44.544,44.544,0,0,0,5.788.377c9.274,0,17.445-2.829,23.8-5.479,1.541-.637,3.075-1.308,4.63-1.979,8.287-3.61,16.815-7.431,28.766-7.308,8.438,0,16.945,2.945,24.883,6.109.993.4,2,.815,3.014,1.233,7.342,3.041,15.657,6.486,25.191,4.6,13.541-2.685,29.143-6.493,42.191-14.335,15.068-9.041,29.219-18.821,41.095-27.2,9.835-6.931,22.013-13.219,33.787-19.3,10.328-5.336,21.006-10.849,29.787-16.678,5.623-3.733,42.979-18.493,48.513-19.863l1.706-.411c9.965-2.39,15.979-3.836,20.869-7.534,5.185-3.925,11.356-11.459,17.328-18.746,4.678-5.712,9.513-11.644,12.863-14.383l2.267-1.877c10.109-8.383,21.568-17.876,28.362-34.383,5.794-14.082,11.842-33.561,10.274-86.615a80.775,80.775,0,0,1,.295-8.6,78.575,78.575,0,0,0-.069-15.349c-.452-4.24-1.329-9.294-2.267-14.541l-.308-1.726c-1.335-7.452-2.74-15.15-3.2-21.643-.171-2.329.849-17.876,2.794-38.937l.329-3.514c1.678-18.02,3.425-36.65,1.733-46.718-2.322-13.89-8.548-28.855-13.548-40.876-1.9-4.562-3.692-8.87-4.966-12.411-8.753-24.26-17.2-39.965-25.1-46.67-4.9-4.157-12.007-7.8-19.52-11.644-10.445-5.356-22.287-11.431-26.6-18.678-3.671-6.164-5.363-21.191-6.6-32.157a125.276,125.276,0,0,0-1.945-13.589c-3.034-11.863-3.938-21.678-4.74-30.328-1.1-11.863-2.055-22.109-7.63-34.006-.685-1.418-1.295-3.027-1.966-4.733-3.205-8.171-7.6-19.356-22.143-23.8-11.726-3.582-28.082-4.794-44.835-3.37-29.451,2.527-63.492,4.527-98.5,5.794-19.78.685-29.76.829-40.328.952-12.383.144-25.191.295-54.985,1.452-5.52.212-11.39.418-17.9.637-21.671.747-51.369,1.76-98.9,4.37C683,26.852,669.619,28.921,658.057,32.5c-4.76,1.473-9.219,3.192-14.157,5.233-6.164,2.562-10.1,5.616-31.8,22.6-6.644,5.2-14.993,11.739-25.636,20.006a213.652,213.652,0,0,0-18.116,16.322,166.6,166.6,0,0,1-14.691,13.287c-20.047,15.322-37.6,24.082-44.8,26.842-10.664,4.109-20.246,13.342-25.006,18.493-9.233,9.986-14.828,21.623-19.335,30.972-1.027,2.137-2,4.157-2.945,6.007-7.233,14.13-15.643,27.4-23.773,40.225-6.76,10.664-13.15,20.739-18.822,31.15q-4.726,8.671-9.075,16.527c-12.048,21.869-21.568,39.136-25.458,50.828-3.616,10.863-9.678,29.034-27.561,44.17a121.917,121.917,0,0,1-16.082,11.2c-7.534,4.63-14.055,8.623-19.575,16.9-7.075,10.582-5.082,23-3.315,33.958.993,6.164,1.925,11.959,1.411,17.205-.788,8.068-3.055,16.363-5.479,25.15C308.867,497.869,303.7,516.773,312.558,534.046Z" transform="translate(-6.847)"/>
      <path id="Tracé_212" data-name="Tracé 212" class="cls-7" d="M1435.135,199.443a29.281,29.281,0,0,0-4.246-4.657c-4.164-3.534-10.842-6.959-17.918-10.582-12.02-6.164-24.445-12.534-29.986-21.863-4.6-7.733-6.335-23.136-7.733-35.513a125.119,125.119,0,0,0-1.74-12.445c-3.206-12.513-4.109-22.678-4.966-31.643-1.021-11.075-1.9-20.637-6.849-31.2-.781-1.664-1.466-3.425-2.185-5.24-3.007-7.657-6.116-15.575-16.774-18.828s-25.917-4.383-41.657-3.034c-22.431,1.925-47.547,3.548-73.7,4.794l10.835,32.931-25.191,43.061-15.164,46.574,21.986.952-4.979,11.822,16.144,3.116,2.466,38.814,31.691,38.643c7.466-2.815,40.711-15.28,53.423-18.767,6.609-1.815,16.65-3.082,28.273-4.548,13.178-1.664,28.123-3.548,41.479-6.685a282.382,282.382,0,0,0,46.794-15.7Z" transform="translate(-287.306 -3.862)"/>
      <path id="Tracé_213" data-name="Tracé 213" class="cls-8" d="M1182.487,829.157c-11.041-5.877-41.362-16.589-56.2-27.554-10.363-7.657-18-19.787-28.828-28.828-31.184-26.027-59.992-60.238-76.081-76.081-11.212-11.041-23.972-33.807-42.465-55.259-26.616-30.883-58.464-60.464-58.464-60.464s-40.225-11.822-71.279-29.6c-20.212-11.575-31.28-29.451-42.848-35.266-26.773-13.424-84.245-41.636-113.319-48.718-12.4-3.021-30.636,2.4-49.65,3.473s-38.814-2.226-50.855,2c-14.041,4.938-34.951,28.04-45.225,38.842C529.468,530.4,498.8,572.169,484.01,593.326c-22.732,32.5-116.34,171.982-116.34,171.982" transform="translate(-25.727 -143.319)"/>
      <path id="Tracé_214" data-name="Tracé 214" class="cls-9" d="M1000,534.84s12.137-.192,30.027,5.6c30.54,9.9,75.245,29.677,86.094,42.848,3.109,3.774,3.6,14.328,3.6,19.219" transform="translate(-224.964 -164.858)"/>
      <path id="Tracé_215" data-name="Tracé 215" class="cls-10" d="M315.937,457.146c1.555-15.938-8.623-35.122,1.219-49.855,8.555-12.8,20.048-14.685,35.26-27.561,18.3-15.486,24.862-33.643,29.184-46.609,4.74-14.219,18.178-37.259,34.657-67.485,12.726-23.342,29.794-46.2,43.15-72.348,5.055-9.883,10.856-24.541,21.917-36.479,5.829-6.3,14.589-14.137,23.712-17.63,7.26-2.781,25.267-11.609,46.41-27.767,10.589-8.089,20.369-20.013,33.218-30.006,45.663-35.479,50.184-38.355,57.149-42.561,12.8-7.671,7.151-10.061,45.4-12.157,62.327-3.425,113.107-4.109,137.607-5.068,55.478-2.157,52.588-.849,96.464-2.431,37.67-1.37,72.122-3.493,99.909-5.877,16.869-1.445,32.753-.123,43.773,3.24,15.575,4.76,17.753,18.006,21.8,26.623,9.5,20.212,5.034,36.164,12.246,64.382,2.055,8.164,2.918,36.985,9.123,47.424,8.185,13.767,35.842,21.815,47.581,31.773,6,5.089,14.15,17.685,24.157,45.444,4.719,13.082,15.383,34.3,18.541,53.2,1.719,10.274-.4,31.068-2.13,49.752s-3.075,36.917-2.836,40.129c.548,7.315,2.164,16.027,3.61,24.088.945,5.281,1.808,10.274,2.246,14.417,1.11,10.472-.5,15.479-.253,23.917,1.63,54.725-5.021,73.67-10.061,85.93-6.966,16.931-19.089,26.123-29.794,35.061-8.013,6.692-21.39,26.623-30.4,33.438-4.486,3.425-10.479,4.7-21.28,7.294-6,1.445-44.335,16.6-50.465,20.671-18.636,12.37-45.335,23.013-64.444,36.479-12.65,8.9-26.712,18.548-41.342,27.362-11.781,7.082-25.9,10.918-41.342,13.986-9.589,1.9-18.109-2.472-26.143-5.671-9.287-3.7-17.945-6.466-26.753-6.486-15.274,0-25.232,5.479-35.465,9.726-8.671,3.6-17.808,6.164-27.766,4.863-3.973-.521-11.685-1.664-11.685-1.664s-91.429-28.869-188.934-66.04c-31.732-12.1-70.546-26.445-100.518-39.725-13.459-5.966-24.383-8.527-35.67-12.972-1.6-.63-14.794-8.9-33.239-11.349-22.28-2.959-47.567,7.055-72.149,1.623-21.465-4.746-37.342-23.876-42.965-34.855C296.4,511.48,313.416,482.995,315.937,457.146Z" transform="translate(-5.746 -0.351)"/>
      <g id="Groupe_124" data-name="Groupe 124" class="cls-11" transform="translate(848.309 435.925)">
        <path id="Tracé_216" data-name="Tracé 216" d="M1129.73,644.652v-3.774a5.548,5.548,0,1,1,11.1,0v3.774Z" transform="translate(-1114.148 -632.446)"/>
        <rect id="Rectangle_148" data-name="Rectangle 148" width="1.877" height="2.945" transform="translate(20.191 1.253)"/>
        <path id="Tracé_217" data-name="Tracé 217" d="M1136.46,632.38h1.877l-.938-1.26Z" transform="translate(-1116.269 -631.12)"/>
        <path id="Tracé_218" data-name="Tracé 218" d="M1110.66,654.305l18.609-12.465,18.609,12.465Z" transform="translate(-1108.14 -634.498)"/>
        <path id="Tracé_219" data-name="Tracé 219" d="M1161.07,660.278h2.692v-1.1l-2.692-1.692Z" transform="translate(-1124.023 -639.429)"/>
        <rect id="Rectangle_149" data-name="Rectangle 149" width="0.918" height="19.417" transform="translate(37.938 20.554)"/>
        <path id="Tracé_220" data-name="Tracé 220" d="M1129.57,660.278h2.685v-1.1l-2.685-1.692Z" transform="translate(-1114.098 -639.429)"/>
        <rect id="Rectangle_150" data-name="Rectangle 150" width="0.918" height="19.417" transform="translate(16.356 20.554)"/>
        <path id="Tracé_221" data-name="Tracé 221" d="M1135.87,660.278h2.692v-1.1l-2.692-1.692Z" transform="translate(-1116.083 -639.429)"/>
        <rect id="Rectangle_151" data-name="Rectangle 151" width="0.918" height="19.417" transform="translate(20.671 20.554)"/>
        <path id="Tracé_222" data-name="Tracé 222" d="M1142.17,660.278h2.692v-1.1l-2.692-1.692Z" transform="translate(-1118.068 -639.429)"/>
        <rect id="Rectangle_152" data-name="Rectangle 152" width="0.918" height="19.417" transform="translate(24.986 20.554)"/>
        <path id="Tracé_223" data-name="Tracé 223" d="M1148.47,660.278h2.692v-1.1l-2.692-1.692Z" transform="translate(-1120.053 -639.429)"/>
        <rect id="Rectangle_153" data-name="Rectangle 153" width="0.918" height="19.417" transform="translate(29.301 20.554)"/>
        <path id="Tracé_224" data-name="Tracé 224" d="M1154.77,660.278h2.692v-1.1l-2.692-1.692Z" transform="translate(-1122.038 -639.429)"/>
        <rect id="Rectangle_154" data-name="Rectangle 154" width="0.918" height="19.417" transform="translate(33.616 20.554)"/>
        <rect id="Rectangle_155" data-name="Rectangle 155" width="37.314" height="0.993" transform="translate(2.473 39.533)"/>
        <rect id="Rectangle_156" data-name="Rectangle 156" width="39.266" height="0.993" transform="translate(1.5 40.513)"/>
        <rect id="Rectangle_157" data-name="Rectangle 157" width="42.259" height="0.993" transform="translate(0 41.499)"/>
        <path id="Tracé_225" data-name="Tracé 225" d="M1113.352,660.278h-2.692v-1.1l2.692-1.692Z" transform="translate(-1108.14 -639.429)"/>
        <rect id="Rectangle_158" data-name="Rectangle 158" width="0.918" height="19.417" transform="translate(3.411 20.554)"/>
        <path id="Tracé_226" data-name="Tracé 226" d="M1116.97,660.278h2.685v-1.1l-2.685-1.692Z" transform="translate(-1110.128 -639.429)"/>
        <rect id="Rectangle_159" data-name="Rectangle 159" width="0.918" height="19.417" transform="translate(7.726 20.554)"/>
        <path id="Tracé_227" data-name="Tracé 227" d="M1123.27,660.278h2.685v-1.1l-2.685-1.692Z" transform="translate(-1112.113 -639.429)"/>
        <rect id="Rectangle_160" data-name="Rectangle 160" width="0.918" height="19.417" transform="translate(12.041 20.554)"/>
        <line id="Ligne_31" data-name="Ligne 31" class="cls-12" x2="11.007" transform="translate(15.63 7.76)"/>
        <line id="Ligne_32" data-name="Ligne 32" class="cls-12" x2="1.877" transform="translate(20.191 1.253)"/>
        <path id="Tracé_228" data-name="Tracé 228" class="cls-12" d="M1139.419,640.165s-.226-3.329-2.973-4.575c0,0-2.9,1.6-3.007,4.575" transform="translate(-1115.317 -632.528)"/>
        <line id="Ligne_33" data-name="Ligne 33" class="cls-12" x2="1.877" transform="translate(20.191 3.062)"/>
        <path id="Tracé_229" data-name="Tracé 229" class="cls-12" d="M1115.2,653.9h30.828L1130.7,644.37Z" transform="translate(-1109.57 -635.295)"/>
        <line id="Ligne_34" data-name="Ligne 34" class="cls-12" x2="37.218" transform="translate(2.521 19.753)"/>
      </g>
      <g id="Groupe_125" data-name="Groupe 125" class="cls-11" transform="translate(757.263 336.66)">
        <path id="Tracé_230" data-name="Tracé 230" d="M974.05,510.5l17.7-24.308,17.7,24.308Z" transform="translate(-974.05 -486.19)"/>
        <path id="Tracé_231" data-name="Tracé 231" class="cls-13" d="M997.91,489.091l1.363-1.931,1.37,1.931Z" transform="translate(-981.568 -486.496)"/>
        <path id="Tracé_232" data-name="Tracé 232" class="cls-13" d="M997.91,490.49l1.363,1.938,1.37-1.938Z" transform="translate(-981.568 -487.545)"/>
        <path id="Tracé_233" data-name="Tracé 233" class="cls-13" d="M997.91,496.031l1.363-1.931,1.37,1.931Z" transform="translate(-981.568 -488.682)"/>
        <path id="Tracé_234" data-name="Tracé 234" class="cls-13" d="M997.91,497.44l1.363,1.931,1.37-1.931Z" transform="translate(-981.568 -489.735)"/>
        <path id="Tracé_235" data-name="Tracé 235" class="cls-13" d="M997.91,502.978l1.363-1.938,1.37,1.938Z" transform="translate(-981.568 -490.869)"/>
        <path id="Tracé_236" data-name="Tracé 236" class="cls-13" d="M997.91,504.38l1.363,1.931,1.37-1.931Z" transform="translate(-981.568 -491.921)"/>
        <path id="Tracé_237" data-name="Tracé 237" class="cls-13" d="M997.91,509.921l1.363-1.931,1.37,1.931Z" transform="translate(-981.568 -493.059)"/>
        <path id="Tracé_238" data-name="Tracé 238" class="cls-13" d="M997.91,511.32l1.363,1.938,1.37-1.938Z" transform="translate(-981.568 -494.108)"/>
        <path id="Tracé_239" data-name="Tracé 239" class="cls-13" d="M997.91,516.861l1.363-1.932,1.37,1.932Z" transform="translate(-981.568 -495.245)"/>
        <path id="Tracé_240" data-name="Tracé 240" class="cls-13" d="M997.91,518.27l1.363,1.931,1.37-1.931Z" transform="translate(-981.568 -496.298)"/>
        <path id="Tracé_241" data-name="Tracé 241" class="cls-13" d="M1002.94,496.031l1.363-1.931,1.37,1.931Z" transform="translate(-983.153 -488.682)"/>
        <path id="Tracé_242" data-name="Tracé 242" class="cls-13" d="M1002.94,497.44l1.363,1.931,1.37-1.931Z" transform="translate(-983.153 -489.735)"/>
        <path id="Tracé_243" data-name="Tracé 243" class="cls-13" d="M1002.94,502.978l1.363-1.938,1.37,1.938Z" transform="translate(-983.153 -490.869)"/>
        <path id="Tracé_244" data-name="Tracé 244" class="cls-13" d="M1002.94,504.38l1.363,1.931,1.37-1.931Z" transform="translate(-983.153 -491.921)"/>
        <path id="Tracé_245" data-name="Tracé 245" class="cls-13" d="M1002.94,509.921l1.363-1.931,1.37,1.931Z" transform="translate(-983.153 -493.059)"/>
        <path id="Tracé_246" data-name="Tracé 246" class="cls-13" d="M1002.94,511.32l1.363,1.938,1.37-1.938Z" transform="translate(-983.153 -494.108)"/>
        <path id="Tracé_247" data-name="Tracé 247" class="cls-13" d="M1002.94,516.861l1.363-1.932,1.37,1.932Z" transform="translate(-983.153 -495.245)"/>
        <path id="Tracé_248" data-name="Tracé 248" class="cls-13" d="M1002.94,518.27l1.363,1.931,1.37-1.931Z" transform="translate(-983.153 -496.298)"/>
        <path id="Tracé_249" data-name="Tracé 249" class="cls-13" d="M992.88,496.031l1.37-1.931,1.363,1.931Z" transform="translate(-979.983 -488.682)"/>
        <path id="Tracé_250" data-name="Tracé 250" class="cls-13" d="M992.88,497.44l1.37,1.931,1.363-1.931Z" transform="translate(-979.983 -489.735)"/>
        <path id="Tracé_251" data-name="Tracé 251" class="cls-13" d="M992.88,502.978l1.37-1.938,1.363,1.938Z" transform="translate(-979.983 -490.869)"/>
        <path id="Tracé_252" data-name="Tracé 252" class="cls-13" d="M992.88,504.38l1.37,1.931,1.363-1.931Z" transform="translate(-979.983 -491.921)"/>
        <path id="Tracé_253" data-name="Tracé 253" class="cls-13" d="M992.88,509.921l1.37-1.931,1.363,1.931Z" transform="translate(-979.983 -493.059)"/>
        <path id="Tracé_254" data-name="Tracé 254" class="cls-13" d="M992.88,511.32l1.37,1.938,1.363-1.938Z" transform="translate(-979.983 -494.108)"/>
        <path id="Tracé_255" data-name="Tracé 255" class="cls-13" d="M992.88,516.861l1.37-1.932,1.363,1.932Z" transform="translate(-979.983 -495.245)"/>
        <path id="Tracé_256" data-name="Tracé 256" class="cls-13" d="M992.88,518.26l1.37,1.938,1.363-1.938Z" transform="translate(-979.983 -496.295)"/>
        <path id="Tracé_257" data-name="Tracé 257" class="cls-13" d="M995.31,492.6l1.363-1.938,1.37,1.938Z" transform="translate(-980.749 -487.598)"/>
        <path id="Tracé_258" data-name="Tracé 258" class="cls-13" d="M995.31,494l1.363,1.931,1.37-1.931Z" transform="translate(-980.749 -488.651)"/>
        <path id="Tracé_259" data-name="Tracé 259" class="cls-13" d="M995.31,499.538l1.363-1.938,1.37,1.938Z" transform="translate(-980.749 -489.785)"/>
        <path id="Tracé_260" data-name="Tracé 260" class="cls-13" d="M995.31,500.94l1.363,1.938,1.37-1.938Z" transform="translate(-980.749 -490.837)"/>
        <path id="Tracé_261" data-name="Tracé 261" class="cls-13" d="M995.31,506.481l1.363-1.931,1.37,1.931Z" transform="translate(-980.749 -491.975)"/>
        <path id="Tracé_262" data-name="Tracé 262" class="cls-13" d="M995.31,507.88l1.363,1.938,1.37-1.938Z" transform="translate(-980.749 -493.024)"/>
        <path id="Tracé_263" data-name="Tracé 263" class="cls-13" d="M995.31,513.428l1.363-1.938,1.37,1.938Z" transform="translate(-980.749 -494.162)"/>
        <path id="Tracé_264" data-name="Tracé 264" class="cls-13" d="M995.31,514.83l1.363,1.931,1.37-1.931Z" transform="translate(-980.749 -495.214)"/>
        <path id="Tracé_265" data-name="Tracé 265" class="cls-13" d="M995.31,520.368l1.363-1.938,1.37,1.938Z" transform="translate(-980.749 -496.348)"/>
        <path id="Tracé_266" data-name="Tracé 266" class="cls-13" d="M1000.46,492.6l1.363-1.938,1.37,1.938Z" transform="translate(-982.371 -487.598)"/>
        <path id="Tracé_267" data-name="Tracé 267" class="cls-13" d="M1000.46,494l1.363,1.931,1.37-1.931Z" transform="translate(-982.371 -488.651)"/>
        <path id="Tracé_268" data-name="Tracé 268" class="cls-13" d="M1000.46,499.538l1.363-1.938,1.37,1.938Z" transform="translate(-982.371 -489.785)"/>
        <path id="Tracé_269" data-name="Tracé 269" class="cls-13" d="M1000.46,500.94l1.363,1.938,1.37-1.938Z" transform="translate(-982.371 -490.837)"/>
        <path id="Tracé_270" data-name="Tracé 270" class="cls-13" d="M1000.46,506.481l1.363-1.931,1.37,1.931Z" transform="translate(-982.371 -491.975)"/>
        <path id="Tracé_271" data-name="Tracé 271" class="cls-13" d="M1000.46,507.88l1.363,1.938,1.37-1.938Z" transform="translate(-982.371 -493.024)"/>
        <path id="Tracé_272" data-name="Tracé 272" class="cls-13" d="M1000.46,513.428l1.363-1.938,1.37,1.938Z" transform="translate(-982.371 -494.162)"/>
        <path id="Tracé_273" data-name="Tracé 273" class="cls-13" d="M1000.46,514.83l1.363,1.931,1.37-1.931Z" transform="translate(-982.371 -495.214)"/>
        <path id="Tracé_274" data-name="Tracé 274" class="cls-13" d="M1000.46,520.368l1.363-1.938,1.37,1.938Z" transform="translate(-982.371 -496.348)"/>
        <path id="Tracé_275" data-name="Tracé 275" class="cls-13" d="M985.37,506.481l1.37-1.931,1.363,1.931Z" transform="translate(-977.617 -491.975)"/>
        <path id="Tracé_276" data-name="Tracé 276" class="cls-13" d="M985.37,507.88l1.37,1.938,1.363-1.938Z" transform="translate(-977.617 -493.024)"/>
        <path id="Tracé_277" data-name="Tracé 277" class="cls-13" d="M985.37,513.421l1.37-1.931,1.363,1.931Z" transform="translate(-977.617 -494.162)"/>
        <path id="Tracé_278" data-name="Tracé 278" class="cls-13" d="M985.37,514.83l1.37,1.931,1.363-1.931Z" transform="translate(-977.617 -495.214)"/>
        <path id="Tracé_279" data-name="Tracé 279" class="cls-13" d="M985.37,520.368l1.37-1.938,1.363,1.938Z" transform="translate(-977.617 -496.348)"/>
        <path id="Tracé_280" data-name="Tracé 280" class="cls-13" d="M990.4,499.538l1.363-1.938,1.37,1.938Z" transform="translate(-979.202 -489.785)"/>
        <path id="Tracé_281" data-name="Tracé 281" class="cls-13" d="M990.4,500.94l1.363,1.938,1.37-1.938Z" transform="translate(-979.202 -490.837)"/>
        <path id="Tracé_282" data-name="Tracé 282" class="cls-13" d="M990.4,506.481l1.363-1.931,1.37,1.931Z" transform="translate(-979.202 -491.975)"/>
        <path id="Tracé_283" data-name="Tracé 283" class="cls-13" d="M990.4,507.88l1.363,1.938,1.37-1.938Z" transform="translate(-979.202 -493.024)"/>
        <path id="Tracé_284" data-name="Tracé 284" class="cls-13" d="M990.4,513.428l1.363-1.938,1.37,1.938Z" transform="translate(-979.202 -494.162)"/>
        <path id="Tracé_285" data-name="Tracé 285" class="cls-13" d="M990.4,514.83l1.363,1.931,1.37-1.931Z" transform="translate(-979.202 -495.214)"/>
        <path id="Tracé_286" data-name="Tracé 286" class="cls-13" d="M990.4,520.368l1.363-1.938,1.37,1.938Z" transform="translate(-979.202 -496.348)"/>
        <path id="Tracé_287" data-name="Tracé 287" class="cls-13" d="M977.96,516.848l1.363-1.938,1.37,1.938Z" transform="translate(-975.282 -495.239)"/>
        <path id="Tracé_288" data-name="Tracé 288" class="cls-13" d="M975.41,520.4l1.363-1.931,1.37,1.931Z" transform="translate(-974.478 -496.361)"/>
        <path id="Tracé_289" data-name="Tracé 289" class="cls-13" d="M977.96,518.25l1.363,1.938,1.37-1.938Z" transform="translate(-975.282 -496.292)"/>
        <path id="Tracé_290" data-name="Tracé 290" class="cls-13" d="M980.34,513.421l1.37-1.931,1.363,1.931Z" transform="translate(-976.032 -494.162)"/>
        <path id="Tracé_291" data-name="Tracé 291" class="cls-13" d="M980.34,514.83l1.37,1.931,1.363-1.931Z" transform="translate(-976.032 -495.214)"/>
        <path id="Tracé_292" data-name="Tracé 292" class="cls-13" d="M980.34,520.368l1.37-1.938,1.363,1.938Z" transform="translate(-976.032 -496.348)"/>
        <path id="Tracé_293" data-name="Tracé 293" class="cls-13" d="M982.77,509.988l1.363-1.938,1.37,1.938Z" transform="translate(-976.798 -493.078)"/>
        <path id="Tracé_294" data-name="Tracé 294" class="cls-13" d="M982.77,511.39l1.363,1.931,1.37-1.931Z" transform="translate(-976.798 -494.13)"/>
        <path id="Tracé_295" data-name="Tracé 295" class="cls-13" d="M982.77,516.928l1.363-1.938,1.37,1.938Z" transform="translate(-976.798 -495.264)"/>
        <path id="Tracé_296" data-name="Tracé 296" class="cls-13" d="M982.77,518.33l1.363,1.938,1.37-1.938Z" transform="translate(-976.798 -496.317)"/>
        <path id="Tracé_297" data-name="Tracé 297" class="cls-13" d="M987.91,503.041l1.37-1.931,1.363,1.931Z" transform="translate(-978.417 -490.891)"/>
        <path id="Tracé_298" data-name="Tracé 298" class="cls-13" d="M987.91,504.44l1.37,1.938,1.363-1.938Z" transform="translate(-978.417 -491.94)"/>
        <path id="Tracé_299" data-name="Tracé 299" class="cls-13" d="M987.91,509.988l1.37-1.938,1.363,1.938Z" transform="translate(-978.417 -493.078)"/>
        <path id="Tracé_300" data-name="Tracé 300" class="cls-13" d="M987.91,511.39l1.37,1.931,1.363-1.931Z" transform="translate(-978.417 -494.13)"/>
        <path id="Tracé_301" data-name="Tracé 301" class="cls-13" d="M987.91,516.928l1.37-1.938,1.363,1.938Z" transform="translate(-978.417 -495.264)"/>
        <path id="Tracé_302" data-name="Tracé 302" class="cls-13" d="M987.91,518.33l1.37,1.938,1.363-1.938Z" transform="translate(-978.417 -496.317)"/>
        <path id="Tracé_303" data-name="Tracé 303" class="cls-13" d="M1013.143,506.511l-1.363-1.931-1.37,1.931Z" transform="translate(-985.506 -491.984)"/>
        <path id="Tracé_304" data-name="Tracé 304" class="cls-13" d="M1013.143,507.92l-1.363,1.931-1.37-1.931Z" transform="translate(-985.506 -493.037)"/>
        <path id="Tracé_305" data-name="Tracé 305" class="cls-13" d="M1013.143,513.458l-1.363-1.938-1.37,1.938Z" transform="translate(-985.506 -494.171)"/>
        <path id="Tracé_306" data-name="Tracé 306" class="cls-13" d="M1013.143,514.86l-1.363,1.932-1.37-1.932Z" transform="translate(-985.506 -495.223)"/>
        <path id="Tracé_307" data-name="Tracé 307" class="cls-13" d="M1013.143,520.4l-1.363-1.931-1.37,1.931Z" transform="translate(-985.506 -496.361)"/>
        <path id="Tracé_308" data-name="Tracé 308" class="cls-13" d="M1008.123,499.571l-1.37-1.931-1.363,1.931Z" transform="translate(-983.925 -489.798)"/>
        <path id="Tracé_309" data-name="Tracé 309" class="cls-13" d="M1008.123,500.97l-1.37,1.938-1.363-1.938Z" transform="translate(-983.925 -490.847)"/>
        <path id="Tracé_310" data-name="Tracé 310" class="cls-13" d="M1008.123,506.511l-1.37-1.931-1.363,1.931Z" transform="translate(-983.925 -491.984)"/>
        <path id="Tracé_311" data-name="Tracé 311" class="cls-13" d="M1008.123,507.92l-1.37,1.931-1.363-1.931Z" transform="translate(-983.925 -493.037)"/>
        <path id="Tracé_312" data-name="Tracé 312" class="cls-13" d="M1008.123,513.458l-1.37-1.938-1.363,1.938Z" transform="translate(-983.925 -494.171)"/>
        <path id="Tracé_313" data-name="Tracé 313" class="cls-13" d="M1008.123,514.86l-1.37,1.932-1.363-1.932Z" transform="translate(-983.925 -495.223)"/>
        <path id="Tracé_314" data-name="Tracé 314" class="cls-13" d="M1008.123,520.4l-1.37-1.931-1.363,1.931Z" transform="translate(-983.925 -496.361)"/>
        <path id="Tracé_315" data-name="Tracé 315" class="cls-13" d="M1020.7,517.1l-1.37-1.931-1.363,1.931Z" transform="translate(-987.888 -495.321)"/>
        <path id="Tracé_316" data-name="Tracé 316" class="cls-13" d="M1023.1,520.4l-1.363-1.931-1.37,1.931Z" transform="translate(-988.645 -496.361)"/>
        <path id="Tracé_317" data-name="Tracé 317" class="cls-13" d="M1020.7,518.5l-1.37,1.938-1.363-1.938Z" transform="translate(-987.888 -496.37)"/>
        <path id="Tracé_318" data-name="Tracé 318" class="cls-13" d="M1018.173,513.458l-1.363-1.938-1.37,1.938Z" transform="translate(-987.091 -494.171)"/>
        <path id="Tracé_319" data-name="Tracé 319" class="cls-13" d="M1018.173,514.86l-1.363,1.932-1.37-1.932Z" transform="translate(-987.091 -495.223)"/>
        <path id="Tracé_320" data-name="Tracé 320" class="cls-13" d="M1018.173,520.4l-1.363-1.931-1.37,1.931Z" transform="translate(-987.091 -496.361)"/>
        <path id="Tracé_321" data-name="Tracé 321" class="cls-13" d="M1015.746,510.018l-1.363-1.938-1.363,1.938Z" transform="translate(-986.329 -493.087)"/>
        <path id="Tracé_322" data-name="Tracé 322" class="cls-13" d="M1015.746,511.42l-1.363,1.938-1.363-1.938Z" transform="translate(-986.329 -494.14)"/>
        <path id="Tracé_323" data-name="Tracé 323" class="cls-13" d="M1015.746,516.961l-1.363-1.931-1.363,1.931Z" transform="translate(-986.329 -495.277)"/>
        <path id="Tracé_324" data-name="Tracé 324" class="cls-13" d="M1015.746,518.36l-1.363,1.938-1.363-1.938Z" transform="translate(-986.329 -496.326)"/>
        <path id="Tracé_325" data-name="Tracé 325" class="cls-13" d="M1010.6,503.071l-1.37-1.931-1.363,1.931Z" transform="translate(-984.706 -490.9)"/>
        <path id="Tracé_326" data-name="Tracé 326" class="cls-13" d="M1010.6,504.48l-1.37,1.931-1.363-1.931Z" transform="translate(-984.706 -491.953)"/>
        <path id="Tracé_327" data-name="Tracé 327" class="cls-13" d="M1010.6,510.018l-1.37-1.938-1.363,1.938Z" transform="translate(-984.706 -493.087)"/>
        <path id="Tracé_328" data-name="Tracé 328" class="cls-13" d="M1010.6,511.42l-1.37,1.938-1.363-1.938Z" transform="translate(-984.706 -494.14)"/>
        <path id="Tracé_329" data-name="Tracé 329" class="cls-13" d="M1010.6,516.961l-1.37-1.931-1.363,1.931Z" transform="translate(-984.706 -495.277)"/>
        <path id="Tracé_330" data-name="Tracé 330" class="cls-13" d="M1010.6,518.36l-1.37,1.938-1.363-1.938Z" transform="translate(-984.706 -496.326)"/>
      </g>
      <g id="Groupe_126" data-name="Groupe 126" class="cls-11" transform="translate(505.714 176.698)">
        <rect id="Rectangle_161" data-name="Rectangle 161" width="41.389" height="6.308" transform="translate(0.884 2.274)"/>
        <rect id="Rectangle_162" data-name="Rectangle 162" width="1.616" height="1.966" transform="translate(0.884)"/>
        <rect id="Rectangle_163" data-name="Rectangle 163" width="1.616" height="1.966" transform="translate(40.657)"/>
        <rect id="Rectangle_164" data-name="Rectangle 164" width="1.616" height="1.966" transform="translate(4.198)"/>
        <rect id="Rectangle_165" data-name="Rectangle 165" width="1.616" height="1.966" transform="translate(7.514)"/>
        <rect id="Rectangle_166" data-name="Rectangle 166" width="1.616" height="1.966" transform="translate(10.829)"/>
        <rect id="Rectangle_167" data-name="Rectangle 167" width="1.616" height="1.966" transform="translate(14.137)"/>
        <rect id="Rectangle_168" data-name="Rectangle 168" width="1.616" height="1.966" transform="translate(17.452)"/>
        <rect id="Rectangle_169" data-name="Rectangle 169" width="1.616" height="1.966" transform="translate(20.767)"/>
        <rect id="Rectangle_170" data-name="Rectangle 170" width="1.616" height="1.966" transform="translate(24.082)"/>
        <rect id="Rectangle_171" data-name="Rectangle 171" width="1.616" height="1.966" transform="translate(27.397)"/>
        <rect id="Rectangle_172" data-name="Rectangle 172" width="1.616" height="1.966" transform="translate(30.712)"/>
        <rect id="Rectangle_173" data-name="Rectangle 173" width="1.616" height="1.966" transform="translate(34.027)"/>
        <rect id="Rectangle_174" data-name="Rectangle 174" width="1.616" height="1.966" transform="translate(37.342)"/>
        <rect id="Rectangle_175" data-name="Rectangle 175" width="11.561" height="35.246" transform="translate(30.712 8.383)"/>
        <rect id="Rectangle_176" data-name="Rectangle 176" width="11.561" height="35.246" transform="translate(0.884 8.383)"/>
        <path id="Tracé_331" data-name="Tracé 331" d="M643.321,300.126H624.65V264.88h18.671Zm-9.335-30.54a6.335,6.335,0,0,0-6.356,6.335,5.874,5.874,0,0,0,.041.719v23.486h12.575v-23.52a5.886,5.886,0,0,0,.041-.719,6.335,6.335,0,0,0-6.3-6.3Z" transform="translate(-612.411 -256.497)"/>
        <path id="Tracé_332" data-name="Tracé 332" d="M607.664,263.584l-.884-1.384h43.15l-.767,1.384Z" transform="translate(-606.78 -255.652)"/>
        <path id="Tracé_333" data-name="Tracé 333" d="M646.843,287.594l-.363-1.384h15.774l-.281,1.384Z" transform="translate(-619.289 -263.217)"/>
        <path id="Tracé_334" data-name="Tracé 334" d="M607.3,287.594l-.363-1.384h15.774l-.281,1.384Z" transform="translate(-606.83 -263.217)"/>
        <path id="Tracé_335" data-name="Tracé 335" d="M607.664,256.344l-.884-1.384h43.15l-.767,1.384Z" transform="translate(-606.78 -253.371)"/>
        <rect id="Rectangle_177" data-name="Rectangle 177" class="cls-12" width="7.575" height="6.171" transform="translate(4.315 13.493)"/>
        <rect id="Rectangle_178" data-name="Rectangle 178" class="cls-12" width="7.575" height="6.171" transform="translate(31.725 13.493)"/>
        <rect id="Rectangle_179" data-name="Rectangle 179" class="cls-12" width="7.575" height="13.089" transform="translate(31.725 26.677)"/>
        <rect id="Rectangle_180" data-name="Rectangle 180" class="cls-12" width="7.575" height="13.089" transform="translate(4.315 26.677)"/>
        <line id="Ligne_35" data-name="Ligne 35" class="cls-12" x2="41.499" transform="translate(0.884 7.931)"/>
        <line id="Ligne_36" data-name="Ligne 36" class="cls-12" x2="41.499" transform="translate(0.884 2.973)"/>
        <line id="Ligne_37" data-name="Ligne 37" class="cls-12" x2="15.13" transform="translate(0.473 24.376)"/>
        <line id="Ligne_38" data-name="Ligne 38" class="cls-12" x2="15.13" transform="translate(27.554 24.376)"/>
        <path id="Tracé_336" data-name="Tracé 336" class="cls-12" d="M638.93,268.67s5.767-.6,6.438,4.479V268.67Z" transform="translate(-616.91 -257.684)"/>
        <path id="Tracé_337" data-name="Tracé 337" class="cls-12" d="M634.648,268.67s-5.767-.6-6.438,4.479V268.67Z" transform="translate(-613.532 -257.684)"/>
      </g>
      <path id="Tracé_338" data-name="Tracé 338" class="cls-14" d="M1058.376,144.423h15.691v-13.7h-7.575v-7.089H1065.4c-.123-4.794-2.4-8.767-5.425-9.815V106.7h-1.6Zm0-38.39v-2.575h0c.9,0,1.623,1.082,1.623,2.425v.158Zm0-3.164v-1.911h.185v.548h.541v.322h-.541v1.048Zm-40.2,41.554h40.2V106.691h-1.582v7.144c-2.781.952-4.924,4.356-5.37,8.6v-8.493h1.3v-1.979h-1.452c-.226-8.9-4.445-16.233-10.061-18.171V80.623h-5.883V93.794c-5.609,1.938-9.835,9.287-10.061,18.171h-1.452v1.979h1.3v8.472c-.445-4.246-2.589-7.657-5.37-8.6v-7.123h-1.582v37.725Zm40.2-43.465v1.918h-.157v-1.027h-.541v-.342h.541v-.582Zm0,2.5v2.575h-1.623v-.158c0-1.37.726-2.425,1.623-2.425Zm-40.2,2.575v-2.575c.9,0,1.623,1.082,1.623,2.425v.158Zm0-3.164v-1.911h.157v.548h.541v.322h-.541v1.048Zm18.78-31.794v.589h1.007v1.877h.637V71.664h1.007v-.589H1038.6V70h-.637v1.075Zm1.322,3.555c-1.657,0-3.007,2.007-3.007,4.479V79.4h5.993v-.288c.021-2.479-1.329-4.486-2.986-4.486Zm-35.794,69.793h15.691V106.691h-1.6v7.144c-3.027,1.055-5.3,5.02-5.424,9.815h-1.089v7.061h-7.575v13.7Zm15.691-43.465v1.918h-.185v-1.027h-.541v-.342h.541v-.582Zm0,2.5v2.575h-1.637v-.158c0-1.37.726-2.425,1.623-2.425Z" transform="translate(-225.745 -18.395)"/>
      <g id="Groupe_127" data-name="Groupe 127" class="cls-11" transform="translate(816.919 361.708)">
        <path id="Tracé_339" data-name="Tracé 339" d="M1093.913,570.022H1062.9V542.44h31.013Zm-15.5-12.13s-3.329,2.055-3.329,3.349a1.448,1.448,0,0,0,0,.26v8.507h6.616v-8.493a1.447,1.447,0,0,0,0-.26C1081.742,559.988,1078.413,557.892,1078.413,557.892Zm9.726,2.836s-2.555,1.6-2.555,2.568a1.149,1.149,0,0,0,0,.2v6.52h5.068v-6.52a1.149,1.149,0,0,0,0-.2c.034-.966-2.521-2.562-2.521-2.562Zm-19.452,0s-2.555,1.6-2.555,2.568a1.174,1.174,0,0,0,0,.2v6.52h5.068v-6.52a1.125,1.125,0,0,0,0-.2c.034-.966-2.521-2.562-2.521-2.562Z" transform="translate(-1061.701 -528.961)"/>
        <path id="Tracé_340" data-name="Tracé 340" d="M1103.945,551.177H1095V522.76h8.972Zm-2.781-25.979a9.466,9.466,0,0,0-.623,2.568c0,.068,0,.137,0,.2v6.52h1.24v-6.719a9.477,9.477,0,0,0-.617-2.568Zm-3.425,0a9.47,9.47,0,0,0-.623,2.568c0,.068,0,.137,0,.2v6.52h1.24v-6.719A9.473,9.473,0,0,0,1097.74,525.2Z" transform="translate(-1071.816 -522.76)"/>
        <path id="Tracé_341" data-name="Tracé 341" d="M1071.872,551.177H1062.9V522.76h8.972Zm-2.787-25.979a9.457,9.457,0,0,0-.623,2.568v6.719h1.24v-6.719a9.468,9.468,0,0,0-.644-2.568Zm-3.425,0a9.466,9.466,0,0,0-.623,2.568v6.719h1.24v-6.719a9.469,9.469,0,0,0-.617-2.568Z" transform="translate(-1061.701 -522.76)"/>
        <path id="Tracé_342" data-name="Tracé 342" d="M1061.828,542.769l-.678-1.219H1094.4l-.589,1.219Z" transform="translate(-1061.15 -528.68)"/>
        <path id="Tracé_343" data-name="Tracé 343" d="M1061.828,563.749l-.678-1.219H1094.4l-.589,1.219Z" transform="translate(-1061.15 -535.291)"/>
        <rect id="Rectangle_181" data-name="Rectangle 181" class="cls-13" width="0.493" height="6.705" transform="translate(10.541 14.212)"/>
        <rect id="Rectangle_182" data-name="Rectangle 182" class="cls-13" width="0.493" height="6.705" transform="translate(12.26 14.212)"/>
        <rect id="Rectangle_183" data-name="Rectangle 183" class="cls-13" width="0.493" height="6.705" transform="translate(13.979 14.212)"/>
        <rect id="Rectangle_184" data-name="Rectangle 184" class="cls-13" width="0.486" height="6.705" transform="translate(15.691 14.212)"/>
        <rect id="Rectangle_185" data-name="Rectangle 185" class="cls-13" width="0.493" height="6.705" transform="translate(17.411 14.212)"/>
        <rect id="Rectangle_186" data-name="Rectangle 186" class="cls-13" width="0.486" height="6.705" transform="translate(19.13 14.212)"/>
        <rect id="Rectangle_187" data-name="Rectangle 187" class="cls-13" width="0.486" height="6.705" transform="translate(20.842 14.212)"/>
        <rect id="Rectangle_188" data-name="Rectangle 188" class="cls-13" width="0.486" height="6.705" transform="translate(22.561 14.212)"/>
        <circle id="Ellipse_20" data-name="Ellipse 20" class="cls-13" cx="3.157" cy="3.157" r="3.157" transform="translate(13.554 22.102)"/>
        <path id="Tracé_344" data-name="Tracé 344" d="M1085.361,560.47l-.411,2.021h.788Z" transform="translate(-1068.649 -534.642)"/>
        <path id="Tracé_345" data-name="Tracé 345" d="M1085.354,557.834l.4-2.014h-.788Z" transform="translate(-1068.655 -533.177)"/>
        <path id="Tracé_346" data-name="Tracé 346" d="M1086.28,559.464l2.014.4v-.788Z" transform="translate(-1069.068 -534.204)"/>
        <path id="Tracé_347" data-name="Tracé 347" d="M1083.644,559.464l-2.014-.4v.788Z" transform="translate(-1067.603 -534.198)"/>
        <path id="Tracé_348" data-name="Tracé 348" d="M1086.1,558.294l1.74-1.089-.534-.575Z" transform="translate(-1069.011 -533.432)"/>
        <path id="Tracé_349" data-name="Tracé 349" d="M1084.07,560.25l-1.74,1.089.534.575Z" transform="translate(-1067.823 -534.573)"/>
        <path id="Tracé_350" data-name="Tracé 350" d="M1086.16,560.22l1.219,1.664.527-.582Z" transform="translate(-1069.03 -534.563)"/>
        <path id="Tracé_351" data-name="Tracé 351" d="M1084.09,558.318l-1.212-1.658-.527.575Z" transform="translate(-1067.83 -533.441)"/>
        <circle id="Ellipse_21" data-name="Ellipse 21" cx="0.356" cy="0.356" r="0.356" transform="translate(16.349 24.904)"/>
      </g>
      <g id="Groupe_128" data-name="Groupe 128" class="cls-11" transform="translate(563.589 329.681)">
        <path id="Tracé_352" data-name="Tracé 352" d="M691.28,553.354l9.308-15.2V533.4h2.794l3.589-11.4-.534-3.068,2.13-.931s3.726-31.239,2.925-31.773l-.794-.794.13-2.657.774-.794V481.3l.685-.685V476h.945v4.651l.685.685v.685l.774.795.13,2.657-.8.795c-.794.534,2.925,31.773,2.925,31.773l2.123.932-.534,3.068,3.589,11.4h2.794v4.753l9.322,15.164Zm16.157-20.28h10.637a61.871,61.871,0,0,1-3.322-11.431h-4.39s-1.192,7.705-2.918,11.431Zm-9.637,20.28h29.91s-2.493-12.068-14.739-12.328S697.8,553.354,697.8,553.354Z" transform="translate(-691.28 -476)"/>
        <line id="Ligne_39" data-name="Ligne 39" class="cls-12" x1="24.342" transform="translate(9.308 58.786)"/>
        <line id="Ligne_40" data-name="Ligne 40" class="cls-12" x1="24.342" transform="translate(9.308 61.245)"/>
        <line id="Ligne_41" data-name="Ligne 41" class="cls-12" x2="8.39" transform="translate(17.287 42.013)"/>
        <path id="Tracé_353" data-name="Tracé 353" class="cls-12" d="M739.013,582.626s-3.6-13.6-15.753-13.6l10.192-.123Z" transform="translate(-701.356 -505.271)"/>
        <path id="Tracé_354" data-name="Tracé 354" class="cls-12" d="M698.73,582.616s3.6-13.6,15.753-13.6l-10.192-.123Z" transform="translate(-693.627 -505.268)"/>
        <line id="Ligne_42" data-name="Ligne 42" class="cls-12" y2="31.773" transform="translate(21.479 10.24)"/>
        <line id="Ligne_43" data-name="Ligne 43" class="cls-12" x2="2.541" transform="translate(20.212 10.24)"/>
      </g>
      <g id="Groupe_129" data-name="Groupe 129" class="cls-11" transform="translate(621.67 449.768)">
        <path id="Tracé_355" data-name="Tracé 355" d="M776.08,716.726h15.986l-.034-65.4H776.08Z" transform="translate(-776.08 -651.33)"/>
        <rect id="Rectangle_189" data-name="Rectangle 189" class="cls-13" width="2.849" height="2.849" transform="translate(11.493 3.425)"/>
        <rect id="Rectangle_190" data-name="Rectangle 190" class="cls-13" width="2.849" height="2.849" transform="translate(6.568 3.425)"/>
        <rect id="Rectangle_191" data-name="Rectangle 191" class="cls-13" width="2.849" height="2.849" transform="translate(1.644 3.425)"/>
        <rect id="Rectangle_192" data-name="Rectangle 192" class="cls-13" width="2.849" height="2.849" transform="translate(11.493 8.822)"/>
        <rect id="Rectangle_193" data-name="Rectangle 193" class="cls-13" width="2.849" height="2.849" transform="translate(6.568 8.822)"/>
        <rect id="Rectangle_194" data-name="Rectangle 194" class="cls-13" width="2.849" height="2.849" transform="translate(1.644 8.822)"/>
        <rect id="Rectangle_195" data-name="Rectangle 195" class="cls-13" width="2.849" height="2.849" transform="translate(11.493 14.219)"/>
        <rect id="Rectangle_196" data-name="Rectangle 196" class="cls-13" width="2.849" height="2.849" transform="translate(6.568 14.219)"/>
        <rect id="Rectangle_197" data-name="Rectangle 197" class="cls-13" width="2.849" height="2.849" transform="translate(1.644 14.219)"/>
        <rect id="Rectangle_198" data-name="Rectangle 198" class="cls-13" width="2.849" height="2.849" transform="translate(11.493 19.623)"/>
        <rect id="Rectangle_199" data-name="Rectangle 199" class="cls-13" width="2.849" height="2.849" transform="translate(6.568 19.623)"/>
        <rect id="Rectangle_200" data-name="Rectangle 200" class="cls-13" width="2.849" height="2.849" transform="translate(1.644 19.623)"/>
        <rect id="Rectangle_201" data-name="Rectangle 201" class="cls-13" width="2.849" height="2.849" transform="translate(11.493 25.02)"/>
        <rect id="Rectangle_202" data-name="Rectangle 202" class="cls-13" width="2.849" height="2.849" transform="translate(6.568 25.02)"/>
        <rect id="Rectangle_203" data-name="Rectangle 203" class="cls-13" width="2.849" height="2.849" transform="translate(1.644 25.02)"/>
        <rect id="Rectangle_204" data-name="Rectangle 204" class="cls-13" width="2.849" height="2.849" transform="translate(11.493 30.417)"/>
        <rect id="Rectangle_205" data-name="Rectangle 205" class="cls-13" width="2.849" height="2.849" transform="translate(6.568 30.417)"/>
        <rect id="Rectangle_206" data-name="Rectangle 206" class="cls-13" width="2.849" height="2.849" transform="translate(1.644 30.417)"/>
        <rect id="Rectangle_207" data-name="Rectangle 207" class="cls-13" width="2.849" height="2.849" transform="translate(11.493 35.821)"/>
        <rect id="Rectangle_208" data-name="Rectangle 208" class="cls-13" width="2.849" height="2.849" transform="translate(6.568 35.821)"/>
        <rect id="Rectangle_209" data-name="Rectangle 209" class="cls-13" width="2.849" height="2.849" transform="translate(1.644 35.821)"/>
        <rect id="Rectangle_210" data-name="Rectangle 210" class="cls-13" width="2.849" height="2.849" transform="translate(11.493 41.218)"/>
        <rect id="Rectangle_211" data-name="Rectangle 211" class="cls-13" width="2.849" height="2.849" transform="translate(6.568 41.218)"/>
        <rect id="Rectangle_212" data-name="Rectangle 212" class="cls-13" width="2.849" height="2.849" transform="translate(1.644 41.218)"/>
        <rect id="Rectangle_213" data-name="Rectangle 213" class="cls-13" width="2.849" height="2.849" transform="translate(11.493 46.615)"/>
        <rect id="Rectangle_214" data-name="Rectangle 214" class="cls-13" width="2.849" height="2.849" transform="translate(6.568 46.615)"/>
        <rect id="Rectangle_215" data-name="Rectangle 215" class="cls-13" width="2.849" height="2.849" transform="translate(1.644 46.615)"/>
        <rect id="Rectangle_216" data-name="Rectangle 216" class="cls-13" width="2.849" height="2.849" transform="translate(11.493 52.019)"/>
        <rect id="Rectangle_217" data-name="Rectangle 217" class="cls-13" width="2.849" height="2.849" transform="translate(6.568 52.019)"/>
        <rect id="Rectangle_218" data-name="Rectangle 218" class="cls-13" width="2.849" height="2.849" transform="translate(1.644 52.019)"/>
        <rect id="Rectangle_219" data-name="Rectangle 219" class="cls-13" width="2.849" height="7.609" transform="translate(6.568 57.444)"/>
      </g>
      <path id="Tracé_356" data-name="Tracé 356" d="M287.047,213.055a1.027,1.027,0,1,0-1.027-1.027A1.027,1.027,0,0,0,287.047,213.055Z" transform="translate(0 -62.822)"/>
    </g>
    <g id="Groupe_86" data-name="Groupe 86" transform="translate(347 227.934)">
      <line id="Ligne_4" data-name="Ligne 4" class="cls-15" x2="29.75" y2="31.433" transform="translate(583 795.067)"/>
      <line id="Ligne_5" data-name="Ligne 5" class="cls-15" x1="28.25" y2="31.433" transform="translate(612.75 795.067)"/>
    </g>
    <g id="Groupe_85" data-name="Groupe 85" transform="translate(1573 852) rotate(180)">
      <line id="Ligne_4-2" data-name="Ligne 4" class="cls-15" x2="29.75" y2="31.433" transform="translate(583 795.067)"/>
      <line id="Ligne_5-2" data-name="Ligne 5" class="cls-15" x1="28.25" y2="31.433" transform="translate(612.75 795.067)"/>
    </g>
    <g id="Rectangle_14" data-name="Rectangle 14" class="cls-16" transform="translate(386 216)">
      <rect class="cls-34" width="321" height="130" rx="26"/>
      <rect class="cls-6" x="2" y="2" width="317" height="126" rx="24"/>
    </g>
    <text id="Parcours_Familiale_" data-name="Parcours Familiale

" class="cls-17" transform="translate(400 255)"><tspan x="0" y="0">Parcours Familiale</tspan><tspan x="0" y="30"></tspan><tspan x="0" y="60"></tspan></text>
    <g id="Ellipse_4" data-name="Ellipse 4" class="cls-18" transform="translate(721.568 283.117)">
      <ellipse class="cls-34" cx="42.642" cy="42.642" rx="42.642" ry="42.642"/>
      <ellipse class="cls-6" cx="42.642" cy="42.642" rx="40.642" ry="40.642"/>
    </g>
    <g id="Ellipse_14" data-name="Ellipse 14" class="cls-19" transform="translate(1252.172 353.282)">
      <ellipse class="cls-34" cx="42.642" cy="42.642" rx="42.642" ry="42.642"/>
      <ellipse class="cls-6" cx="42.642" cy="42.642" rx="40.642" ry="40.642"/>
    </g>
    <g id="Ellipse_16" data-name="Ellipse 16" class="cls-20" transform="translate(1295.176 733.716)">
      <ellipse class="cls-34" cx="42.642" cy="42.642" rx="42.642" ry="42.642"/>
      <ellipse class="cls-6" cx="42.642" cy="42.642" rx="40.642" ry="40.642"/>
    </g>
    <g id="Ellipse_17" data-name="Ellipse 17" class="cls-21" transform="translate(830.402 847.1)">
      <ellipse class="cls-34" cx="42.642" cy="42.642" rx="42.642" ry="42.642"/>
      <ellipse class="cls-6" cx="42.642" cy="42.642" rx="40.642" ry="40.642"/>
    </g>
    <g id="Ellipse_19" data-name="Ellipse 19" class="cls-22" transform="translate(454.235 665.735)">
      <ellipse class="cls-34" cx="42.642" cy="42.642" rx="42.642" ry="42.642"/>
      <ellipse class="cls-6" cx="42.642" cy="42.642" rx="40.642" ry="40.642"/>
    </g>
    <path id="Tracé_532" data-name="Tracé 532" class="cls-23" d="M0,0S97.358,53.317,190.817,105.888s183.021,104.4,183.021,104.4H0Z" transform="translate(0 869.716)"/>
    <path id="Tracé_533" data-name="Tracé 533" class="cls-23" d="M0,0S97.358,53.245,190.817,105.745,373.838,210,373.838,210H0Z" transform="translate(1919.838 210) rotate(180)"/>
    <text id="EXPÉRIENCE_PAR_MAP" data-name="EXPÉRIENCE PAR MAP" class="cls-24" transform="translate(140 105)"><tspan x="439.035" y="59">EXPÉRIENCE PAR MAP</tspan></text>
    <g id="Symbole_2_3" data-name="Symbole 2 – 3" transform="translate(137 -15.5)">
      <line id="Ligne_1" data-name="Ligne 1" class="cls-25" x2="43" transform="translate(1599 74.5)"/>
      <line id="Ligne_2" data-name="Ligne 2" class="cls-25" x2="43" transform="translate(1599 98.5)"/>
      <line id="Ligne_3" data-name="Ligne 3" class="cls-25" x2="43" transform="translate(1599 86.5)"/>
    </g>
    <g id="Groupe_150" data-name="Groupe 150">
      <g class="cls-44" transform="matrix(1, 0, 0, 1, 0, 0)">
        <line id="Ligne_65-6" data-name="Ligne 65" class="cls-26" x2="18.213" y2="17.55" transform="translate(763.52 313.2) rotate(45)"/>
      </g>
      <g class="cls-43" transform="matrix(1, 0, 0, 1, 0, 0)">
        <path id="Tracé_540-6" data-name="Tracé 540" class="cls-26" d="M18.213,0,0,17.55" transform="translate(763.52 313.2) rotate(45)"/>
      </g>
    </g>
    <g id="Groupe_147" data-name="Groupe 147" transform="translate(1 15)">
      <text id="_" data-name="+" class="cls-27" transform="translate(270 466.893)"><tspan x="36.498" y="94">+</tspan></text>
      <g id="Ellipse_27" data-name="Ellipse 27" class="cls-28" transform="translate(298.761 495.856)">
        <ellipse class="cls-34" cx="28.612" cy="28.612" rx="28.612" ry="28.612"/>
        <ellipse class="cls-6" cx="28.612" cy="28.612" rx="26.112" ry="26.112"/>
      </g>
      <path id="Tracé_541" data-name="Tracé 541" class="cls-25" d="M0,0,30.7,30.929" transform="translate(346.14 545.809)"/>
    </g>
    <g id="Groupe_148" data-name="Groupe 148" transform="translate(1249 15)">
      <text id="_-" data-name="-" class="cls-27" transform="translate(270 458.893)"><tspan x="36.148" y="94">-</tspan></text>
      <g id="Ellipse_27-2" data-name="Ellipse 27" class="cls-28" transform="translate(298.761 495.856)">
        <ellipse class="cls-34" cx="28.612" cy="28.612" rx="28.612" ry="28.612"/>
        <ellipse class="cls-6" cx="28.612" cy="28.612" rx="26.112" ry="26.112"/>
      </g>
      <path id="Tracé_541-2" data-name="Tracé 541" class="cls-25" d="M0,0,30.7,30.929" transform="translate(346.14 545.809)"/>
    </g>
    <g id="Groupe_149" data-name="Groupe 149" transform="translate(-1)">
      <circle id="Ellipse_28" data-name="Ellipse 28" class="cls-29" cx="43.445" cy="43.445" r="43.445" transform="translate(1679 847.11)"/>
      <line id="Ligne_66" data-name="Ligne 66" class="cls-30" x2="21" transform="translate(1686.5 890.5)"/>
      <path id="Tracé_545" data-name="Tracé 545" class="cls-23" d="M0,0H25.455V25.455L12.727,12.727Z" transform="translate(1698.315 907.943) rotate(-135)"/>
      <line id="Ligne_67" data-name="Ligne 67" class="cls-31" x2="21" transform="translate(1686.5 890.5)"/>
      <path id="Tracé_546" data-name="Tracé 546" d="M0,0H25.455V25.455L12.727,12.727Z" transform="translate(1703.316 866.943) rotate(-45)"/>
      <path id="Tracé_547" data-name="Tracé 547" class="cls-30" d="M0,0H21" transform="translate(1720.758 855.128) rotate(90)"/>
      <path id="Tracé_546-2" data-name="Tracé 546" class="cls-23" d="M0,0H25.455V25.455L12.727,12.727Z" transform="translate(1744.315 871.944) rotate(45)"/>
      <line id="Ligne_68" data-name="Ligne 68" class="cls-31" x2="21" transform="translate(1756.13 889.386) rotate(180)"/>
      <path id="Tracé_546-3" data-name="Tracé 546" class="cls-23" d="M0,0H25.455V25.455L12.727,12.727Z" transform="translate(1739.314 912.943) rotate(135)"/>
      <line id="Ligne_68-2" data-name="Ligne 68" class="cls-31" x2="21" transform="translate(1721.872 924.758) rotate(-90)"/>
    </g>
    <g id="Groupe_151" data-name="Groupe 151" transform="translate(-267 383)">
      <g class="cls-42" transform="matrix(1, 0, 0, 1, 267, -383)">
        <line id="Ligne_65-7" data-name="Ligne 65" class="cls-26" x2="18.213" y2="17.55" transform="translate(496.52 696.2) rotate(45)"/>
      </g>
      <g class="cls-41" transform="matrix(1, 0, 0, 1, 267, -383)">
        <path id="Tracé_540-7" data-name="Tracé 540" class="cls-26" d="M18.213,0,0,17.55" transform="translate(496.52 696.2) rotate(45)"/>
      </g>
    </g>
    <g id="Groupe_152" data-name="Groupe 152" transform="translate(109 564)">
      <g class="cls-40" transform="matrix(1, 0, 0, 1, -109, -564)">
        <line id="Ligne_65-8" data-name="Ligne 65" class="cls-26" x2="18.213" y2="17.55" transform="translate(872.52 877.2) rotate(45)"/>
      </g>
      <g class="cls-39" transform="matrix(1, 0, 0, 1, -109, -564)">
        <path id="Tracé_540-8" data-name="Tracé 540" class="cls-26" d="M18.213,0,0,17.55" transform="translate(872.52 877.2) rotate(45)"/>
      </g>
    </g>
    <g id="Groupe_153" data-name="Groupe 153" transform="translate(574 451)">
      <g class="cls-38" transform="matrix(1, 0, 0, 1, -574, -451)">
        <line id="Ligne_65-9" data-name="Ligne 65" class="cls-26" x2="18.213" y2="17.55" transform="translate(1337.52 764.2) rotate(45)"/>
      </g>
      <g class="cls-37" transform="matrix(1, 0, 0, 1, -574, -451)">
        <path id="Tracé_540-9" data-name="Tracé 540" class="cls-26" d="M18.213,0,0,17.55" transform="translate(1337.52 764.2) rotate(45)"/>
      </g>
    </g>
    <g id="Groupe_154" data-name="Groupe 154" transform="translate(531 70)">
      <g class="cls-36" transform="matrix(1, 0, 0, 1, -531, -70)">
        <line id="Ligne_65-10" data-name="Ligne 65" class="cls-26" x2="18.213" y2="17.55" transform="translate(1294.52 383.2) rotate(45)"/>
      </g>
      <g class="cls-35" transform="matrix(1, 0, 0, 1, -531, -70)">
        <path id="Tracé_540-10" data-name="Tracé 540" class="cls-26" d="M18.213,0,0,17.55" transform="translate(1294.52 383.2) rotate(45)"/>
      </g>
    </g>
    <path id="souris" class="cls-32" d="M190.266,300.151,171.24,279.37v27.259l6.3-5.886c.349.87.656,1.626.955,2.387.961,2.442,1.905,4.891,2.889,7.324.122.3.509.789.651.746,1.247-.349,2.468-.8,3.8-1.25l-4.492-10.517Z" transform="translate(593.26 46.13)"/>
    <text id="_3h_-_3h30" data-name="3h - 3h30" class="cls-33" transform="translate(423 269)"><tspan x="0" y="17">3h - 3h30</tspan></text>
    <text id="_30" data-name=" 30" class="cls-33" transform="translate(419 304)"><tspan x="0" y="17" xml:space="preserve"> 30</tspan></text>
    <g id="Time_icone" data-name="Time icone" transform="translate(400 271)">
      <path id="Tracé_548" data-name="Tracé 548" class="cls-6" d="M58.46,46.62h8.809v20.6H46.67V46.62h8.4a.1.1,0,0,1-.021.012.777.777,0,0,0-.582.762c0,.266-.008.532,0,.8a.748.748,0,0,0,.476.7,2.056,2.056,0,0,0,.3.081v.9a8.518,8.518,0,0,0-4.959,2.88,8.355,8.355,0,0,0-2.047,5.347A8.567,8.567,0,0,0,63.6,63.523a8.284,8.284,0,0,0,1.767-4.994A8.488,8.488,0,0,0,62.7,52.1l.033-.049.781-.963a.779.779,0,0,0-.122-1.109c-.2-.156-.4-.308-.6-.463-.137-.107-.265-.225-.409-.32a.77.77,0,0,0-1.031.183q-.442.565-.877,1.133a.077.077,0,0,1-.114.027,8.524,8.524,0,0,0-1.4-.515c-.2-.053-.4-.1-.6-.144v-.916l.042,0a.762.762,0,0,0,.727-.711,7.876,7.876,0,0,0,0-.938.68.68,0,0,0-.334-.55A2.054,2.054,0,0,0,58.46,46.62Z" transform="translate(-46.67 -46.62)"/>
      <path id="Tracé_549" data-name="Tracé 549" d="M88.611,46.62a2.048,2.048,0,0,1,.334.138.68.68,0,0,1,.334.55,7.876,7.876,0,0,1,0,.938.762.762,0,0,1-.727.711l-.042,0v.918c.2.049.4.091.6.144a8.524,8.524,0,0,1,1.4.515.077.077,0,0,0,.114-.027q.435-.569.877-1.133a.77.77,0,0,1,1.031-.183c.144.095.273.214.409.32.2.155.4.308.6.463a.779.779,0,0,1,.124,1.11l-.781.962a.5.5,0,0,0-.033.049,8.494,8.494,0,0,1,2.665,6.431,8.3,8.3,0,0,1-1.767,4.994,8.568,8.568,0,0,1-15.368-5.416,8.37,8.37,0,0,1,2.051-5.346,8.511,8.511,0,0,1,4.959-2.88v-.906a2.056,2.056,0,0,1-.3-.082.748.748,0,0,1-.476-.7c-.009-.266,0-.531,0-.8a.777.777,0,0,1,.582-.762.1.1,0,0,0,.021-.012Zm-7.9,11.692a6.219,6.219,0,1,0,1.825-4.418A6.235,6.235,0,0,0,80.716,58.312Z" transform="translate(-76.821 -46.62)"/>
      <path id="Tracé_550" data-name="Tracé 550" class="cls-6" d="M126,164.017a6.235,6.235,0,1,1,6.179,6.235A6.235,6.235,0,0,1,126,164.017Zm6.235,1.563c.1-.012.2-.019.295-.036a1.56,1.56,0,1,0-.63-3.056.218.218,0,0,1-.157-.024q-1.913-1.011-3.828-2.02a1.094,1.094,0,0,0-.207-.086.54.54,0,0,0-.69.61.741.741,0,0,0,.274.437q.917.76,1.838,1.517l1.529,1.255a.137.137,0,0,1,.049.077,1.565,1.565,0,0,0,1.527,1.326Z" transform="translate(-122.105 -152.324)"/>
      <path id="Tracé_551" data-name="Tracé 551" d="M151.771,215a1.565,1.565,0,0,1-1.531-1.326.137.137,0,0,0-.049-.077q-.763-.629-1.529-1.255-.917-.76-1.836-1.518a.741.741,0,0,1-.274-.437.54.54,0,0,1,.69-.61,1.1,1.1,0,0,1,.208.087l3.829,2.021a.218.218,0,0,0,.157.024,1.56,1.56,0,1,1,.63,3.056C151.967,214.977,151.869,214.984,151.771,215Z" transform="translate(-141.641 -201.741)"/>
    </g>
    <g id="icone_-_euro" data-name="icone - euro" transform="translate(345.472 307.698)">
      <path id="Tracé_552" data-name="Tracé 552" d="M68.941,16.428l-.43-1.952a.374.374,0,0,0-.184-.258.366.366,0,0,0-.319-.024l-.061.024-.148.037-.227.055c-.086.02-.186.041-.3.061s-.235.039-.362.055-.264.031-.411.043-.295.018-.442.018a4.942,4.942,0,0,1-4.641-3.118h4.751a.4.4,0,0,0,.38-.319l.295-1.375a.4.4,0,0,0-.073-.331A.384.384,0,0,0,66.46,9.2H60.825a11.044,11.044,0,0,1,0-1.289h5.991a.359.359,0,0,0,.393-.319l.295-1.4a.4.4,0,0,0-.393-.467H61.365a4.85,4.85,0,0,1,1.842-2.161,5.036,5.036,0,0,1,2.775-.786,1.1,1.1,0,0,1,.362.012,2.8,2.8,0,0,0,.356.031,2.055,2.055,0,0,1,.319.037L67.3,2.9l.215.043c.062.012.109.022.141.031l.049.012A.352.352,0,0,0,68,2.953a.36.36,0,0,0,.172-.239L68.7.761a.407.407,0,0,0-.037-.295.467.467,0,0,0-.246-.184A9.791,9.791,0,0,0,66.031,0a8.167,8.167,0,0,0-4.917,1.572,8,8,0,0,0-2.99,4.15h-1.2a.378.378,0,0,0-.393.393v1.4a.378.378,0,0,0,.393.393h.823q-.037.59-.012,1.289h-.81a.4.4,0,0,0-.393.393v1.387a.4.4,0,0,0,.393.393h1.166a7.928,7.928,0,0,0,2.922,4.316,8.168,8.168,0,0,0,5.022,1.6c.156,0,.313,0,.473-.012s.309-.021.448-.037.276-.034.411-.055.258-.041.368-.062.215-.041.313-.061.186-.043.264-.068.143-.043.2-.055a.6.6,0,0,0,.129-.043l.062-.012A.386.386,0,0,0,68.9,16.7.36.36,0,0,0,68.941,16.428Z"/>
    </g>
    <g id="icone_handicapé" data-name="icone handicapé" transform="translate(668 231)">
      <path id="Tracé_553" data-name="Tracé 553" class="cls-6" d="M-41.08-143.782V-174.6h21.9v30.818Zm17.632-10.107c-.067-.136-.123-.245-.176-.357-.582-1.241-1.186-2.475-1.734-3.731a1.358,1.358,0,0,0-1.424-.9c-1.124.023-2.248.007-3.372.005-.133,0-.265-.012-.393-.018v-1.745h.428c.837,0,1.674.009,2.51-.005.587-.01.81-.261.792-.835-.013-.411-.314-.652-.871-.657-.824-.011-1.649,0-2.473,0-.131,0-.262-.012-.414-.019,0-.44.019-.84-.007-1.236a.486.486,0,0,1,.321-.538,2,2,0,0,0,.191-3.554,2.469,2.469,0,0,0-2.366-.2,2.012,2.012,0,0,0-.562,3.53.631.631,0,0,1,.173.447c.008,1.811,0,3.622,0,5.433a1.028,1.028,0,0,0,1.158,1.151c1.436,0,2.873.007,4.308-.005a.438.438,0,0,1,.475.3c.621,1.362,1.26,2.715,1.9,4.069.258.55.59.73,1.143.53.738-.265,1.463-.571,2.179-.894a.726.726,0,0,0,.393-.97c-.156-.356-.492-.468-.955-.292-.4.145-.788.317-1.223.5ZM-26-154.011a19.761,19.761,0,0,1-2.03,1.292,6.35,6.35,0,0,1-6.591-.224,4.546,4.546,0,0,1-1.874-5.587,5.124,5.124,0,0,1,2.776-2.8c.136-.06.349-.168.355-.265.034-.555.017-1.112.017-1.687a2.053,2.053,0,0,0-.3.025,6.757,6.757,0,0,0-3.272,1.721,6.68,6.68,0,0,0,.492,9.786,7.953,7.953,0,0,0,6.611,1.791,7.462,7.462,0,0,0,4.362-2.288c.077-.081.158-.249.124-.329C-25.541-153.077-25.787-153.566-26-154.011Z" transform="translate(41.08 174.6)"/>
      <path id="Tracé_554" data-name="Tracé 554" d="M168.18,22.864c.435-.18.823-.351,1.22-.5.463-.174.8-.062.955.292a.727.727,0,0,1-.393.97c-.715.323-1.44.629-2.179.894-.553.2-.885.019-1.143-.53-.637-1.354-1.278-2.707-1.9-4.069a.437.437,0,0,0-.475-.3c-1.436.013-2.873.008-4.308.005a1.028,1.028,0,0,1-1.158-1.151c0-1.811.01-3.622,0-5.433a.628.628,0,0,0-.173-.447,2.012,2.012,0,0,1,.562-3.53,2.471,2.471,0,0,1,2.366.2,2,2,0,0,1-.191,3.554.486.486,0,0,0-.321.538c.026.4.007.8.007,1.236.152.007.283.019.414.019.824,0,1.649-.007,2.473,0,.557.007.858.248.871.657.018.574-.2.825-.792.835-.837.015-1.673,0-2.51.005h-.426v1.745c.128.006.261.018.393.018,1.124,0,2.248.018,3.372-.005a1.356,1.356,0,0,1,1.424.9c.548,1.257,1.152,2.489,1.734,3.732C168.057,22.617,168.113,22.727,168.18,22.864Z" transform="translate(-150.548 -2.153)"/>
      <path id="Tracé_555" data-name="Tracé 555" d="M33.728,144.75c.212.445.458.934.671,1.436.034.08-.047.248-.124.329a7.461,7.461,0,0,1-4.362,2.288,7.958,7.958,0,0,1-6.611-1.791,6.68,6.68,0,0,1-.49-9.785,6.757,6.757,0,0,1,3.272-1.721,2.056,2.056,0,0,1,.3-.025c0,.574.018,1.132-.017,1.687-.006.1-.219.2-.355.265a5.123,5.123,0,0,0-2.776,2.8,4.545,4.545,0,0,0,1.874,5.587,6.347,6.347,0,0,0,6.591.224A19.367,19.367,0,0,0,33.728,144.75Z" transform="translate(-18.649 -124.161)"/>
    </g>
  </g>
</svg>
