<svg xmlns="http://www.w3.org/2000/svg" xmlns:xlink="http://www.w3.org/1999/xlink" viewBox="0 0 1920 1080">
  <defs>
    <style>
      .cls-1 {
        clip-path: url(#clip-Page_Cartographie_:_Etat_1_1);
      }

      .cls-2 {
        fill: #202020;
      }

      .cls-10, .cls-12, .cls-13, .cls-18, .cls-20, .cls-21, .cls-22, .cls-27, .cls-28, .cls-3, .cls-32, .cls-7, .cls-8 {
        fill: none;
      }

      .cls-10, .cls-14, .cls-22, .cls-3, .cls-4, .cls-7 {
        stroke: #fff;
      }

      .cls-3, .cls-32, .cls-7, .cls-8 {
        stroke-linecap: round;
      }

      .cls-12, .cls-13, .cls-3 {
        stroke-width: 10px;
      }

      .cls-4 {
        fill: #f7c735;
      }

      .cls-33, .cls-4, .cls-8 {
        stroke-width: 4px;
      }

      .cls-5 {
        fill: #b8b0ab;
      }

      .cls-11, .cls-29, .cls-30, .cls-31, .cls-33, .cls-6, .cls-9 {
        fill: #fff;
      }

      .cls-6 {
        font-size: 65px;
        font-family: Gotham-Book, Gotham;
      }

      .cls-10, .cls-7 {
        stroke-width: 5px;
      }

      .cls-12, .cls-32, .cls-8 {
        stroke: #000;
      }

      .cls-9 {
        font-size: 100px;
      }

      .cls-30, .cls-31, .cls-9 {
        font-family: Raleway-Regular, Raleway;
      }

      .cls-13 {
        stroke: #b8b0ab;
      }

      .cls-14, .cls-20, .cls-21, .cls-22, .cls-24, .cls-27, .cls-28 {
        stroke-miterlimit: 10;
      }

      .cls-15 {
        fill: #abaaaa;
      }

      .cls-16 {
        fill: #7f7f7f;
      }

      .cls-17 {
        fill: #aba9a9;
      }

      .cls-19 {
        fill: #cbc5c6;
      }

      .cls-20, .cls-21 {
        stroke: #00a4c8;
        stroke-width: 8px;
      }

      .cls-20 {
        opacity: 0.75;
      }

      .cls-22 {
        stroke-width: 2px;
      }

      .cls-23 {
        opacity: 0.65;
      }

      .cls-24 {
        stroke: #ffeed2;
      }

      .cls-25 {
        fill: #ffeed2;
      }

      .cls-26 {
        fill-rule: evenodd;
        opacity: 0.7;
      }

      .cls-27, .cls-28, .cls-33 {
        stroke: #f7c735;
      }

      .cls-27, .cls-32 {
        stroke-width: 6px;
      }

      .cls-28 {
        stroke-width: 12px;
        stroke-dasharray: 20 0;
        opacity: 0.8;
      }

      .cls-30 {
        font-size: 28px;
      }

      .cls-31 {
        font-size: 35px;
      }

      .cls-34, .cls-35 {
        stroke: none;
      }

      .cls-36 {
        filter: url(#Ligne_70);
      }

      .cls-37 {
        filter: url(#Ligne_69);
      }

      .cls-38 {
        filter: url(#Ligne_62);
      }

      .cls-39 {
        filter: url(#Ligne_61);
      }

      .cls-40 {
        filter: url(#Tracé_540);
      }

      .cls-41 {
        filter: url(#Ligne_65);
      }
    </style>
    <filter id="Ligne_65" x="747.611" y="309.7" width="36.287" height="36.287" filterUnits="userSpaceOnUse">
      <feOffset dy="1" input="SourceAlpha"/>
      <feGaussianBlur stdDeviation="0.5" result="blur"/>
      <feFlood flood-color="#030303" flood-opacity="0.22"/>
      <feComposite operator="in" in2="blur"/>
      <feComposite in="SourceGraphic"/>
    </filter>
    <filter id="Tracé_540" x="748.782" y="310.871" width="33.945" height="33.945" filterUnits="userSpaceOnUse">
      <feOffset dy="1" input="SourceAlpha"/>
      <feGaussianBlur stdDeviation="0.5" result="blur-2"/>
      <feFlood flood-color="#030303" flood-opacity="0.22"/>
      <feComposite operator="in" in2="blur-2"/>
      <feComposite in="SourceGraphic"/>
    </filter>
    <filter id="Ligne_61" x="744.798" y="296.764" width="44.499" height="43.298" filterUnits="userSpaceOnUse">
      <feOffset dy="1" input="SourceAlpha"/>
      <feGaussianBlur stdDeviation="0.5" result="blur-3"/>
      <feFlood flood-color="#030303" flood-opacity="0.22"/>
      <feComposite operator="in" in2="blur-3"/>
      <feComposite in="SourceGraphic"/>
    </filter>
    <filter id="Ligne_62" x="744.798" y="296.764" width="44.499" height="43.298" filterUnits="userSpaceOnUse">
      <feOffset dy="1" input="SourceAlpha"/>
      <feGaussianBlur stdDeviation="0.5" result="blur-4"/>
      <feFlood flood-color="#030303" flood-opacity="0.22"/>
      <feComposite operator="in" in2="blur-4"/>
      <feComposite in="SourceGraphic"/>
    </filter>
    <filter id="Ligne_69" x="738.798" y="296.764" width="44.499" height="43.298" filterUnits="userSpaceOnUse">
      <feOffset dy="1" input="SourceAlpha"/>
      <feGaussianBlur stdDeviation="0.5" result="blur-5"/>
      <feFlood flood-color="#030303" flood-opacity="0.22"/>
      <feComposite operator="in" in2="blur-5"/>
      <feComposite in="SourceGraphic"/>
    </filter>
    <filter id="Ligne_70" x="738.798" y="296.764" width="44.499" height="43.298" filterUnits="userSpaceOnUse">
      <feOffset dy="1" input="SourceAlpha"/>
      <feGaussianBlur stdDeviation="0.5" result="blur-6"/>
      <feFlood flood-color="#030303" flood-opacity="0.22"/>
      <feComposite operator="in" in2="blur-6"/>
      <feComposite in="SourceGraphic"/>
    </filter>
    <clipPath id="clip-Page_Cartographie_:_Etat_1_1">
      <rect width="1920" height="1080"/>
    </clipPath>
  </defs>
  <g id="Page_Cartographie_:_Etat_1_1" data-name="Page Cartographie : Etat 1 – 1" class="cls-1">
    <rect class="cls-11" width="1920" height="1080"/>
    <rect id="Rectangle_146" data-name="Rectangle 146" class="cls-2" width="1920" height="1080"/>
    <g id="Groupe_86" data-name="Groupe 86" transform="translate(347 227.934)">
      <line id="Ligne_4" data-name="Ligne 4" class="cls-3" x2="29.75" y2="31.433" transform="translate(583 795.067)"/>
      <line id="Ligne_5" data-name="Ligne 5" class="cls-3" x1="28.25" y2="31.433" transform="translate(612.75 795.067)"/>
    </g>
    <g id="Groupe_85" data-name="Groupe 85" transform="translate(1573 852) rotate(180)">
      <line id="Ligne_4-2" data-name="Ligne 4" class="cls-3" x2="29.75" y2="31.433" transform="translate(583 795.067)"/>
      <line id="Ligne_5-2" data-name="Ligne 5" class="cls-3" x1="28.25" y2="31.433" transform="translate(612.75 795.067)"/>
    </g>
    <g id="Ellipse_4" data-name="Ellipse 4" class="cls-4" transform="translate(723.568 284.117)">
      <ellipse class="cls-34" cx="42.642" cy="42.642" rx="42.642" ry="42.642"/>
      <ellipse class="cls-18" cx="42.642" cy="42.642" rx="40.642" ry="40.642"/>
    </g>
    <path id="Tracé_532" data-name="Tracé 532" class="cls-5" d="M0,0S97.358,53.317,190.817,105.888s183.021,104.4,183.021,104.4H0Z" transform="translate(0 869.716)"/>
    <path id="Tracé_533" data-name="Tracé 533" class="cls-5" d="M0,0S97.358,53.245,190.817,105.745,373.838,210,373.838,210H0Z" transform="translate(1919.838 210) rotate(180)"/>
    <text id="EXPÉRIENCE_PAR_MAP" data-name="EXPÉRIENCE PAR MAP" class="cls-6" transform="translate(140 105)"><tspan x="439.035" y="59">EXPÉRIENCE PAR MAP</tspan></text>
    <g id="Symbole_2_11" data-name="Symbole 2 – 11" transform="translate(137 -15.5)">
      <line id="Ligne_1" data-name="Ligne 1" class="cls-7" x2="43" transform="translate(1599 74.5)"/>
      <line id="Ligne_2" data-name="Ligne 2" class="cls-7" x2="43" transform="translate(1599 98.5)"/>
      <line id="Ligne_3" data-name="Ligne 3" class="cls-7" x2="43" transform="translate(1599 86.5)"/>
    </g>
    <g id="Groupe_150" data-name="Groupe 150" transform="translate(2 1)">
      <g class="cls-41" transform="matrix(1, 0, 0, 1, -2, -1)">
        <line id="Ligne_65-2" data-name="Ligne 65" class="cls-8" x2="18.213" y2="17.55" transform="translate(765.52 314.2) rotate(45)"/>
      </g>
      <g class="cls-40" transform="matrix(1, 0, 0, 1, -2, -1)">
        <path id="Tracé_540-2" data-name="Tracé 540" class="cls-8" d="M18.213,0,0,17.55" transform="translate(765.52 314.2) rotate(45)"/>
      </g>
    </g>
    <g id="Groupe_147" data-name="Groupe 147" transform="translate(1 15)">
      <text id="_" data-name="+" class="cls-9" transform="translate(270 466.893)"><tspan x="36.498" y="94">+</tspan></text>
      <g id="Ellipse_27" data-name="Ellipse 27" class="cls-10" transform="translate(298.761 495.856)">
        <ellipse class="cls-34" cx="28.612" cy="28.612" rx="28.612" ry="28.612"/>
        <ellipse class="cls-18" cx="28.612" cy="28.612" rx="26.112" ry="26.112"/>
      </g>
      <path id="Tracé_541" data-name="Tracé 541" class="cls-7" d="M0,0,30.7,30.929" transform="translate(346.14 545.809)"/>
    </g>
    <g id="Groupe_148" data-name="Groupe 148" transform="translate(1249 15)">
      <text id="_-" data-name="-" class="cls-9" transform="translate(270 458.893)"><tspan x="36.148" y="94">-</tspan></text>
      <g id="Ellipse_27-2" data-name="Ellipse 27" class="cls-10" transform="translate(298.761 495.856)">
        <ellipse class="cls-34" cx="28.612" cy="28.612" rx="28.612" ry="28.612"/>
        <ellipse class="cls-18" cx="28.612" cy="28.612" rx="26.112" ry="26.112"/>
      </g>
      <path id="Tracé_541-2" data-name="Tracé 541" class="cls-7" d="M0,0,30.7,30.929" transform="translate(346.14 545.809)"/>
    </g>
    <g id="Groupe_149" data-name="Groupe 149" transform="translate(-1)">
      <circle id="Ellipse_28" data-name="Ellipse 28" class="cls-11" cx="43.445" cy="43.445" r="43.445" transform="translate(1679 847.11)"/>
      <line id="Ligne_66" data-name="Ligne 66" class="cls-12" x2="21" transform="translate(1686.5 890.5)"/>
      <path id="Tracé_545" data-name="Tracé 545" class="cls-5" d="M0,0H25.455V25.455L12.727,12.727Z" transform="translate(1698.315 907.943) rotate(-135)"/>
      <line id="Ligne_67" data-name="Ligne 67" class="cls-13" x2="21" transform="translate(1686.5 890.5)"/>
      <path id="Tracé_546" data-name="Tracé 546" d="M0,0H25.455V25.455L12.727,12.727Z" transform="translate(1703.316 866.943) rotate(-45)"/>
      <path id="Tracé_547" data-name="Tracé 547" class="cls-12" d="M0,0H21" transform="translate(1720.758 855.128) rotate(90)"/>
      <path id="Tracé_546-2" data-name="Tracé 546" class="cls-5" d="M0,0H25.455V25.455L12.727,12.727Z" transform="translate(1744.315 871.944) rotate(45)"/>
      <line id="Ligne_68" data-name="Ligne 68" class="cls-13" x2="21" transform="translate(1756.13 889.386) rotate(180)"/>
      <path id="Tracé_546-3" data-name="Tracé 546" class="cls-5" d="M0,0H25.455V25.455L12.727,12.727Z" transform="translate(1739.314 912.943) rotate(135)"/>
      <line id="Ligne_68-2" data-name="Ligne 68" class="cls-13" x2="21" transform="translate(1721.872 924.758) rotate(-90)"/>
    </g>
    <path id="souris" class="cls-14" d="M190.266,300.151,171.24,279.37v27.259l6.3-5.886c.349.87.656,1.626.955,2.387.961,2.442,1.905,4.891,2.889,7.324.122.3.509.789.651.746,1.247-.349,2.468-.8,3.8-1.25l-4.492-10.517Z" transform="translate(595.26 47.13)"/>
    <g id="Map_experience_2" data-name="Map experience 2" transform="translate(462 244)">
      <path id="Tracé_357" data-name="Tracé 357" class="cls-15" d="M988,681.258l73.22,26.055,52.646-21.551,15.534-39.7c-2.29-3.383-11.607-16.153-28.943-28.015-8.6-5.879-20-11.243-32.079-16.93-9.483-4.456-19.254-9.07-28.393-14.248A175.066,175.066,0,0,1,1021.9,574.88Z" transform="translate(-507.163 -189.457)"/>
      <path id="Tracé_358" data-name="Tracé 358" class="cls-15" d="M1231.546,511.793c6.876,1.5,59.5,12.955,77.91,16.339,17.562,3.225,63.573,9.71,75.641,11.4a139.74,139.74,0,0,0-5.4-20.065c-2.324-6.409-6.608-12.6-9.737-17.122-.8-1.162-1.52-2.2-2.1-3.087l-.826-1.272a72.133,72.133,0,0,0-11.5-14.44,233.65,233.65,0,0,0-18.2-15.06l-.557-.413-14.867-44.9-56.085-68.386L1203.14,390.8c1.912,7.372,9.7,37.587,11.69,49.022,2.476,14.138,6.774,54.709,7.372,60.423Z" transform="translate(-575.481 -120.088)"/>
      <path id="Tracé_359" data-name="Tracé 359" class="cls-16" d="M1148.568,585.585l35.07-27.293-6.333-31.934-9.5-11.814-97.013-39.3,1.582-4.4,94.249,38.508c-1.19-11.126-4.862-44.848-7.014-57.15-1.98-11.3-9.992-42.38-11.69-49.008L1099.78,392.13,1088.743,425.4h0l-17.954,49.847h-12.151l-18.717,38.446a174.034,174.034,0,0,0,18.429,12.329c8.939,5.1,18.69,9.675,28.1,14.1,12.24,5.756,23.8,11.2,32.684,17.274C1135.888,568.854,1145.288,580.909,1148.568,585.585Z" transform="translate(-523.525 -131.915)"/>
      <path id="Tracé_360" data-name="Tracé 360" class="cls-15" d="M653.553,463.652c-9.249,4.765-19.66,14.3-30.023,25.78l14.819,10.748-4.972,11.69c6.354,6.368,40.853,40.791,69.452,66.138,4.387,3.885,8.334,7.757,11.814,11.167,8.76,8.589,15.678,15.376,23.2,16.318,9.84,1.238,20.01-5.178,31.315-13.9-.584-.949.048.089,0,0l3.438-2.7h0q2.345-1.857,4.752-3.789c4.635-3.713,9.428-7.564,14.441-11.174,5.453-3.961,12.219-6.629,18.766-9.208,7.007-2.751,13.629-5.37,16.373-8.939,2.661-3.438,4.655-8.795,6.76-14.441a127.675,127.675,0,0,1,6.3-14.908c1.031-1.98,2.152-3.94,3.246-5.859,2.75-4.814,5.295-9.3,5.8-12.742.688-4.6.2-16.827.034-20.684-2.365-1.286-4.91-2.7-7.674-4.236-14.757-8.217-34.96-19.467-54.95-25.154-7.564-2.145-29.314-5.247-51.849-5.04a399.619,399.619,0,0,0-55.273,4.387C667.175,459.038,658.008,461.362,653.553,463.652Z" transform="translate(-392.456 -150.943)"/>
      <path id="Tracé_361" data-name="Tracé 361" class="cls-15" d="M843.91,609.434a46.352,46.352,0,0,0,10.775,10.315c5.1,3.438,12.288,6.134,18.064,8.252a74.371,74.371,0,0,1,8.94,3.692c12.288,6.877,48.059,22.644,57.3,26.681L973.249,550.9c-2.3-1.76-4.559-3.528-6.8-5.274-5.233-4.092-10.177-7.949-15.328-11.518-7.468-5.171-13.382-11.552-18.608-17.191a95.658,95.658,0,0,0-10.157-10c.193,5.377.392,14.393-.2,18.464-.612,4.256-3.383,9.118-6.32,14.268-1.066,1.877-2.159,3.789-3.17,5.721a122.857,122.857,0,0,0-6.072,14.406c-2.228,6-4.332,11.69-7.406,15.623-3.479,4.483-10.638,7.3-18.216,10.315-6.292,2.482-12.8,5.041-17.8,8.678s-9.661,7.372-14.262,11.051Q846.4,607.457,843.91,609.434Z" transform="translate(-461.748 -168.059)"/>
      <path id="Tracé_362" data-name="Tracé 362" class="cls-17" d="M664.78,309.764l26.041,75.5.687-.117a398.216,398.216,0,0,1,55.94-4.442c23.38-.186,43.1,2.826,51.113,4.71l13.505-37.133-18.683-42.964,36.934-12.928V236l-72.884,22.692h-16.3l-59.7,17.748Z" transform="translate(-405.373 -82.487)"/>
      <path id="Tracé_363" data-name="Tracé 363" class="cls-16" d="M1056.877,411.957l10.356-31.226L971.506,358.72,949.35,374.962l5.432,22.355,79.375,26.66Z" transform="translate(-494.934 -121.084)"/>
      <path id="Tracé_364" data-name="Tracé 364" class="cls-16" d="M865.4,433.135c19.722,5.989,39.251,16.813,53.636,24.831,3.156,1.76,6.072,3.383,8.7,4.814,4.972,2.668,9.462,7.509,14.661,13.113,5.068,5.467,10.817,11.69,17.879,16.559,5.253,3.638,10.246,7.564,15.527,11.69q2.984,2.331,6.037,4.69l19.543-40.131H1013.2l15.272-42.462-20.175,10.679L924.9,408.882,919.1,385l-40.379,11.539Z" transform="translate(-468.585 -129.488)"/>
      <path id="Tracé_365" data-name="Tracé 365" class="cls-15" d="M1221.01,308.172l-32.085-39.086-2.352-37.016-18.161-3.507,4.656-11.05-24.625-1.073c-.275,0-46.952,2.132-62.328,4.2-3.135.426-7.488,1.162-12.467,2.063l-5.178,100.864,89.779,20.629Z" transform="translate(-532.544 -76.282)"/>
      <path id="Tracé_366" data-name="Tracé 366" class="cls-15" d="M1004.231,224.226c-21.021,4.009-49.51,10.246-49.9,10.315l-.564.124L902.28,218.69l-6.553,9.579v61.778L860.3,302.425l16.4,37.724,41.417-11.834,24.611-18.044,56.387,12.976Z" transform="translate(-466.939 -76.984)"/>
      <path id="Tracé_367" data-name="Tracé 367" class="cls-18" d="M919.856,42.09q-11.325.564-24.336,1.279a19.492,19.492,0,0,0,3.913,3.521c.853.426,4.848.88,7.991.97,2.661-.44,6.814-1.375,8.1-2.111a36.764,36.764,0,0,0,4.332-3.658Z" transform="translate(-477.814 -21.137)"/>
      <path id="Tracé_368" data-name="Tracé 368" class="cls-19" d="M730.11,839.619l1.87.688c92.647,35.318,180.851,63.4,186.861,65.326,1.506.227,7.757,1.141,11.188,1.6a37.05,37.05,0,0,0,8.761.048c-.371-9.38-1.19-19.034-2.063-20.629a7.017,7.017,0,0,0-2.462-1.726,12.3,12.3,0,0,1-5.082-4.339c-5.549-9.049-9.627-23.229-10.315-31.707-.351-4.126,3.012-7.605,6.264-10.954,2.62-2.7,5.322-5.5,5.185-7.791-1.059-17.838-.619-35.95-.268-50.514.186-7.681.351-14.31.268-19.536-.089-5.4,3.837-21.069,5.26-26.557l-33.536-11.937.041-.131c-8.252-3.6-42.036-18.429-56.229-26.034l-14.915,25.443v12.054L814.759,753.8H795.5Z" transform="translate(-426.034 -227.952)"/>
      <path id="Tracé_369" data-name="Tracé 369" class="cls-19" d="M1028.031,873.473c1.733,2.565,2.475,14.31,2.792,22.348a67.506,67.506,0,0,0,12.288-3.926c1.506-.626,3-1.272,4.511-1.932,8.664-3.768,18.477-8.038,32.161-8.038h.137c9.881,0,19.337,3.245,28.083,6.732,1.031.412,2.063.846,3.129,1.279,6.876,2.847,13.354,5.5,20.416,4.126,12.88-2.551,27.664-6.134,39.656-13.347,14.867-8.939,28.943-18.649,40.75-26.969,10.349-7.3,22.837-13.753,34.912-19.942,10.631-5.5,20.678-10.679,29.108-16.27,2.249-1.492,8.506-4.367,15.946-7.523L1156.394,662.077l1.334-1.217-16.923,13.161L1124.4,715.968l-55.9,22.885-41.1-14.633c-1.836,7.1-5.1,20.691-5.027,25.03.09,5.309-.076,11.986-.261,19.708-.351,14.482-.791,32.5.261,50.15.254,4.215-3.136,7.7-6.4,11.071-2.579,2.654-5.24,5.4-5.054,7.564.688,7.977,4.5,21.317,9.71,29.8a8.031,8.031,0,0,0,3.438,2.805,10.437,10.437,0,0,1,3.968,3.122Z" transform="translate(-515.435 -217.157)"/>
      <path id="Tracé_370" data-name="Tracé 370" class="cls-19" d="M406.49,722.069a200.541,200.541,0,0,0,22.988-1.884c10.782-1.313,21.929-2.689,32.429-1.286a97.1,97.1,0,0,1,32.959,11c.5.261.86.461,1.08.564,4.367,1.719,8.747,3.163,13.388,4.7a227.589,227.589,0,0,1,22.067,8.224c24.838,11,56.187,22.885,83.845,33.371l9.579,3.61,67.389-88.555h19.309l13.966-18.03V662.017l15.39-26.213c-1.705-.742-3.865-1.547-6.292-2.448-6-2.221-13.464-4.985-19-8.754a50.5,50.5,0,0,1-11.772-11.257c-10.714,8.252-21.063,14.819-31.377,14.819a23.685,23.685,0,0,1-2.943-.179c-8.939-1.128-16.352-8.362-25.7-17.528-3.438-3.376-7.351-7.206-11.656-11-31.59-27.98-70.312-66.97-70.7-67.389l-1.025-1.038,4.759-11.209L552.8,510.88c-18.278,20.856-36.074,46.911-46.76,62.534l-2.152,3.156c-5.164,7.564-12.5,19.543-19.591,31.136-6.691,10.94-13.01,21.269-17.782,28.393C453.429,655.684,414.494,710.785,406.49,722.069Z" transform="translate(-323.649 -170.31)"/>
      <path id="Tracé_371" data-name="Tracé 371" class="cls-19" d="M1363.772,786.092c12.824-5.322,27.437-10.878,31.2-11.779l1.719-.413c9.242-2.214,14.324-3.438,17.831-6.086,4.408-3.335,10.28-10.5,15.96-17.439,5.171-6.313,10.053-12.274,14.035-15.6l2.3-1.9c9.847-8.162,20.031-16.607,26.055-31.233,3.775-9.18,10.652-25.945,9.833-76.019l-.123,1.19-89.105-9.214v-.055c-9.524-1.327-58.835-8.252-77.222-11.621-17.006-3.122-62.989-13.065-75.566-15.816L1247,621.931l-19.646,15.28Z" transform="translate(-583.043 -195.055)"/>
      <path id="Tracé_372" data-name="Tracé 372" class="cls-19" d="M778.833,44.41c-32.1,1.994-42.634,5.123-58,11.456C715.687,58,711.9,60.955,690.891,77.4c-6.677,5.226-15.066,11.793-25.759,20.107a208.575,208.575,0,0,0-17.48,15.768,177.542,177.542,0,0,1-15.513,14c-25.718,19.653-44.972,27.313-47.083,28.125-9.1,3.493-17.659,11.814-21.929,16.421-8.41,9.1-13.753,20.148-18,29.025-1.066,2.214-2.063,4.3-3.046,6.189-.784,1.527-1.623,3.005-2.427,4.511l81.926,36.872,17.734-35.469,62.424-18.45h15.953l73.042-22.789-9.194-32.175,12.378-86.733c-2.51-.151-5.962-.509-7.564-1.327C784.2,50.434,781.041,47,778.833,44.41Z" transform="translate(-366.037 -21.862)"/>
      <path id="Tracé_373" data-name="Tracé 373" class="cls-19" d="M323.918,620.193c5.5,10.693,20.588,28.138,39.766,32.374a66.238,66.238,0,0,0,11.277,1.375l-.488-.351c.468-.688,46.911-66.262,61.476-88.019,4.724-7.055,11.312-17.824,17.686-28.242,7.117-11.642,14.482-23.676,19.715-31.322l2.152-3.149c18.814-27.506,53.843-78.8,81.259-92.935,5.109-2.627,14.049-4.676,22-6.1l-25.01-72.595L468.984,293.08c-6.292,11.394-13.107,22.218-19.763,32.718s-13.065,20.588-18.615,30.793q-4.752,8.719-9.125,16.627c-11.889,21.578-21.283,38.618-24.948,49.627-5.061,15.19-11.993,32.691-30.256,48.135a129.393,129.393,0,0,1-17.143,12c-7,4.3-12.529,7.688-17.054,14.44-5.254,7.86-3.672,17.679-2,28.077,1.038,6.43,2.1,13.065,1.485,19.433-.86,8.809-3.342,17.879-5.735,26.66C321.064,589.166,316.526,605.766,323.918,620.193Z" transform="translate(-296.639 -101.141)"/>
      <path id="Tracé_374" data-name="Tracé 374" class="cls-19" d="M1505.63,513.522a70.672,70.672,0,0,0-.042-13.918c-.42-3.981-1.279-8.9-2.187-14.007l-.309-1.726c-1.376-7.688-2.806-15.637-3.322-22.589-.282-3.823,1.265-23.676,2.82-40.5l.33-3.535c1.561-16.737,3.328-35.709,1.822-44.7-2.173-12.99-8.217-27.506-13.065-39.2-1.946-4.676-3.782-9.091-5.13-12.838-6.319-17.521-11.69-28.317-15.94-34.974a287.631,287.631,0,0,1-48.541,16.359c-13.636,3.2-28.75,5.116-42.1,6.794-11.5,1.451-21.441,2.7-27.781,4.442-11.752,3.225-42.4,14.647-51.869,18.2l55.844,68.077,14.688,44.36c2.228,1.671,10.734,8.142,18.03,14.97a75.919,75.919,0,0,1,12.192,15.286l.8,1.245c.564.859,1.258,1.863,2.063,2.991,3.267,4.717,7.736,11.167,10.246,18.113a143.931,143.931,0,0,1,5.852,22.115l85.419,8.836c0-1.417-.069-2.84-.11-4.312A88.9,88.9,0,0,1,1505.63,513.522Z" transform="translate(-605.835 -98.329)"/>
      <path id="Tracé_375" data-name="Tracé 375" class="cls-19" d="M1129.263,31.94q-10.315.461-20.808.853c-19.942.688-30.037.839-40.695.963-12.378.144-25.182.289-54.971,1.451-5.556.22-11.463.419-18.009.646-16.5.564-37.58,1.293-67.589,2.751-2,1.98-6.691,6.54-8.754,7.736-1.9,1.1-5.886,1.967-8.21,2.4L897.85,135.382l8.252,28.881,6.134-8.939,53.451,16.586c5.831-1.272,50.659-11,66.55-13.175,15.575-2.1,60.98-4.126,62.906-4.236l4.476.192,15.857-48.568L1139.908,64.3Z" transform="translate(-479.009 -17.967)"/>
      <path id="Tracé_376" data-name="Tracé 376" class="cls-18" d="M312.561,534.044c5.325,10.383,21.643,31.4,45.308,36.622,14.057,3.11,28,1.37,41.484-.247,10.7-1.3,20.8-2.534,30.19-1.294a88.317,88.317,0,0,1,30.011,10.034c.918.486,1.556.8,1.857.918,4.654,1.836,9.129,3.308,13.871,4.877a220.165,220.165,0,0,1,21.246,7.87c24.967,11.055,56.329,22.938,83.99,33.41l15.585,5.911c95.4,36.348,186.113,65.019,187.018,65.307l.651.151s7.669,1.137,11.651,1.657a44.564,44.564,0,0,0,5.791.377c9.279,0,17.456-2.829,23.816-5.479,1.542-.637,3.077-1.308,4.633-1.979,8.293-3.609,16.825-7.431,28.785-7.308,8.443,0,16.955,2.945,24.9,6.109.994.4,2,.815,3.016,1.233,7.347,3.041,15.667,6.486,25.207,4.6,13.549-2.685,29.161-6.493,42.217-14.335,15.078-9.041,29.237-18.822,41.121-27.2,9.842-6.931,22.027-13.219,33.809-19.3,10.335-5.336,21.02-10.849,29.806-16.678,5.627-3.733,43.005-18.493,48.543-19.862l1.707-.411c9.972-2.39,15.989-3.836,20.883-7.534,5.188-3.925,11.363-11.459,17.339-18.746,4.681-5.712,9.52-11.643,12.871-14.383l2.269-1.877c10.116-8.383,21.582-17.876,28.38-34.383,5.8-14.082,11.85-33.561,10.28-86.614a80.711,80.711,0,0,1,.295-8.6,78.518,78.518,0,0,0-.068-15.349c-.453-4.24-1.33-9.294-2.269-14.541l-.308-1.726c-1.336-7.452-2.741-15.15-3.2-21.643-.171-2.329.85-17.876,2.8-38.937l.329-3.514c1.679-18.02,3.427-36.65,1.734-46.718-2.323-13.89-8.553-28.855-13.556-40.876-1.9-4.562-3.694-8.87-4.969-12.411-8.759-24.26-17.209-39.965-25.118-46.67-4.907-4.157-12.015-7.8-19.532-11.644-10.452-5.356-22.3-11.431-26.612-18.678-3.673-6.164-5.366-21.191-6.606-32.157a125.227,125.227,0,0,0-1.947-13.589c-3.036-11.863-3.941-21.678-4.742-30.328-1.1-11.863-2.057-22.109-7.635-34.006-.685-1.418-1.3-3.027-1.967-4.733-3.207-8.171-7.6-19.356-22.157-23.8-11.733-3.582-28.1-4.794-44.863-3.37-29.47,2.527-63.532,4.527-98.56,5.794-19.793.685-29.778.829-40.353.952-12.391.144-25.207.295-55.02,1.452-5.524.212-11.4.418-17.908.637-21.685.747-51.4,1.76-98.958,4.37-26.365,1.445-39.75,3.514-51.319,7.089-4.763,1.473-9.225,3.192-14.166,5.233-6.168,2.562-10.109,5.616-31.821,22.6-6.648,5.2-15,11.739-25.653,20.006a213.759,213.759,0,0,0-18.127,16.322,166.681,166.681,0,0,1-14.7,13.287c-20.06,15.322-37.619,24.082-44.829,26.842-10.671,4.109-20.259,13.342-25.022,18.493-9.239,9.986-14.838,21.623-19.347,30.972-1.028,2.137-2,4.157-2.947,6.007-7.237,14.13-15.653,27.4-23.789,40.225-6.764,10.664-13.159,20.739-18.833,31.15q-4.729,8.671-9.081,16.527c-12.055,21.869-21.582,39.136-25.474,50.827-3.619,10.863-9.684,29.033-27.578,44.17a122,122,0,0,1-16.092,11.2c-7.539,4.63-14.063,8.623-19.587,16.9-7.08,10.582-5.085,23-3.317,33.958.994,6.164,1.926,11.959,1.412,17.2-.788,8.068-3.057,16.363-5.483,25.15C308.867,497.867,303.7,516.771,312.561,534.044Z" transform="translate(-292.808 -11.619)"/>
      <path id="Tracé_377" data-name="Tracé 377" class="cls-19" d="M1436.081,200.143a29.391,29.391,0,0,0-4.263-4.676c-4.181-3.548-10.885-6.987-17.989-10.624-12.068-6.189-24.542-12.584-30.105-21.95-4.614-7.764-6.361-23.229-7.763-35.654a125.67,125.67,0,0,0-1.747-12.494c-3.218-12.563-4.126-22.768-4.985-31.769-1.025-11.119-1.912-20.719-6.876-31.329-.784-1.671-1.472-3.438-2.194-5.26-3.019-7.688-6.141-15.637-16.84-18.9s-26.02-4.4-41.822-3.046c-22.521,1.932-47.736,3.562-74,4.814l10.878,33.062-25.292,43.232L1197.86,152.3l22.073.956-5,11.869,16.208,3.129,2.476,38.969,31.817,38.8c7.5-2.826,40.874-15.341,53.636-18.842,6.636-1.822,16.716-3.094,28.386-4.566,13.23-1.671,28.235-3.562,41.644-6.711a283.516,283.516,0,0,0,46.98-15.761Z" transform="translate(-573.831 -15.447)"/>
      <path id="Tracé_378" data-name="Tracé 378" class="cls-20" d="M1182.74,830.6c-11.044-5.9-41.375-16.655-56.215-27.664-10.366-7.688-18.005-19.866-28.837-28.943-31.194-26.131-60.01-60.478-76.1-76.384-11.216-11.085-23.98-33.942-42.478-55.479-26.624-31.006-58.482-60.705-58.482-60.705s-40.238-11.869-71.3-29.72c-20.218-11.621-31.29-29.569-42.862-35.407-26.782-13.478-84.271-41.8-113.354-48.912-12.408-3.033-30.646,2.414-49.665,3.486s-38.826-2.235-50.871,2.008c-14.045,4.958-34.962,28.152-45.239,39-17.813,18.78-48.486,60.712-63.285,81.954C461.306,626.461,367.67,766.5,367.67,766.5" transform="translate(-311.524 -156.441)"/>
      <path id="Tracé_379" data-name="Tracé 379" class="cls-21" d="M1000,534.84s12.185-.193,30.146,5.625c30.662,9.936,75.545,29.8,86.437,43.019,3.122,3.789,3.617,14.386,3.617,19.3" transform="translate(-510.892 -176.633)"/>
      <path id="Tracé_380" data-name="Tracé 380" class="cls-22" d="M315.944,457.144c1.556-15.938-8.629-35.122,1.22-49.855,8.56-12.8,20.06-14.684,35.282-27.561,18.313-15.486,24.878-33.643,29.2-46.608,4.743-14.219,18.189-37.259,34.679-67.484,12.734-23.342,29.813-46.2,43.177-72.347,5.058-9.883,10.863-24.54,21.931-36.478,5.832-6.3,14.6-14.137,23.727-17.63,7.265-2.781,25.283-11.609,46.44-27.766,10.6-8.089,20.382-20.013,33.24-30.006,45.693-35.478,50.216-38.355,57.186-42.56,12.809-7.671,7.155-10.061,45.425-12.157,62.367-3.425,113.18-4.109,137.695-5.068,55.514-2.157,52.621-.849,96.525-2.431,37.694-1.37,72.168-3.493,99.973-5.877,16.88-1.445,32.773-.123,43.8,3.24,15.584,4.76,17.764,18.006,21.814,26.623,9.506,20.212,5.038,36.163,12.254,64.382,2.056,8.164,2.92,36.985,9.129,47.423,8.19,13.767,35.865,21.815,47.612,31.773,6,5.089,14.16,17.684,24.172,45.444,4.723,13.082,15.393,34.3,18.553,53.2,1.72,10.274-.4,31.068-2.131,49.752s-3.078,36.917-2.838,40.129c.548,7.315,2.166,16.027,3.612,24.088.946,5.281,1.809,10.274,2.248,14.418,1.11,10.472-.5,15.479-.253,23.917,1.631,54.725-5.023,73.669-10.068,85.929-6.97,16.931-19.1,26.123-29.813,35.061-8.019,6.692-21.4,26.623-30.417,33.437-4.489,3.425-10.486,4.7-21.294,7.294-6,1.445-44.363,16.6-50.5,20.671-18.649,12.37-45.364,23.013-64.485,36.478-12.659,8.9-26.729,18.548-41.368,27.362-11.788,7.082-25.914,10.917-41.368,13.986-9.6,1.9-18.121-2.472-26.16-5.671-9.293-3.7-17.956-6.465-26.77-6.486-15.283,0-25.248,5.479-35.488,9.726-8.677,3.6-17.819,6.164-27.784,4.863-3.975-.521-11.692-1.664-11.692-1.664s-91.488-28.869-189.055-66.039c-31.753-12.1-70.592-26.445-100.583-39.725-13.467-5.966-24.4-8.527-35.693-12.972-1.6-.63-14.8-8.9-33.26-11.349-22.295-2.959-47.6,7.055-72.2,1.623-21.479-4.747-37.366-23.876-42.992-34.855C296.4,511.478,313.422,482.993,315.944,457.144Z" transform="translate(-291.716 -11.967)"/>
      <g id="Groupe_130" data-name="Groupe 130" class="cls-23" transform="translate(562.585 424.195)">
        <path id="Tracé_381" data-name="Tracé 381" d="M1129.73,644.689V640.9a5.57,5.57,0,1,1,11.14,0v3.789Z" transform="translate(-1114.086 -632.435)"/>
        <rect id="Rectangle_220" data-name="Rectangle 220" width="1.884" height="2.957" transform="translate(20.272 1.258)"/>
        <path id="Tracé_382" data-name="Tracé 382" d="M1136.46,632.385h1.884l-.942-1.265Z" transform="translate(-1116.188 -631.12)"/>
        <path id="Tracé_383" data-name="Tracé 383" d="M1110.66,654.355l18.683-12.515,18.683,12.515Z" transform="translate(-1108.129 -634.468)"/>
        <path id="Tracé_384" data-name="Tracé 384" d="M1161.07,660.289h2.7v-1.1l-2.7-1.7Z" transform="translate(-1123.875 -639.357)"/>
        <rect id="Rectangle_221" data-name="Rectangle 221" width="0.921" height="19.495" transform="translate(38.089 20.636)"/>
        <path id="Tracé_385" data-name="Tracé 385" d="M1129.57,660.289h2.7v-1.1l-2.7-1.7Z" transform="translate(-1114.036 -639.357)"/>
        <rect id="Rectangle_222" data-name="Rectangle 222" width="0.921" height="19.495" transform="translate(16.421 20.636)"/>
        <path id="Tracé_386" data-name="Tracé 386" d="M1135.87,660.289h2.7v-1.1l-2.7-1.7Z" transform="translate(-1116.003 -639.357)"/>
        <rect id="Rectangle_223" data-name="Rectangle 223" width="0.921" height="19.495" transform="translate(20.753 20.636)"/>
        <path id="Tracé_387" data-name="Tracé 387" d="M1142.17,660.289h2.7v-1.1l-2.7-1.7Z" transform="translate(-1117.972 -639.357)"/>
        <rect id="Rectangle_224" data-name="Rectangle 224" width="0.921" height="19.495" transform="translate(25.085 20.636)"/>
        <path id="Tracé_388" data-name="Tracé 388" d="M1148.47,660.289h2.7v-1.1l-2.7-1.7Z" transform="translate(-1119.939 -639.357)"/>
        <rect id="Rectangle_225" data-name="Rectangle 225" width="0.921" height="19.495" transform="translate(29.417 20.636)"/>
        <path id="Tracé_389" data-name="Tracé 389" d="M1154.77,660.289h2.7v-1.1l-2.7-1.7Z" transform="translate(-1121.907 -639.357)"/>
        <rect id="Rectangle_226" data-name="Rectangle 226" width="0.921" height="19.495" transform="translate(33.75 20.636)"/>
        <rect id="Rectangle_227" data-name="Rectangle 227" width="37.463" height="0.997" transform="translate(2.482 39.691)"/>
        <rect id="Rectangle_228" data-name="Rectangle 228" width="39.423" height="0.997" transform="translate(1.506 40.674)"/>
        <rect id="Rectangle_229" data-name="Rectangle 229" width="42.428" height="0.997" transform="translate(0 41.664)"/>
        <path id="Tracé_390" data-name="Tracé 390" d="M1113.362,660.289h-2.7v-1.1l2.7-1.7Z" transform="translate(-1108.129 -639.357)"/>
        <rect id="Rectangle_230" data-name="Rectangle 230" width="0.921" height="19.495" transform="translate(3.424 20.636)"/>
        <path id="Tracé_391" data-name="Tracé 391" d="M1116.969,660.289h2.7v-1.1l-2.7-1.7Z" transform="translate(-1110.1 -639.357)"/>
        <rect id="Rectangle_231" data-name="Rectangle 231" width="0.921" height="19.495" transform="translate(7.757 20.636)"/>
        <path id="Tracé_392" data-name="Tracé 392" d="M1123.27,660.289h2.7v-1.1l-2.7-1.7Z" transform="translate(-1112.068 -639.357)"/>
        <rect id="Rectangle_232" data-name="Rectangle 232" width="0.921" height="19.495" transform="translate(12.089 20.636)"/>
        <line id="Ligne_44" data-name="Ligne 44" class="cls-24" x2="11.05" transform="translate(15.692 7.791)"/>
        <line id="Ligne_45" data-name="Ligne 45" class="cls-24" x2="1.884" transform="translate(20.272 1.258)"/>
        <path id="Tracé_393" data-name="Tracé 393" class="cls-24" d="M1139.443,640.183s-.227-3.342-2.984-4.593c0,0-2.909,1.609-3.019,4.593" transform="translate(-1115.245 -632.516)"/>
        <line id="Ligne_46" data-name="Ligne 46" class="cls-24" x2="1.884" transform="translate(20.272 3.074)"/>
        <path id="Tracé_394" data-name="Tracé 394" class="cls-24" d="M1115.2,653.935h30.95l-15.389-9.565Z" transform="translate(-1109.548 -635.259)"/>
        <line id="Ligne_47" data-name="Ligne 47" class="cls-24" x2="37.367" transform="translate(2.531 19.832)"/>
      </g>
      <g id="Groupe_131" data-name="Groupe 131" class="cls-23" transform="translate(471.504 324.994)">
        <path id="Tracé_395" data-name="Tracé 395" d="M974.05,510.595l17.769-24.4,17.769,24.4Z" transform="translate(-974.05 -486.19)"/>
        <path id="Tracé_396" data-name="Tracé 396" class="cls-25" d="M997.91,489.1l1.369-1.939,1.375,1.939Z" transform="translate(-981.502 -486.493)"/>
        <path id="Tracé_397" data-name="Tracé 397" class="cls-25" d="M997.91,490.49l1.369,1.946,1.375-1.946Z" transform="translate(-981.502 -487.533)"/>
        <path id="Tracé_398" data-name="Tracé 398" class="cls-25" d="M997.91,496.039l1.369-1.939,1.375,1.939Z" transform="translate(-981.502 -488.661)"/>
        <path id="Tracé_399" data-name="Tracé 399" class="cls-25" d="M997.91,497.44l1.369,1.939,1.375-1.939Z" transform="translate(-981.502 -489.704)"/>
        <path id="Tracé_400" data-name="Tracé 400" class="cls-25" d="M997.91,502.986l1.369-1.946,1.375,1.946Z" transform="translate(-981.502 -490.828)"/>
        <path id="Tracé_401" data-name="Tracé 401" class="cls-25" d="M997.91,504.38l1.369,1.939,1.375-1.939Z" transform="translate(-981.502 -491.872)"/>
        <path id="Tracé_402" data-name="Tracé 402" class="cls-25" d="M997.91,509.929l1.369-1.939,1.375,1.939Z" transform="translate(-981.502 -492.999)"/>
        <path id="Tracé_403" data-name="Tracé 403" class="cls-25" d="M997.91,511.32l1.369,1.946,1.375-1.946Z" transform="translate(-981.502 -494.039)"/>
        <path id="Tracé_404" data-name="Tracé 404" class="cls-25" d="M997.91,516.869l1.369-1.939,1.375,1.939Z" transform="translate(-981.502 -495.167)"/>
        <path id="Tracé_405" data-name="Tracé 405" class="cls-25" d="M997.91,518.27l1.369,1.939,1.375-1.939Z" transform="translate(-981.502 -496.21)"/>
        <path id="Tracé_406" data-name="Tracé 406" class="cls-25" d="M1002.94,496.039l1.368-1.939,1.375,1.939Z" transform="translate(-983.074 -488.661)"/>
        <path id="Tracé_407" data-name="Tracé 407" class="cls-25" d="M1002.94,497.44l1.368,1.939,1.375-1.939Z" transform="translate(-983.074 -489.704)"/>
        <path id="Tracé_408" data-name="Tracé 408" class="cls-25" d="M1002.94,502.986l1.368-1.946,1.375,1.946Z" transform="translate(-983.074 -490.828)"/>
        <path id="Tracé_409" data-name="Tracé 409" class="cls-25" d="M1002.94,504.38l1.368,1.939,1.375-1.939Z" transform="translate(-983.074 -491.872)"/>
        <path id="Tracé_410" data-name="Tracé 410" class="cls-25" d="M1002.94,509.929l1.368-1.939,1.375,1.939Z" transform="translate(-983.074 -492.999)"/>
        <path id="Tracé_411" data-name="Tracé 411" class="cls-25" d="M1002.94,511.32l1.368,1.946,1.375-1.946Z" transform="translate(-983.074 -494.039)"/>
        <path id="Tracé_412" data-name="Tracé 412" class="cls-25" d="M1002.94,516.869l1.368-1.939,1.375,1.939Z" transform="translate(-983.074 -495.167)"/>
        <path id="Tracé_413" data-name="Tracé 413" class="cls-25" d="M1002.94,518.27l1.368,1.939,1.375-1.939Z" transform="translate(-983.074 -496.21)"/>
        <path id="Tracé_414" data-name="Tracé 414" class="cls-25" d="M992.88,496.039l1.375-1.939,1.369,1.939Z" transform="translate(-979.931 -488.661)"/>
        <path id="Tracé_415" data-name="Tracé 415" class="cls-25" d="M992.88,497.44l1.375,1.939,1.369-1.939Z" transform="translate(-979.931 -489.704)"/>
        <path id="Tracé_416" data-name="Tracé 416" class="cls-25" d="M992.88,502.986l1.375-1.946,1.369,1.946Z" transform="translate(-979.931 -490.828)"/>
        <path id="Tracé_417" data-name="Tracé 417" class="cls-25" d="M992.88,504.38l1.375,1.939,1.369-1.939Z" transform="translate(-979.931 -491.872)"/>
        <path id="Tracé_418" data-name="Tracé 418" class="cls-25" d="M992.88,509.929l1.375-1.939,1.369,1.939Z" transform="translate(-979.931 -492.999)"/>
        <path id="Tracé_419" data-name="Tracé 419" class="cls-25" d="M992.88,511.32l1.375,1.946,1.369-1.946Z" transform="translate(-979.931 -494.039)"/>
        <path id="Tracé_420" data-name="Tracé 420" class="cls-25" d="M992.88,516.869l1.375-1.939,1.369,1.939Z" transform="translate(-979.931 -495.167)"/>
        <path id="Tracé_421" data-name="Tracé 421" class="cls-25" d="M992.88,518.26l1.375,1.946,1.369-1.946Z" transform="translate(-979.931 -496.207)"/>
        <path id="Tracé_422" data-name="Tracé 422" class="cls-25" d="M995.31,492.606l1.368-1.946,1.375,1.946Z" transform="translate(-980.691 -487.586)"/>
        <path id="Tracé_423" data-name="Tracé 423" class="cls-25" d="M995.31,494l1.368,1.939L998.054,494Z" transform="translate(-980.691 -488.629)"/>
        <path id="Tracé_424" data-name="Tracé 424" class="cls-25" d="M995.31,499.546l1.368-1.946,1.375,1.946Z" transform="translate(-980.691 -489.754)"/>
        <path id="Tracé_425" data-name="Tracé 425" class="cls-25" d="M995.31,500.94l1.368,1.946,1.375-1.946Z" transform="translate(-980.691 -490.797)"/>
        <path id="Tracé_426" data-name="Tracé 426" class="cls-25" d="M995.31,506.489l1.368-1.939,1.375,1.939Z" transform="translate(-980.691 -491.925)"/>
        <path id="Tracé_427" data-name="Tracé 427" class="cls-25" d="M995.31,507.88l1.368,1.946,1.375-1.946Z" transform="translate(-980.691 -492.965)"/>
        <path id="Tracé_428" data-name="Tracé 428" class="cls-25" d="M995.31,513.436l1.368-1.946,1.375,1.946Z" transform="translate(-980.691 -494.092)"/>
        <path id="Tracé_429" data-name="Tracé 429" class="cls-25" d="M995.31,514.83l1.368,1.939,1.375-1.939Z" transform="translate(-980.691 -495.136)"/>
        <path id="Tracé_430" data-name="Tracé 430" class="cls-25" d="M995.31,520.376l1.368-1.946,1.375,1.946Z" transform="translate(-980.691 -496.26)"/>
        <path id="Tracé_431" data-name="Tracé 431" class="cls-25" d="M1000.46,492.606l1.368-1.946,1.375,1.946Z" transform="translate(-982.299 -487.586)"/>
        <path id="Tracé_432" data-name="Tracé 432" class="cls-25" d="M1000.46,494l1.368,1.939L1003.2,494Z" transform="translate(-982.299 -488.629)"/>
        <path id="Tracé_433" data-name="Tracé 433" class="cls-25" d="M1000.46,499.546l1.368-1.946,1.375,1.946Z" transform="translate(-982.299 -489.754)"/>
        <path id="Tracé_434" data-name="Tracé 434" class="cls-25" d="M1000.46,500.94l1.368,1.946,1.375-1.946Z" transform="translate(-982.299 -490.797)"/>
        <path id="Tracé_435" data-name="Tracé 435" class="cls-25" d="M1000.46,506.489l1.368-1.939,1.375,1.939Z" transform="translate(-982.299 -491.925)"/>
        <path id="Tracé_436" data-name="Tracé 436" class="cls-25" d="M1000.46,507.88l1.368,1.946,1.375-1.946Z" transform="translate(-982.299 -492.965)"/>
        <path id="Tracé_437" data-name="Tracé 437" class="cls-25" d="M1000.46,513.436l1.368-1.946,1.375,1.946Z" transform="translate(-982.299 -494.092)"/>
        <path id="Tracé_438" data-name="Tracé 438" class="cls-25" d="M1000.46,514.83l1.368,1.939,1.375-1.939Z" transform="translate(-982.299 -495.136)"/>
        <path id="Tracé_439" data-name="Tracé 439" class="cls-25" d="M1000.46,520.376l1.368-1.946,1.375,1.946Z" transform="translate(-982.299 -496.26)"/>
        <path id="Tracé_440" data-name="Tracé 440" class="cls-25" d="M985.37,506.489l1.375-1.939,1.368,1.939Z" transform="translate(-977.586 -491.925)"/>
        <path id="Tracé_441" data-name="Tracé 441" class="cls-25" d="M985.37,507.88l1.375,1.946,1.368-1.946Z" transform="translate(-977.586 -492.965)"/>
        <path id="Tracé_442" data-name="Tracé 442" class="cls-25" d="M985.37,513.429l1.375-1.939,1.368,1.939Z" transform="translate(-977.586 -494.092)"/>
        <path id="Tracé_443" data-name="Tracé 443" class="cls-25" d="M985.37,514.83l1.375,1.939,1.368-1.939Z" transform="translate(-977.586 -495.136)"/>
        <path id="Tracé_444" data-name="Tracé 444" class="cls-25" d="M985.37,520.376l1.375-1.946,1.368,1.946Z" transform="translate(-977.586 -496.26)"/>
        <path id="Tracé_445" data-name="Tracé 445" class="cls-25" d="M990.4,499.546l1.368-1.946,1.375,1.946Z" transform="translate(-979.157 -489.754)"/>
        <path id="Tracé_446" data-name="Tracé 446" class="cls-25" d="M990.4,500.94l1.368,1.946,1.375-1.946Z" transform="translate(-979.157 -490.797)"/>
        <path id="Tracé_447" data-name="Tracé 447" class="cls-25" d="M990.4,506.489l1.368-1.939,1.375,1.939Z" transform="translate(-979.157 -491.925)"/>
        <path id="Tracé_448" data-name="Tracé 448" class="cls-25" d="M990.4,507.88l1.368,1.946,1.375-1.946Z" transform="translate(-979.157 -492.965)"/>
        <path id="Tracé_449" data-name="Tracé 449" class="cls-25" d="M990.4,513.436l1.368-1.946,1.375,1.946Z" transform="translate(-979.157 -494.092)"/>
        <path id="Tracé_450" data-name="Tracé 450" class="cls-25" d="M990.4,514.83l1.368,1.939,1.375-1.939Z" transform="translate(-979.157 -495.136)"/>
        <path id="Tracé_451" data-name="Tracé 451" class="cls-25" d="M990.4,520.376l1.368-1.946,1.375,1.946Z" transform="translate(-979.157 -496.26)"/>
        <path id="Tracé_452" data-name="Tracé 452" class="cls-25" d="M977.96,516.856l1.368-1.946,1.375,1.946Z" transform="translate(-975.271 -495.161)"/>
        <path id="Tracé_453" data-name="Tracé 453" class="cls-25" d="M975.41,520.409l1.368-1.939,1.375,1.939Z" transform="translate(-974.475 -496.273)"/>
        <path id="Tracé_454" data-name="Tracé 454" class="cls-25" d="M977.96,518.25l1.368,1.946,1.375-1.946Z" transform="translate(-975.271 -496.204)"/>
        <path id="Tracé_455" data-name="Tracé 455" class="cls-25" d="M980.34,513.429l1.375-1.939,1.368,1.939Z" transform="translate(-976.015 -494.092)"/>
        <path id="Tracé_456" data-name="Tracé 456" class="cls-25" d="M980.34,514.83l1.375,1.939,1.368-1.939Z" transform="translate(-976.015 -495.136)"/>
        <path id="Tracé_457" data-name="Tracé 457" class="cls-25" d="M980.34,520.376l1.375-1.946,1.368,1.946Z" transform="translate(-976.015 -496.26)"/>
        <path id="Tracé_458" data-name="Tracé 458" class="cls-25" d="M982.77,510l1.369-1.946L985.513,510Z" transform="translate(-976.773 -493.018)"/>
        <path id="Tracé_459" data-name="Tracé 459" class="cls-25" d="M982.77,511.39l1.369,1.939,1.375-1.939Z" transform="translate(-976.773 -494.061)"/>
        <path id="Tracé_460" data-name="Tracé 460" class="cls-25" d="M982.77,516.936l1.369-1.946,1.375,1.946Z" transform="translate(-976.773 -495.186)"/>
        <path id="Tracé_461" data-name="Tracé 461" class="cls-25" d="M982.77,518.33l1.369,1.946,1.375-1.946Z" transform="translate(-976.773 -496.229)"/>
        <path id="Tracé_462" data-name="Tracé 462" class="cls-25" d="M987.91,503.049l1.375-1.939,1.368,1.939Z" transform="translate(-978.379 -490.85)"/>
        <path id="Tracé_463" data-name="Tracé 463" class="cls-25" d="M987.91,504.44l1.375,1.946,1.368-1.946Z" transform="translate(-978.379 -491.89)"/>
        <path id="Tracé_464" data-name="Tracé 464" class="cls-25" d="M987.91,510l1.375-1.946L990.654,510Z" transform="translate(-978.379 -493.018)"/>
        <path id="Tracé_465" data-name="Tracé 465" class="cls-25" d="M987.91,511.39l1.375,1.939,1.368-1.939Z" transform="translate(-978.379 -494.061)"/>
        <path id="Tracé_466" data-name="Tracé 466" class="cls-25" d="M987.91,516.936l1.375-1.946,1.368,1.946Z" transform="translate(-978.379 -495.186)"/>
        <path id="Tracé_467" data-name="Tracé 467" class="cls-25" d="M987.91,518.33l1.375,1.946,1.368-1.946Z" transform="translate(-978.379 -496.229)"/>
        <path id="Tracé_468" data-name="Tracé 468" class="cls-25" d="M1013.154,506.519l-1.369-1.939-1.375,1.939Z" transform="translate(-985.407 -491.934)"/>
        <path id="Tracé_469" data-name="Tracé 469" class="cls-25" d="M1013.154,507.92l-1.369,1.939-1.375-1.939Z" transform="translate(-985.407 -492.977)"/>
        <path id="Tracé_470" data-name="Tracé 470" class="cls-25" d="M1013.154,513.466l-1.369-1.946-1.375,1.946Z" transform="translate(-985.407 -494.102)"/>
        <path id="Tracé_471" data-name="Tracé 471" class="cls-25" d="M1013.154,514.86l-1.369,1.939-1.375-1.939Z" transform="translate(-985.407 -495.145)"/>
        <path id="Tracé_472" data-name="Tracé 472" class="cls-25" d="M1013.154,520.409l-1.369-1.939-1.375,1.939Z" transform="translate(-985.407 -496.273)"/>
        <path id="Tracé_473" data-name="Tracé 473" class="cls-25" d="M1008.133,499.579l-1.375-1.939-1.368,1.939Z" transform="translate(-983.839 -489.766)"/>
        <path id="Tracé_474" data-name="Tracé 474" class="cls-25" d="M1008.133,500.97l-1.375,1.946-1.368-1.946Z" transform="translate(-983.839 -490.806)"/>
        <path id="Tracé_475" data-name="Tracé 475" class="cls-25" d="M1008.133,506.519l-1.375-1.939-1.368,1.939Z" transform="translate(-983.839 -491.934)"/>
        <path id="Tracé_476" data-name="Tracé 476" class="cls-25" d="M1008.133,507.92l-1.375,1.939-1.368-1.939Z" transform="translate(-983.839 -492.977)"/>
        <path id="Tracé_477" data-name="Tracé 477" class="cls-25" d="M1008.133,513.466l-1.375-1.946-1.368,1.946Z" transform="translate(-983.839 -494.102)"/>
        <path id="Tracé_478" data-name="Tracé 478" class="cls-25" d="M1008.133,514.86l-1.375,1.939-1.368-1.939Z" transform="translate(-983.839 -495.145)"/>
        <path id="Tracé_479" data-name="Tracé 479" class="cls-25" d="M1008.133,520.409l-1.375-1.939-1.368,1.939Z" transform="translate(-983.839 -496.273)"/>
        <path id="Tracé_480" data-name="Tracé 480" class="cls-25" d="M1020.714,517.109l-1.375-1.939-1.369,1.939Z" transform="translate(-987.768 -495.242)"/>
        <path id="Tracé_481" data-name="Tracé 481" class="cls-25" d="M1023.114,520.409l-1.369-1.939-1.375,1.939Z" transform="translate(-988.518 -496.273)"/>
        <path id="Tracé_482" data-name="Tracé 482" class="cls-25" d="M1020.714,518.5l-1.375,1.946-1.369-1.946Z" transform="translate(-987.768 -496.282)"/>
        <path id="Tracé_483" data-name="Tracé 483" class="cls-25" d="M1018.183,513.466l-1.368-1.946-1.375,1.946Z" transform="translate(-986.978 -494.102)"/>
        <path id="Tracé_484" data-name="Tracé 484" class="cls-25" d="M1018.183,514.86l-1.368,1.939-1.375-1.939Z" transform="translate(-986.978 -495.145)"/>
        <path id="Tracé_485" data-name="Tracé 485" class="cls-25" d="M1018.183,520.409l-1.368-1.939-1.375,1.939Z" transform="translate(-986.978 -496.273)"/>
        <path id="Tracé_486" data-name="Tracé 486" class="cls-25" d="M1015.757,510.026l-1.368-1.946-1.368,1.946Z" transform="translate(-986.222 -493.027)"/>
        <path id="Tracé_487" data-name="Tracé 487" class="cls-25" d="M1015.757,511.42l-1.368,1.946-1.368-1.946Z" transform="translate(-986.222 -494.071)"/>
        <path id="Tracé_488" data-name="Tracé 488" class="cls-25" d="M1015.757,516.969l-1.368-1.939-1.368,1.939Z" transform="translate(-986.222 -495.198)"/>
        <path id="Tracé_489" data-name="Tracé 489" class="cls-25" d="M1015.757,518.36l-1.368,1.946-1.368-1.946Z" transform="translate(-986.222 -496.238)"/>
        <path id="Tracé_490" data-name="Tracé 490" class="cls-25" d="M1010.613,503.079l-1.375-1.939-1.368,1.939Z" transform="translate(-984.614 -490.86)"/>
        <path id="Tracé_491" data-name="Tracé 491" class="cls-25" d="M1010.613,504.48l-1.375,1.939-1.368-1.939Z" transform="translate(-984.614 -491.903)"/>
        <path id="Tracé_492" data-name="Tracé 492" class="cls-25" d="M1010.613,510.026l-1.375-1.946-1.368,1.946Z" transform="translate(-984.614 -493.027)"/>
        <path id="Tracé_493" data-name="Tracé 493" class="cls-25" d="M1010.613,511.42l-1.375,1.946-1.368-1.946Z" transform="translate(-984.614 -494.071)"/>
        <path id="Tracé_494" data-name="Tracé 494" class="cls-25" d="M1010.613,516.969l-1.375-1.939-1.368,1.939Z" transform="translate(-984.614 -495.198)"/>
        <path id="Tracé_495" data-name="Tracé 495" class="cls-25" d="M1010.613,518.36l-1.375,1.946-1.368-1.946Z" transform="translate(-984.614 -496.238)"/>
      </g>
      <g id="Groupe_132" data-name="Groupe 132" class="cls-23" transform="translate(219.809 165.035)">
        <rect id="Rectangle_233" data-name="Rectangle 233" width="41.554" height="6.333" transform="translate(0.887 2.283)"/>
        <rect id="Rectangle_234" data-name="Rectangle 234" width="1.623" height="1.974" transform="translate(0.887)"/>
        <rect id="Rectangle_235" data-name="Rectangle 235" width="1.623" height="1.974" transform="translate(40.819)"/>
        <rect id="Rectangle_236" data-name="Rectangle 236" width="1.623" height="1.974" transform="translate(4.215)"/>
        <rect id="Rectangle_237" data-name="Rectangle 237" width="1.623" height="1.974" transform="translate(7.543)"/>
        <rect id="Rectangle_238" data-name="Rectangle 238" width="1.623" height="1.974" transform="translate(10.872)"/>
        <rect id="Rectangle_239" data-name="Rectangle 239" width="1.623" height="1.974" transform="translate(14.193)"/>
        <rect id="Rectangle_240" data-name="Rectangle 240" width="1.623" height="1.974" transform="translate(17.521)"/>
        <rect id="Rectangle_241" data-name="Rectangle 241" width="1.623" height="1.974" transform="translate(20.849)"/>
        <rect id="Rectangle_242" data-name="Rectangle 242" width="1.623" height="1.974" transform="translate(24.178)"/>
        <rect id="Rectangle_243" data-name="Rectangle 243" width="1.623" height="1.974" transform="translate(27.506)"/>
        <rect id="Rectangle_244" data-name="Rectangle 244" width="1.623" height="1.974" transform="translate(30.834)"/>
        <rect id="Rectangle_245" data-name="Rectangle 245" width="1.623" height="1.974" transform="translate(34.162)"/>
        <rect id="Rectangle_246" data-name="Rectangle 246" width="1.623" height="1.974" transform="translate(37.49)"/>
        <rect id="Rectangle_247" data-name="Rectangle 247" width="11.607" height="35.386" transform="translate(30.834 8.417)"/>
        <rect id="Rectangle_248" data-name="Rectangle 248" width="11.607" height="35.386" transform="translate(0.887 8.417)"/>
        <path id="Tracé_496" data-name="Tracé 496" d="M643.395,300.266H624.65V264.88H643.4ZM634.023,269.6a6.361,6.361,0,0,0-6.381,6.361,5.873,5.873,0,0,0,.041.722v23.579h12.625V276.652a5.933,5.933,0,0,0,.041-.722A6.361,6.361,0,0,0,634.023,269.6Z" transform="translate(-612.362 -256.463)"/>
        <path id="Tracé_497" data-name="Tracé 497" d="M607.667,263.589l-.887-1.389H650.1l-.77,1.389Z" transform="translate(-606.78 -255.626)"/>
        <path id="Tracé_498" data-name="Tracé 498" d="M646.844,287.6l-.364-1.389h15.837l-.282,1.389Z" transform="translate(-619.18 -263.126)"/>
        <path id="Tracé_499" data-name="Tracé 499" d="M607.3,287.6l-.365-1.389h15.836l-.282,1.389Z" transform="translate(-606.83 -263.126)"/>
        <path id="Tracé_500" data-name="Tracé 500" d="M607.667,256.349l-.887-1.389H650.1l-.77,1.389Z" transform="translate(-606.78 -253.365)"/>
        <rect id="Rectangle_249" data-name="Rectangle 249" class="cls-24" width="7.605" height="6.196" transform="translate(4.332 13.547)"/>
        <rect id="Rectangle_250" data-name="Rectangle 250" class="cls-24" width="7.605" height="6.196" transform="translate(31.852 13.547)"/>
        <rect id="Rectangle_251" data-name="Rectangle 251" class="cls-24" width="7.605" height="13.141" transform="translate(31.852 26.784)"/>
        <rect id="Rectangle_252" data-name="Rectangle 252" class="cls-24" width="7.605" height="13.141" transform="translate(4.332 26.784)"/>
        <line id="Ligne_48" data-name="Ligne 48" class="cls-24" x2="41.664" transform="translate(0.887 7.963)"/>
        <line id="Ligne_49" data-name="Ligne 49" class="cls-24" x2="41.664" transform="translate(0.887 2.984)"/>
        <line id="Ligne_50" data-name="Ligne 50" class="cls-24" x2="15.19" transform="translate(0.474 24.473)"/>
        <line id="Ligne_51" data-name="Ligne 51" class="cls-24" x2="15.19" transform="translate(27.664 24.473)"/>
        <path id="Tracé_501" data-name="Tracé 501" class="cls-24" d="M638.93,268.67s5.79-.6,6.464,4.5v-4.5Z" transform="translate(-616.822 -257.64)"/>
        <path id="Tracé_502" data-name="Tracé 502" class="cls-24" d="M634.674,268.67s-5.79-.6-6.464,4.5v-4.5Z" transform="translate(-613.474 -257.64)"/>
      </g>
      <path id="Tracé_503" data-name="Tracé 503" class="cls-26" d="M1058.6,144.719h15.754V130.967h-7.606v-7.117h-1.094c-.124-4.814-2.407-8.8-5.446-9.854v-7.152H1058.6Zm0-38.543v-2.586h0c.9,0,1.63,1.086,1.63,2.434v.158Zm0-3.177v-1.918h.185v.55h.543v.323h-.543v1.052Zm-40.365,41.719H1058.6V106.837h-1.588v7.172c-2.792.956-4.944,4.373-5.391,8.637v-8.527h1.307v-1.987h-1.458c-.226-8.939-4.462-16.3-10.1-18.243V80.665h-5.907V93.889c-5.631,1.946-9.875,9.324-10.1,18.243H1023.9v1.987h1.307v8.506c-.448-4.263-2.6-7.688-5.392-8.637v-7.152h-1.588v37.876Zm40.365-43.638v1.925h-.158v-1.031h-.543v-.344h.543v-.585Zm0,2.51v2.586h-1.63v-.158c0-1.375.729-2.434,1.63-2.434Zm-40.365,2.586v-2.586c.9,0,1.63,1.086,1.63,2.434v.158Zm0-3.177v-1.919h.158v.55h.543v.323h-.543v1.052Zm18.855-31.92v.591h1.011v1.884h.64V71.671h1.011V71.08h-1.011V70h-.64v1.08Zm1.328,3.569c-1.665,0-3.019,2.015-3.019,4.5v.289h6.017v-.289c.021-2.489-1.334-4.5-3-4.5Zm-35.937,70.071h15.754V106.837h-1.609v7.172c-3.039,1.059-5.322,5.04-5.446,9.854h-1.093v7.09h-7.605v13.753Zm15.754-43.638v1.925h-.186v-1.031h-.543v-.344h.543v-.585Zm0,2.51v2.586h-1.643v-.158c0-1.375.729-2.434,1.63-2.434Z" transform="translate(-511.566 -29.855)"/>
      <g id="Groupe_133" data-name="Groupe 133" class="cls-23" transform="translate(531.197 350)">
        <path id="Tracé_504" data-name="Tracé 504" d="M1094.037,570.131H1062.9V542.44h31.137Zm-15.562-12.178s-3.342,2.063-3.342,3.363a1.415,1.415,0,0,0,0,.261v8.541h6.643v-8.527a1.506,1.506,0,0,0,0-.261C1081.817,560.057,1078.475,557.953,1078.475,557.953Zm9.764,2.847s-2.565,1.6-2.565,2.579a1.235,1.235,0,0,0,0,.2v6.547h5.089v-6.547a1.156,1.156,0,0,0,0-.2c.034-.97-2.531-2.572-2.531-2.572Zm-19.529,0s-2.565,1.6-2.565,2.579a1.182,1.182,0,0,0,0,.2v6.547h5.089v-6.547a1.132,1.132,0,0,0,0-.2c.034-.97-2.53-2.572-2.53-2.572Z" transform="translate(-1061.696 -528.907)"/>
        <path id="Tracé_505" data-name="Tracé 505" d="M1103.981,551.29H1095V522.76h9.008Zm-2.792-26.083a9.5,9.5,0,0,0-.626,2.579c0,.069,0,.138,0,.2v6.546h1.245v-6.746a9.51,9.51,0,0,0-.619-2.579Zm-3.438,0a9.5,9.5,0,0,0-.625,2.579c0,.069,0,.138,0,.2v6.546h1.244v-6.746A9.523,9.523,0,0,0,1097.75,525.208Z" transform="translate(-1071.723 -522.76)"/>
        <path id="Tracé_506" data-name="Tracé 506" d="M1071.908,551.29H1062.9V522.76h9.008Zm-2.8-26.083a9.48,9.48,0,0,0-.626,2.579v6.746h1.245v-6.746a9.521,9.521,0,0,0-.646-2.579Zm-3.438,0a9.512,9.512,0,0,0-.626,2.579v6.746h1.245v-6.746a9.527,9.527,0,0,0-.619-2.579Z" transform="translate(-1061.696 -522.76)"/>
        <path id="Tracé_507" data-name="Tracé 507" d="M1061.83,542.774l-.681-1.224h33.385l-.591,1.224Z" transform="translate(-1061.15 -528.629)"/>
        <path id="Tracé_508" data-name="Tracé 508" d="M1061.83,563.754l-.681-1.224h33.385l-.591,1.224Z" transform="translate(-1061.15 -535.182)"/>
        <rect id="Rectangle_253" data-name="Rectangle 253" class="cls-25" width="0.495" height="6.732" transform="translate(10.583 14.269)"/>
        <rect id="Rectangle_254" data-name="Rectangle 254" class="cls-25" width="0.495" height="6.732" transform="translate(12.309 14.269)"/>
        <rect id="Rectangle_255" data-name="Rectangle 255" class="cls-25" width="0.495" height="6.732" transform="translate(14.035 14.269)"/>
        <rect id="Rectangle_256" data-name="Rectangle 256" class="cls-25" width="0.488" height="6.732" transform="translate(15.754 14.269)"/>
        <rect id="Rectangle_257" data-name="Rectangle 257" class="cls-25" width="0.495" height="6.732" transform="translate(17.48 14.269)"/>
        <rect id="Rectangle_258" data-name="Rectangle 258" class="cls-25" width="0.488" height="6.732" transform="translate(19.206 14.269)"/>
        <rect id="Rectangle_259" data-name="Rectangle 259" class="cls-25" width="0.488" height="6.732" transform="translate(20.925 14.269)"/>
        <rect id="Rectangle_260" data-name="Rectangle 260" class="cls-25" width="0.488" height="6.732" transform="translate(22.651 14.269)"/>
        <circle id="Ellipse_22" data-name="Ellipse 22" class="cls-25" cx="3.17" cy="3.17" r="3.17" transform="translate(13.608 22.19)"/>
        <path id="Tracé_509" data-name="Tracé 509" d="M1085.363,560.47l-.413,2.029h.791Z" transform="translate(-1068.584 -534.539)"/>
        <path id="Tracé_510" data-name="Tracé 510" d="M1085.355,557.841l.406-2.022h-.791Z" transform="translate(-1068.59 -533.086)"/>
        <path id="Tracé_511" data-name="Tracé 511" d="M1086.28,559.465l2.021.406v-.791Z" transform="translate(-1068.999 -534.105)"/>
        <path id="Tracé_512" data-name="Tracé 512" d="M1083.651,559.466l-2.022-.406v.791Z" transform="translate(-1067.547 -534.098)"/>
        <path id="Tracé_513" data-name="Tracé 513" d="M1086.1,558.3l1.747-1.093-.536-.577Z" transform="translate(-1068.943 -533.34)"/>
        <path id="Tracé_514" data-name="Tracé 514" d="M1084.076,560.25l-1.746,1.094.536.578Z" transform="translate(-1067.765 -534.47)"/>
        <path id="Tracé_515" data-name="Tracé 515" d="M1086.16,560.22l1.224,1.671.53-.585Z" transform="translate(-1068.962 -534.461)"/>
        <path id="Tracé_516" data-name="Tracé 516" d="M1084.1,558.324l-1.217-1.664-.53.578Z" transform="translate(-1067.772 -533.349)"/>
        <circle id="Ellipse_23" data-name="Ellipse 23" cx="0.358" cy="0.358" r="0.358" transform="translate(16.414 25.003)"/>
      </g>
      <g id="Groupe_134" data-name="Groupe 134" class="cls-23" transform="translate(277.714 317.902)">
        <path id="Tracé_517" data-name="Tracé 517" d="M691.28,553.663l9.345-15.259v-4.772h2.806l3.6-11.442-.536-3.081,2.139-.935s3.741-31.364,2.936-31.9l-.8-.8.131-2.668.777-.8v-.688l.687-.688V476h.949v4.669l.688.688v.688l.777.8.131,2.668-.8.8c-.8.536,2.936,31.9,2.936,31.9l2.132.935-.536,3.081,3.6,11.442h2.806v4.772l9.359,15.224ZM707.5,533.3H718.18a62.127,62.127,0,0,1-3.335-11.477h-4.408s-1.2,7.736-2.929,11.477Zm-9.675,20.361h30.029s-2.5-12.116-14.8-12.378S697.826,553.663,697.826,553.663Z" transform="translate(-691.28 -476)"/>
        <line id="Ligne_52" data-name="Ligne 52" class="cls-24" x1="24.439" transform="translate(9.345 59.021)"/>
        <line id="Ligne_53" data-name="Ligne 53" class="cls-24" x1="24.439" transform="translate(9.345 61.489)"/>
        <line id="Ligne_54" data-name="Ligne 54" class="cls-24" x2="8.424" transform="translate(17.356 42.18)"/>
        <path id="Tracé_518" data-name="Tracé 518" class="cls-24" d="M739.076,582.68s-3.61-13.657-15.816-13.657l10.232-.124Z" transform="translate(-701.269 -505.018)"/>
        <path id="Tracé_519" data-name="Tracé 519" class="cls-24" d="M698.73,582.67s3.61-13.656,15.816-13.656l-10.232-.124Z" transform="translate(-693.607 -505.014)"/>
        <line id="Ligne_55" data-name="Ligne 55" class="cls-24" y2="31.9" transform="translate(21.565 10.28)"/>
        <line id="Ligne_56" data-name="Ligne 56" class="cls-24" x2="2.551" transform="translate(20.292 10.28)"/>
      </g>
      <g id="Groupe_135" data-name="Groupe 135" class="cls-23" transform="translate(335.861 437.965)">
        <path id="Tracé_520" data-name="Tracé 520" d="M776.08,716.986h16.05L792.1,651.33H776.08Z" transform="translate(-776.08 -651.33)"/>
        <rect id="Rectangle_261" data-name="Rectangle 261" class="cls-25" width="2.861" height="2.861" transform="translate(11.539 3.438)"/>
        <rect id="Rectangle_262" data-name="Rectangle 262" class="cls-25" width="2.861" height="2.861" transform="translate(6.594 3.438)"/>
        <rect id="Rectangle_263" data-name="Rectangle 263" class="cls-25" width="2.861" height="2.861" transform="translate(1.65 3.438)"/>
        <rect id="Rectangle_264" data-name="Rectangle 264" class="cls-25" width="2.861" height="2.861" transform="translate(11.539 8.857)"/>
        <rect id="Rectangle_265" data-name="Rectangle 265" class="cls-25" width="2.861" height="2.861" transform="translate(6.594 8.857)"/>
        <rect id="Rectangle_266" data-name="Rectangle 266" class="cls-25" width="2.861" height="2.861" transform="translate(1.65 8.857)"/>
        <rect id="Rectangle_267" data-name="Rectangle 267" class="cls-25" width="2.861" height="2.861" transform="translate(11.539 14.276)"/>
        <rect id="Rectangle_268" data-name="Rectangle 268" class="cls-25" width="2.861" height="2.861" transform="translate(6.594 14.276)"/>
        <rect id="Rectangle_269" data-name="Rectangle 269" class="cls-25" width="2.861" height="2.861" transform="translate(1.65 14.276)"/>
        <rect id="Rectangle_270" data-name="Rectangle 270" class="cls-25" width="2.861" height="2.861" transform="translate(11.539 19.701)"/>
        <rect id="Rectangle_271" data-name="Rectangle 271" class="cls-25" width="2.861" height="2.861" transform="translate(6.594 19.701)"/>
        <rect id="Rectangle_272" data-name="Rectangle 272" class="cls-25" width="2.861" height="2.861" transform="translate(1.65 19.701)"/>
        <rect id="Rectangle_273" data-name="Rectangle 273" class="cls-25" width="2.861" height="2.861" transform="translate(11.539 25.12)"/>
        <rect id="Rectangle_274" data-name="Rectangle 274" class="cls-25" width="2.861" height="2.861" transform="translate(6.594 25.12)"/>
        <rect id="Rectangle_275" data-name="Rectangle 275" class="cls-25" width="2.861" height="2.861" transform="translate(1.65 25.12)"/>
        <rect id="Rectangle_276" data-name="Rectangle 276" class="cls-25" width="2.861" height="2.861" transform="translate(11.539 30.538)"/>
        <rect id="Rectangle_277" data-name="Rectangle 277" class="cls-25" width="2.861" height="2.861" transform="translate(6.594 30.538)"/>
        <rect id="Rectangle_278" data-name="Rectangle 278" class="cls-25" width="2.861" height="2.861" transform="translate(1.65 30.538)"/>
        <rect id="Rectangle_279" data-name="Rectangle 279" class="cls-25" width="2.861" height="2.861" transform="translate(11.539 35.964)"/>
        <rect id="Rectangle_280" data-name="Rectangle 280" class="cls-25" width="2.861" height="2.861" transform="translate(6.594 35.964)"/>
        <rect id="Rectangle_281" data-name="Rectangle 281" class="cls-25" width="2.861" height="2.861" transform="translate(1.65 35.964)"/>
        <rect id="Rectangle_282" data-name="Rectangle 282" class="cls-25" width="2.861" height="2.861" transform="translate(11.539 41.382)"/>
        <rect id="Rectangle_283" data-name="Rectangle 283" class="cls-25" width="2.861" height="2.861" transform="translate(6.594 41.382)"/>
        <rect id="Rectangle_284" data-name="Rectangle 284" class="cls-25" width="2.861" height="2.861" transform="translate(1.65 41.382)"/>
        <rect id="Rectangle_285" data-name="Rectangle 285" class="cls-25" width="2.861" height="2.861" transform="translate(11.539 46.801)"/>
        <rect id="Rectangle_286" data-name="Rectangle 286" class="cls-25" width="2.861" height="2.861" transform="translate(6.594 46.801)"/>
        <rect id="Rectangle_287" data-name="Rectangle 287" class="cls-25" width="2.861" height="2.861" transform="translate(1.65 46.801)"/>
        <rect id="Rectangle_288" data-name="Rectangle 288" class="cls-25" width="2.861" height="2.861" transform="translate(11.539 52.227)"/>
        <rect id="Rectangle_289" data-name="Rectangle 289" class="cls-25" width="2.861" height="2.861" transform="translate(6.594 52.227)"/>
        <rect id="Rectangle_290" data-name="Rectangle 290" class="cls-25" width="2.861" height="2.861" transform="translate(1.65 52.227)"/>
        <rect id="Rectangle_291" data-name="Rectangle 291" class="cls-25" width="2.861" height="7.64" transform="translate(6.594 57.673)"/>
      </g>
      <path id="Tracé_521" data-name="Tracé 521" d="M287.051,213.063a1.031,1.031,0,1,0-1.031-1.031A1.031,1.031,0,0,0,287.051,213.063Z" transform="translate(-286.02 -74.442)"/>
      <path id="Tracé_522" data-name="Tracé 522" class="cls-27" d="M740.409,117a9.929,9.929,0,0,0,.756,4.03" transform="translate(-428.977 -44.535)"/>
      <path id="Tracé_523" data-name="Tracé 523" class="cls-28" d="M665.907,151.648s-32.053,45.771,15.836,71.568C721.5,244.632,841.5,244.765,851,262.31c5.4,9.973-4.535,44.271-19.127,86.1-27.012,77.427-70.048,180.532-59.264,198.747,14.86,25.139,68.537-21.42,83.205,3.815,9.627,16.466,3.438,121.941,13.065,138.422,9.366,16.034,27.055,12.221,27.055,12.221" transform="translate(-390.14 -48.166)"/>
    </g>
    <g id="Groupe_137" data-name="Groupe 137" transform="translate(772.118 369.95)">
      <circle id="Ellipse_26" data-name="Ellipse 26" cx="4.516" cy="4.516" r="4.516" transform="translate(14.051 56.204)"/>
      <g id="Tracé_539" data-name="Tracé 539" class="cls-29" transform="translate(0 1.004)">
        <path class="cls-34" d="M 18.56736946105957 59.70600128173828 C 18.37542915344238 59.70600128173828 17.2734489440918 59.47325134277344 14.42045974731445 54.87826156616211 C 12.54191970825195 51.85269165039063 10.35195922851563 47.64323043823242 8.253989219665527 43.02529907226563 C 6.110559463500977 38.30730056762695 4.18058967590332 33.41313171386719 2.819619417190552 29.24434089660645 C 1.302109479904175 24.5960807800293 0.499999463558197 20.9040412902832 0.499999463558197 18.5673713684082 C 0.499999463558197 16.12807083129883 0.9776294827461243 13.76200103759766 1.91961944103241 11.53489017486572 C 2.82957935333252 9.383501052856445 4.132369518280029 7.451250553131104 5.791809558868408 5.791810512542725 C 7.451249599456787 4.132370471954346 9.383499145507813 2.829580545425415 11.53488922119141 1.919620633125305 C 13.76199913024902 0.977630615234375 16.1280689239502 0.5000006556510925 18.56736946105957 0.5000006556510925 C 21.00666999816895 0.5000006556510925 23.37273979187012 0.977630615234375 25.59984970092773 1.919620633125305 C 27.75123977661133 2.829580545425415 29.6834888458252 4.132370471954346 31.34292984008789 5.791810512542725 C 33.00236892700195 7.451250553131104 34.30516052246094 9.383501052856445 35.21511840820313 11.53489017486572 C 36.15710830688477 13.76200103759766 36.63473892211914 16.12807083129883 36.63473892211914 18.5673713684082 C 36.63473892211914 20.9040412902832 35.8326301574707 24.5960807800293 34.31512069702148 29.24434089660645 C 32.95415115356445 33.41313171386719 31.02417945861816 38.30730056762695 28.8807487487793 43.02529907226563 C 26.78277969360352 47.64323043823242 24.59281921386719 51.85269165039063 22.71427917480469 54.87826156616211 C 19.86128997802734 59.47325134277344 18.75930976867676 59.70600128173828 18.56736946105957 59.70600128173828 Z"/>
        <path class="cls-35" d="M 18.56736946105957 1 C 13.87495994567871 1 9.463399887084961 2.827320098876953 6.145368576049805 6.145359039306641 C 2.827327728271484 9.463401794433594 1 13.87495040893555 1 18.5673713684082 C 1 22.91884994506836 3.960338592529297 32.29285049438477 8.541818618774414 42.44873809814453 C 10.59013938903809 46.98929977416992 12.74625015258789 51.17578125 14.61295890808105 54.23696899414063 C 17.26535224914551 58.58658599853516 18.38010215759277 59.13517761230469 18.56736946105957 59.19992828369141 C 18.75463676452637 59.13517761230469 19.86938667297363 58.58658599853516 22.52177810668945 54.23696899414063 C 24.38848876953125 51.17578125 26.54459953308105 46.98929977416992 28.59291839599609 42.44873809814453 C 33.17440032958984 32.29285049438477 36.13473892211914 22.91884994506836 36.13473892211914 18.5673713684082 C 36.13473892211914 13.87495040893555 34.30741119384766 9.463401794433594 30.9893684387207 6.145359039306641 C 27.67133903503418 2.827320098876953 23.25978088378906 1 18.56736946105957 1 M 18.56736946105957 0 C 28.82183837890625 0 37.13473892211914 8.312889099121094 37.13473892211914 18.5673713684082 C 37.13473892211914 28.82184028625488 22.52716064453125 60.20600128173828 18.56736946105957 60.20600128173828 C 14.60758018493652 60.20600128173828 0 28.82184028625488 0 18.5673713684082 C 0 8.312889099121094 8.312898635864258 0 18.56736946105957 0 Z"/>
      </g>
      <circle id="Ellipse_25" data-name="Ellipse 25" cx="11.542" cy="11.542" r="11.542" transform="translate(7.025 7.025)"/>
      <text id="_1" data-name="1" class="cls-30" transform="translate(7.025)"><tspan x="5.55" y="26">1</tspan></text>
    </g>
    <g id="Groupe_156" data-name="Groupe 156">
      <circle id="Ellipse_26-2" data-name="Ellipse 26" cx="4.516" cy="4.516" r="4.516" transform="translate(884.559 579.714)"/>
      <g id="Tracé_539-2" data-name="Tracé 539" class="cls-29" transform="translate(861.475 493.598)">
        <path class="cls-34" d="M 28.10196495056152 90.12261962890625 C 28.03645324707031 90.12261962890625 26.44685173034668 90.04087066650391 22.0322265625 82.93069458007813 C 19.19437789916992 78.36009216308594 15.88510227203369 71.99884033203125 12.71399021148682 65.01878356933594 C 9.473477363586426 57.88594436645508 6.555914878845215 50.48746871948242 4.498764991760254 44.18621826171875 C 2.209852457046509 37.17507934570313 1.000002503395081 31.61323165893555 1.000002503395081 28.10196876525879 C 1.000002503395081 24.44278144836426 1.716439962387085 20.89359283447266 3.12940239906311 17.55296897888184 C 4.494377613067627 14.3258056640625 6.448665142059326 11.42730617523193 8.93797779083252 8.937980651855469 C 11.42730236053467 6.448668479919434 14.32580280303955 4.494380950927734 17.55296516418457 3.129405975341797 C 20.89358901977539 1.716443538665771 24.44277763366699 1.000005960464478 28.10196495056152 1.000005960464478 C 31.76115226745605 1.000005960464478 35.31034088134766 1.716443538665771 38.65096664428711 3.129405975341797 C 41.87812805175781 4.494380950927734 44.77662658691406 6.448668479919434 47.26595306396484 8.937980651855469 C 49.75526428222656 11.42730617523193 51.70955276489258 14.3258056640625 53.07452774047852 17.55296897888184 C 54.48749160766602 20.89359283447266 55.20392608642578 24.44278144836426 55.20392608642578 28.10196876525879 C 55.20392608642578 31.61323165893555 53.99407577514648 37.17507934570313 51.70516586303711 44.18621826171875 C 49.64801406860352 50.48746871948242 46.73045349121094 57.88594436645508 43.48994064331055 65.01878356933594 C 40.31882858276367 71.99884033203125 37.00955200195313 78.36009216308594 34.17170333862305 82.93069458007813 C 29.75707817077637 90.04087066650391 28.16747665405273 90.12261962890625 28.10196495056152 90.12261962890625 Z"/>
        <path class="cls-35" d="M 28.10196495056152 2 C 24.57733917236328 2 21.15920639038086 2.689849853515625 17.94252395629883 4.050399780273438 C 14.83455276489258 5.364959716796875 12.04290008544922 7.247276306152344 9.645099639892578 9.645095825195313 C 7.247283935546875 12.04289245605469 5.364963531494141 14.83455657958984 4.050403594970703 17.94252014160156 C 2.689857482910156 21.15921020507813 2.000003814697266 24.57734680175781 2.000003814697266 28.10197448730469 C 2.000003814697266 31.4246940612793 3.138671875 36.71245193481445 5.292926788330078 43.39362716674805 C 7.275726318359375 49.54311752319336 9.998138427734375 56.52662658691406 13.16580581665039 63.58915710449219 C 16.20737838745117 70.37054443359375 19.43125915527344 76.68106842041016 22.24355316162109 81.3582763671875 C 25.82185554504395 87.30946350097656 27.57884216308594 88.73336791992188 28.10196495056152 89.05506896972656 C 28.62508773803711 88.73336791992188 30.3820743560791 87.30946350097656 33.96038055419922 81.3582763671875 C 36.77267074584961 76.68106842041016 39.99655151367188 70.37054443359375 43.03812408447266 63.58915710449219 C 46.20579147338867 56.52662658691406 48.92820358276367 49.54311752319336 50.91100311279297 43.39362716674805 C 53.06525802612305 36.71245193481445 54.20392608642578 31.4246940612793 54.20392608642578 28.10197448730469 C 54.20392608642578 24.57734680175781 53.51407241821289 21.15921020507813 52.15352630615234 17.94252014160156 C 50.83896636962891 14.83455657958984 48.95664596557617 12.04289245605469 46.55883026123047 9.645095825195313 C 44.16103363037109 7.247276306152344 41.36937713623047 5.364959716796875 38.26140594482422 4.050399780273438 C 35.04472351074219 2.689849853515625 31.62659072875977 2 28.10196495056152 2 M 28.10196495056152 0 C 43.62224578857422 0 56.20392608642578 12.58168029785156 56.20392608642578 28.10197448730469 C 56.20392608642578 43.62226486206055 34.09515380859375 91.12261199951172 28.10196495056152 91.12261199951172 C 22.10877990722656 91.12261199951172 3.814697265625e-06 43.62226486206055 3.814697265625e-06 28.10197448730469 C 3.814697265625e-06 12.58168029785156 12.58168411254883 0 28.10196495056152 0 Z"/>
      </g>
      <ellipse id="Ellipse_25-2" data-name="Ellipse 25" cx="17.469" cy="17.469" rx="17.469" ry="17.469" transform="translate(872.108 502.712)"/>
      <text id="_3" data-name="3" class="cls-31" transform="translate(870.101 495.578)"><tspan x="10.131" y="33">3</tspan></text>
    </g>
    <g id="Groupe_139" data-name="Groupe 139" transform="translate(875.493 680.093)">
      <circle id="Ellipse_26-3" data-name="Ellipse 26" cx="4.516" cy="4.516" r="4.516" transform="translate(14.051 57.208)"/>
      <g id="Tracé_539-3" data-name="Tracé 539" class="cls-29" transform="translate(0 2.007)">
        <path class="cls-34" d="M 18.56736946105957 59.70600128173828 C 18.37542915344238 59.70600128173828 17.2734489440918 59.47325134277344 14.42045974731445 54.87826156616211 C 12.54191970825195 51.85269165039063 10.35195922851563 47.64323043823242 8.253989219665527 43.02529907226563 C 6.110559463500977 38.30730056762695 4.18058967590332 33.41313171386719 2.819619417190552 29.24434089660645 C 1.302109479904175 24.5960807800293 0.499999463558197 20.9040412902832 0.499999463558197 18.5673713684082 C 0.499999463558197 16.12807083129883 0.9776294827461243 13.76200103759766 1.91961944103241 11.53489017486572 C 2.82957935333252 9.383501052856445 4.132369518280029 7.451250553131104 5.791809558868408 5.791810512542725 C 7.451249599456787 4.132370471954346 9.383499145507813 2.829580545425415 11.53488922119141 1.919620633125305 C 13.76199913024902 0.977630615234375 16.1280689239502 0.5000006556510925 18.56736946105957 0.5000006556510925 C 21.00666999816895 0.5000006556510925 23.37273979187012 0.977630615234375 25.59984970092773 1.919620633125305 C 27.75123977661133 2.829580545425415 29.6834888458252 4.132370471954346 31.34292984008789 5.791810512542725 C 33.00236892700195 7.451250553131104 34.30516052246094 9.383501052856445 35.21511840820313 11.53489017486572 C 36.15710830688477 13.76200103759766 36.63473892211914 16.12807083129883 36.63473892211914 18.5673713684082 C 36.63473892211914 20.9040412902832 35.8326301574707 24.5960807800293 34.31512069702148 29.24434089660645 C 32.95415115356445 33.41313171386719 31.02417945861816 38.30730056762695 28.8807487487793 43.02529907226563 C 26.78277969360352 47.64323043823242 24.59281921386719 51.85269165039063 22.71427917480469 54.87826156616211 C 19.86128997802734 59.47325134277344 18.75930976867676 59.70600128173828 18.56736946105957 59.70600128173828 Z"/>
        <path class="cls-35" d="M 18.56736946105957 1 C 13.87495994567871 1 9.463399887084961 2.827320098876953 6.145368576049805 6.145359039306641 C 2.827327728271484 9.463401794433594 1 13.87495040893555 1 18.5673713684082 C 1 22.91884994506836 3.960338592529297 32.29285049438477 8.541818618774414 42.44873809814453 C 10.59013938903809 46.98929977416992 12.74625015258789 51.17578125 14.61295890808105 54.23696899414063 C 17.26535224914551 58.58658599853516 18.38010215759277 59.13517761230469 18.56736946105957 59.19992828369141 C 18.75463676452637 59.13517761230469 19.86938667297363 58.58658599853516 22.52177810668945 54.23696899414063 C 24.38848876953125 51.17578125 26.54459953308105 46.98929977416992 28.59291839599609 42.44873809814453 C 33.17440032958984 32.29285049438477 36.13473892211914 22.91884994506836 36.13473892211914 18.5673713684082 C 36.13473892211914 13.87495040893555 34.30741119384766 9.463401794433594 30.9893684387207 6.145359039306641 C 27.67133903503418 2.827320098876953 23.25978088378906 1 18.56736946105957 1 M 18.56736946105957 0 C 28.82183837890625 0 37.13473892211914 8.312889099121094 37.13473892211914 18.5673713684082 C 37.13473892211914 28.82184028625488 22.52716064453125 60.20600128173828 18.56736946105957 60.20600128173828 C 14.60758018493652 60.20600128173828 0 28.82184028625488 0 18.5673713684082 C 0 8.312889099121094 8.312898635864258 0 18.56736946105957 0 Z"/>
      </g>
      <circle id="Ellipse_25-3" data-name="Ellipse 25" cx="11.542" cy="11.542" r="11.542" transform="translate(7.025 8.029)"/>
      <text id="_4" data-name="4" class="cls-30" transform="translate(6.022 0)"><tspan x="3.898" y="26">4</tspan></text>
    </g>
    <g id="Groupe_140" data-name="Groupe 140" transform="translate(946.777 835.65)">
      <circle id="Ellipse_26-4" data-name="Ellipse 26" cx="4.516" cy="4.516" r="4.516" transform="translate(14.051 57.208)"/>
      <g id="Tracé_539-4" data-name="Tracé 539" class="cls-29" transform="translate(0 2.007)">
        <path class="cls-34" d="M 18.56736946105957 59.70600128173828 C 18.37542915344238 59.70600128173828 17.2734489440918 59.47325134277344 14.42045974731445 54.87826156616211 C 12.54191970825195 51.85269165039063 10.35195922851563 47.64323043823242 8.253989219665527 43.02529907226563 C 6.110559463500977 38.30730056762695 4.18058967590332 33.41313171386719 2.819619417190552 29.24434089660645 C 1.302109479904175 24.5960807800293 0.499999463558197 20.9040412902832 0.499999463558197 18.5673713684082 C 0.499999463558197 16.12807083129883 0.9776294827461243 13.76200103759766 1.91961944103241 11.53489017486572 C 2.82957935333252 9.383501052856445 4.132369518280029 7.451250553131104 5.791809558868408 5.791810512542725 C 7.451249599456787 4.132370471954346 9.383499145507813 2.829580545425415 11.53488922119141 1.919620633125305 C 13.76199913024902 0.977630615234375 16.1280689239502 0.5000006556510925 18.56736946105957 0.5000006556510925 C 21.00666999816895 0.5000006556510925 23.37273979187012 0.977630615234375 25.59984970092773 1.919620633125305 C 27.75123977661133 2.829580545425415 29.6834888458252 4.132370471954346 31.34292984008789 5.791810512542725 C 33.00236892700195 7.451250553131104 34.30516052246094 9.383501052856445 35.21511840820313 11.53489017486572 C 36.15710830688477 13.76200103759766 36.63473892211914 16.12807083129883 36.63473892211914 18.5673713684082 C 36.63473892211914 20.9040412902832 35.8326301574707 24.5960807800293 34.31512069702148 29.24434089660645 C 32.95415115356445 33.41313171386719 31.02417945861816 38.30730056762695 28.8807487487793 43.02529907226563 C 26.78277969360352 47.64323043823242 24.59281921386719 51.85269165039063 22.71427917480469 54.87826156616211 C 19.86128997802734 59.47325134277344 18.75930976867676 59.70600128173828 18.56736946105957 59.70600128173828 Z"/>
        <path class="cls-35" d="M 18.56736946105957 1 C 13.87495994567871 1 9.463399887084961 2.827320098876953 6.145368576049805 6.145359039306641 C 2.827327728271484 9.463401794433594 1 13.87495040893555 1 18.5673713684082 C 1 22.91884994506836 3.960338592529297 32.29285049438477 8.541818618774414 42.44873809814453 C 10.59013938903809 46.98929977416992 12.74625015258789 51.17578125 14.61295890808105 54.23696899414063 C 17.26535224914551 58.58658599853516 18.38010215759277 59.13517761230469 18.56736946105957 59.19992828369141 C 18.75463676452637 59.13517761230469 19.86938667297363 58.58658599853516 22.52177810668945 54.23696899414063 C 24.38848876953125 51.17578125 26.54459953308105 46.98929977416992 28.59291839599609 42.44873809814453 C 33.17440032958984 32.29285049438477 36.13473892211914 22.91884994506836 36.13473892211914 18.5673713684082 C 36.13473892211914 13.87495040893555 34.30741119384766 9.463401794433594 30.9893684387207 6.145359039306641 C 27.67133903503418 2.827320098876953 23.25978088378906 1 18.56736946105957 1 M 18.56736946105957 0 C 28.82183837890625 0 37.13473892211914 8.312889099121094 37.13473892211914 18.5673713684082 C 37.13473892211914 28.82184028625488 22.52716064453125 60.20600128173828 18.56736946105957 60.20600128173828 C 14.60758018493652 60.20600128173828 0 28.82184028625488 0 18.5673713684082 C 0 8.312889099121094 8.312898635864258 0 18.56736946105957 0 Z"/>
      </g>
      <circle id="Ellipse_25-4" data-name="Ellipse 25" cx="11.542" cy="11.542" r="11.542" transform="translate(7.025 8.029)"/>
      <text id="_5" data-name="5" class="cls-30" transform="translate(7.025 0)"><tspan x="3.912" y="26">5</tspan></text>
    </g>
    <g id="Groupe_141" data-name="Groupe 141" transform="translate(894.562 391.022)">
      <circle id="Ellipse_26-5" data-name="Ellipse 26" cx="4.516" cy="4.516" r="4.516" transform="translate(14.051 56.204)"/>
      <g id="Tracé_539-5" data-name="Tracé 539" class="cls-29" transform="translate(0 1.004)">
        <path class="cls-34" d="M 18.56736946105957 59.70600128173828 C 18.37542915344238 59.70600128173828 17.2734489440918 59.47325134277344 14.42045974731445 54.87826156616211 C 12.54191970825195 51.85269165039063 10.35195922851563 47.64323043823242 8.253989219665527 43.02529907226563 C 6.110559463500977 38.30730056762695 4.18058967590332 33.41313171386719 2.819619417190552 29.24434089660645 C 1.302109479904175 24.5960807800293 0.499999463558197 20.9040412902832 0.499999463558197 18.5673713684082 C 0.499999463558197 16.12807083129883 0.9776294827461243 13.76200103759766 1.91961944103241 11.53489017486572 C 2.82957935333252 9.383501052856445 4.132369518280029 7.451250553131104 5.791809558868408 5.791810512542725 C 7.451249599456787 4.132370471954346 9.383499145507813 2.829580545425415 11.53488922119141 1.919620633125305 C 13.76199913024902 0.977630615234375 16.1280689239502 0.5000006556510925 18.56736946105957 0.5000006556510925 C 21.00666999816895 0.5000006556510925 23.37273979187012 0.977630615234375 25.59984970092773 1.919620633125305 C 27.75123977661133 2.829580545425415 29.6834888458252 4.132370471954346 31.34292984008789 5.791810512542725 C 33.00236892700195 7.451250553131104 34.30516052246094 9.383501052856445 35.21511840820313 11.53489017486572 C 36.15710830688477 13.76200103759766 36.63473892211914 16.12807083129883 36.63473892211914 18.5673713684082 C 36.63473892211914 20.9040412902832 35.8326301574707 24.5960807800293 34.31512069702148 29.24434089660645 C 32.95415115356445 33.41313171386719 31.02417945861816 38.30730056762695 28.8807487487793 43.02529907226563 C 26.78277969360352 47.64323043823242 24.59281921386719 51.85269165039063 22.71427917480469 54.87826156616211 C 19.86128997802734 59.47325134277344 18.75930976867676 59.70600128173828 18.56736946105957 59.70600128173828 Z"/>
        <path class="cls-35" d="M 18.56736946105957 1 C 13.87495994567871 1 9.463399887084961 2.827320098876953 6.145368576049805 6.145359039306641 C 2.827327728271484 9.463401794433594 1 13.87495040893555 1 18.5673713684082 C 1 22.91884994506836 3.960338592529297 32.29285049438477 8.541818618774414 42.44873809814453 C 10.59013938903809 46.98929977416992 12.74625015258789 51.17578125 14.61295890808105 54.23696899414063 C 17.26535224914551 58.58658599853516 18.38010215759277 59.13517761230469 18.56736946105957 59.19992828369141 C 18.75463676452637 59.13517761230469 19.86938667297363 58.58658599853516 22.52177810668945 54.23696899414063 C 24.38848876953125 51.17578125 26.54459953308105 46.98929977416992 28.59291839599609 42.44873809814453 C 33.17440032958984 32.29285049438477 36.13473892211914 22.91884994506836 36.13473892211914 18.5673713684082 C 36.13473892211914 13.87495040893555 34.30741119384766 9.463401794433594 30.9893684387207 6.145359039306641 C 27.67133903503418 2.827320098876953 23.25978088378906 1 18.56736946105957 1 M 18.56736946105957 0 C 28.82183837890625 0 37.13473892211914 8.312889099121094 37.13473892211914 18.5673713684082 C 37.13473892211914 28.82184028625488 22.52716064453125 60.20600128173828 18.56736946105957 60.20600128173828 C 14.60758018493652 60.20600128173828 0 28.82184028625488 0 18.5673713684082 C 0 8.312889099121094 8.312898635864258 0 18.56736946105957 0 Z"/>
      </g>
      <circle id="Ellipse_25-5" data-name="Ellipse 25" cx="11.542" cy="11.542" r="11.542" transform="translate(7.025 7.025)"/>
      <text id="_2" data-name="2" class="cls-30" transform="translate(7.025 0)"><tspan x="4.248" y="26">2</tspan></text>
    </g>
    <g class="cls-39" transform="matrix(1, 0, 0, 1, 0, 0)">
      <line id="Ligne_61-2" data-name="Ligne 61" class="cls-32" x2="33.015" y2="31.814" transform="translate(750.54 301.51)"/>
    </g>
    <g class="cls-38" transform="matrix(1, 0, 0, 1, 0, 0)">
      <line id="Ligne_62-2" data-name="Ligne 62" class="cls-32" x1="33.015" y2="31.814" transform="translate(750.54 301.51)"/>
    </g>
    <g id="Groupe_155" data-name="Groupe 155" transform="translate(715.936 272.6)">
      <g id="Ellipse_4-2" data-name="Ellipse 4" class="cls-33" transform="translate(0 0)">
        <circle class="cls-34" cx="45.09" cy="45.09" r="45.09"/>
        <circle class="cls-18" cx="45.09" cy="45.09" r="43.09"/>
      </g>
    </g>
    <g class="cls-37" transform="matrix(1, 0, 0, 1, 0, 0)">
      <line id="Ligne_69-2" data-name="Ligne 69" class="cls-32" x2="33.015" y2="31.814" transform="translate(744.54 301.51)"/>
    </g>
    <g class="cls-36" transform="matrix(1, 0, 0, 1, 0, 0)">
      <line id="Ligne_70-2" data-name="Ligne 70" class="cls-32" x1="33.015" y2="31.814" transform="translate(744.54 301.51)"/>
    </g>
    <path id="souris-2" data-name="souris" class="cls-14" d="M190.335,300.226l-19.1-20.856v27.358l6.321-5.907c.35.873.659,1.632.958,2.4.964,2.451,1.912,4.909,2.9,7.351.123.3.511.792.653.749,1.252-.35,2.477-.8,3.81-1.255l-4.509-10.556Z" transform="translate(728.901 252.682)"/>
  </g>
</svg>
